Moderustic-ExtraBold.ufo
<glyph name="quotedbl" format="2">
  <advance width="409"/>
  <unicode hex="0022"/>
  <outline>
    <contour>
      <point x="35" y="526" type="line"/>
      <point x="173" y="526" type="line"/>
      <point x="188" y="803" type="line"/>
      <point x="20" y="803" type="line"/>
    </contour>
    <contour>
      <point x="236" y="526" type="line"/>
      <point x="374" y="526" type="line"/>
      <point x="389" y="803" type="line"/>
      <point x="221" y="803" type="line"/>
    </contour>
  </outline>
</glyph>
<glyph name="quotesingle" format="2">
  <advance width="204"/>
  <unicode hex="0027"/>
  <outline>
    <contour>
      <point x="33" y="526" type="line"/>
      <point x="171" y="526" type="line"/>
      <point x="186" y="803" type="line"/>
      <point x="18" y="803" type="line"/>
    </contour>
  </outline>
</glyph>
<glyph name="parenright" format="2">
  <advance width="384"/>
  <unicode hex="0029"/>
  <outline>
    <contour>
      <point x="25" y="-215" type="line"/>
      <point x="220" y="-177"/>
      <point x="341" y="17"/>
      <point x="341" y="291" type="curve" smooth="yes"/>
      <point x="341" y="560"/>
      <point x="224" y="740"/>
      <point x="25" y="777" type="curve"/>
      <point x="25" y="669" type="line"/>
      <point x="101" y="635"/>
      <point x="156" y="476"/>
      <point x="156" y="289" type="curve" smooth="yes"/>
      <point x="156" y="99"/>
      <point x="99" y="-73"/>
      <point x="25" y="-107" type="curve"/>
    </contour>
  </outline>
</glyph>
<glyph name="zero" format="2">
  <advance width="627"/>
  <unicode hex="0030"/>
  <outline>
    <contour>
      <point x="315.995" y="-19" type="curve" smooth="yes"/>
      <point x="498.862" y="-19"/>
      <point x="587.5" y="99.4"/>
      <point x="587.5" y="350" type="curve" smooth="yes"/>
      <point x="587.5" y="594.04"/>
      <point x="495.548" y="720"/>
      <point x="319.988" y="720" type="curve" smooth="yes"/>
      <point x="138.13" y="720"/>
      <point x="39.5" y="590.43"/>
      <point x="39.5" y="350" type="curve" smooth="yes"/>
      <point x="39.5" y="112.69"/>
      <point x="135.047" y="-19"/>
    </contour>
    <contour>
      <point x="316.015" y="121" type="curve" smooth="yes"/>
      <point x="253.644" y="121"/>
      <point x="229.5" y="198"/>
      <point x="229.5" y="350" type="curve" smooth="yes"/>
      <point x="229.5" y="530"/>
      <point x="263.704" y="580"/>
      <point x="317.021" y="580" type="curve" smooth="yes"/>
      <point x="370.338" y="580"/>
      <point x="397.5" y="530"/>
      <point x="397.5" y="351" type="curve" smooth="yes"/>
      <point x="397.5" y="197"/>
      <point x="377.38" y="121"/>
    </contour>
  </outline>
</glyph>
<glyph name="two" format="2">
  <advance width="632"/>
  <unicode hex="0032"/>
  <outline>
    <contour>
      <point x="47" y="115" type="line"/>
      <point x="448" y="182"/>
      <point x="582" y="272"/>
      <point x="582" y="464" type="curve" smooth="yes"/>
      <point x="582" y="627"/>
      <point x="486" y="720"/>
      <point x="310" y="720" type="curve" smooth="yes"/>
      <point x="169" y="720"/>
      <point x="85" y="661"/>
      <point x="47" y="624" type="curve"/>
      <point x="155" y="516" type="line"/>
      <point x="183" y="550"/>
      <point x="225" y="580"/>
      <point x="288" y="580" type="curve" smooth="yes"/>
      <point x="359" y="580"/>
      <point x="392" y="536"/>
      <point x="392" y="463" type="curve" smooth="yes"/>
      <point x="392" y="384"/>
      <point x="353" y="317"/>
      <point x="47" y="255" type="curve"/>
    </contour>
    <contour>
      <point x="47" y="0" type="line"/>
      <point x="582" y="0" type="line"/>
      <point x="582" y="140" type="line"/>
      <point x="47" y="140" type="line"/>
    </contour>
  </outline>
</glyph>
<glyph name="four" format="2">
  <advance width="665"/>
  <unicode hex="0034"/>
  <outline>
    <contour>
      <point x="8" y="151" type="line"/>
      <point x="344" y="151" type="line"/>
      <point x="344" y="0" type="line"/>
      <point x="524" y="0" type="line"/>
      <point x="524" y="151" type="line"/>
      <point x="650" y="151" type="line"/>
      <point x="650" y="291" type="line"/>
      <point x="524" y="291" type="line"/>
      <point x="524" y="700" type="line"/>
      <point x="295" y="700" type="line"/>
      <point x="8" y="258" type="line"/>
    </contour>
    <contour>
      <point x="208" y="291" type="line"/>
      <point x="344" y="500" type="line"/>
      <point x="344" y="291" type="line"/>
    </contour>
  </outline>
</glyph>
<glyph name="eight" format="2">
  <advance width="605"/>
  <unicode hex="0038"/>
  <outline>
    <contour>
      <point x="213" y="370" type="curve"/>
      <point x="96" y="351"/>
      <point x="26" y="282"/>
      <point x="26" y="186" type="curve" smooth="yes"/>
      <point x="26" y="64"/>
      <point x="139" y="-20"/>
      <point x="304" y="-20" type="curve" smooth="yes"/>
      <point x="468" y="-20"/>
      <point x="579" y="64"/>
      <point x="579" y="189" type="curve" smooth="yes"/>
      <point x="579" y="285"/>
      <point x="513" y="351"/>
      <point x="397" y="370" type="curve"/>
      <point x="492" y="390"/>
      <point x="550" y="453"/>
      <point x="550" y="538" type="curve" smooth="yes"/>
      <point x="550" y="647"/>
      <point x="454" y="720"/>
      <point x="301" y="720" type="curve" smooth="yes"/>
      <point x="150" y="720"/>
      <point x="54" y="649"/>
      <point x="54" y="540" type="curve" smooth="yes"/>
      <point x="54" y="453"/>
      <point x="115" y="391"/>
    </contour>
    <contour>
      <point x="213" y="212.505" type="curve" smooth="yes"/>
      <point x="213" y="266.802"/>
      <point x="247" y="303"/>
      <point x="302" y="303" type="curve" smooth="yes"/>
      <point x="356" y="303"/>
      <point x="392" y="267.808"/>
      <point x="392" y="214.516" type="curve" smooth="yes"/>
      <point x="392" y="163.236"/>
      <point x="358" y="120"/>
      <point x="301" y="120" type="curve" smooth="yes"/>
      <point x="249" y="120"/>
      <point x="213" y="157.203"/>
    </contour>
    <contour>
      <point x="241" y="507.948" type="curve" smooth="yes"/>
      <point x="241" y="551.585"/>
      <point x="267" y="580"/>
      <point x="304" y="580" type="curve" smooth="yes"/>
      <point x="337" y="580"/>
      <point x="363" y="556.659"/>
      <point x="363" y="512.007" type="curve" smooth="yes"/>
      <point x="363" y="471.415"/>
      <point x="341" y="443"/>
      <point x="300" y="443" type="curve" smooth="yes"/>
      <point x="259" y="443"/>
      <point x="241" y="471.415"/>
    </contour>
  </outline>
</glyph>
<glyph name="D" format="2">
  <advance width="722"/>
  <unicode hex="0044"/>
  <anchor x="318" y="719" name="top"/>
  <anchor x="318" y="-20" name="bottom"/>
  <outline>
    <contour>
      <point x="248" y="140" type="line" name="sv01"/>
      <point x="248" y="560" type="line" name="sv02"/>
      <point x="321.431" y="560" type="line" smooth="yes"/>
      <point x="440.508" y="560"/>
      <point x="506" y="489"/>
      <point x="506" y="359" type="curve" smooth="yes"/>
      <point x="506" y="224"/>
      <point x="435.546" y="140"/>
      <point x="321.431" y="140" type="curve" smooth="yes"/>
    </contour>
    <contour>
      <point x="58" y="0" type="line" name="ab01"/>
      <point x="342" y="0" type="line" smooth="yes"/>
      <point x="555" y="0"/>
      <point x="699" y="141"/>
      <point x="699" y="350" type="curve" smooth="yes"/>
      <point x="699" y="558"/>
      <point x="554" y="700"/>
      <point x="342" y="700" type="curve" smooth="yes" name="at01"/>
      <point x="58" y="700" type="line"/>
    </contour>
  </outline>
</glyph>
<glyph name="J" format="2">
  <advance width="580"/>
  <unicode hex="004A"/>
  <anchor x="278" y="-20" name="bottom"/>
  <anchor x="429" y="719" name="top"/>
  <outline>
    <contour>
      <point x="30" y="122" type="line"/>
      <point x="95" y="24"/>
      <point x="169" y="-20"/>
      <point x="278" y="-20" type="curve" smooth="yes"/>
      <point x="442" y="-20"/>
      <point x="520" y="80"/>
      <point x="520" y="242" type="curve" smooth="yes"/>
      <point x="520" y="700" type="line"/>
      <point x="330" y="700" type="line"/>
      <point x="330" y="249" type="line" smooth="yes"/>
      <point x="330" y="164"/>
      <point x="313.534" y="120"/>
      <point x="263.967" y="120" type="curve" smooth="yes"/>
      <point x="217.576" y="120"/>
      <point x="176.102" y="159.569"/>
      <point x="136" y="228" type="curve"/>
    </contour>
  </outline>
</glyph>
<glyph name="L" format="2">
  <advance width="524"/>
  <unicode hex="004C"/>
  <anchor x="162" y="719" name="top"/>
  <anchor x="277" y="-20" name="bottom"/>
  <anchor x="332" y="700" name="topright"/>
  <outline>
    <contour>
      <point x="58" y="0" type="line" name="ab01"/>
      <point x="514" y="0" type="line"/>
      <point x="514" y="140" type="line" name="sv01"/>
      <point x="248" y="140" type="line"/>
      <point x="248" y="700" type="line" name="at01"/>
      <point x="58" y="700" type="line"/>
    </contour>
  </outline>
</glyph>
<glyph name="M" format="2">
  <advance width="888"/>
  <unicode hex="004D"/>
  <anchor x="444" y="719" name="top"/>
  <anchor x="444" y="-20" name="bottom"/>
  <outline>
    <contour>
      <point x="58" y="0" type="line" name="ab03"/>
      <point x="238" y="0" type="line"/>
      <point x="238" y="321" type="line" name="iv01"/>
      <point x="384" y="0" type="line" name="ab01"/>
      <point x="504" y="0" type="line"/>
      <point x="650" y="321" type="line" name="iv02"/>
      <point x="650" y="0" type="line" name="ab02"/>
      <point x="830" y="0" type="line"/>
      <point x="830" y="700" type="line" name="at01"/>
      <point x="650" y="700" type="line"/>
      <point x="444" y="249" type="line" name="iv03"/>
      <point x="238" y="700" type="line" name="at02"/>
      <point x="58" y="700" type="line"/>
    </contour>
  </outline>
</glyph>
<glyph name="R" format="2">
  <advance width="648"/>
  <unicode hex="0052"/>
  <anchor x="324" y="719" name="top"/>
  <anchor x="324" y="-20" name="bottom"/>
  <outline>
    <contour>
      <point x="58" y="0" type="line"/>
      <point x="248" y="0" type="line" name="ab01"/>
      <point x="248" y="560" type="line" name="sv01"/>
      <point x="309" y="560" type="line" smooth="yes"/>
      <point x="393" y="560"/>
      <point x="418" y="534"/>
      <point x="418" y="472" type="curve" smooth="yes"/>
      <point x="418" y="410"/>
      <point x="393" y="384"/>
      <point x="309" y="384" type="curve" smooth="yes"/>
      <point x="100" y="384" type="line" name="dv02"/>
      <point x="100" y="244" type="line" name="dv01"/>
      <point x="348" y="244" type="line" smooth="yes"/>
      <point x="507" y="244"/>
      <point x="609" y="334"/>
      <point x="609" y="476" type="curve" smooth="yes"/>
      <point x="609" y="615"/>
      <point x="511" y="700"/>
      <point x="348" y="700" type="curve" smooth="yes" name="at01"/>
      <point x="58" y="700" type="line"/>
    </contour>
    <contour>
      <point x="423" y="0" type="line" name="ab02"/>
      <point x="627" y="0" type="line"/>
      <point x="457" y="333" type="line"/>
      <point x="280" y="281" type="line"/>
    </contour>
  </outline>
</glyph>
<glyph name="X" format="2">
  <advance width="648"/>
  <unicode hex="0058"/>
  <anchor x="324" y="719" name="top"/>
  <anchor x="324" y="-20" name="bottom"/>
  <outline>
    <contour>
      <point x="-2" y="0" type="line"/>
      <point x="221" y="0" type="line"/>
      <point x="325" y="188" type="line"/>
      <point x="429" y="0" type="line"/>
      <point x="649" y="0" type="line"/>
      <point x="436" y="354" type="line"/>
      <point x="644" y="700" type="line"/>
      <point x="425" y="700" type="line"/>
      <point x="324" y="518" type="line"/>
      <point x="223" y="700" type="line"/>
      <point x="3" y="700" type="line"/>
      <point x="211" y="354" type="line"/>
    </contour>
  </outline>
</glyph>
<glyph name="Y" format="2">
  <advance width="662"/>
  <unicode hex="0059"/>
  <anchor x="331" y="719" name="top"/>
  <anchor x="331" y="-20" name="bottom"/>
  <anchor x="-115" y="500" name="topgr"/>
  <outline>
    <contour>
      <point x="235" y="0" type="line" name="ab01"/>
      <point x="425" y="0" type="line"/>
      <point x="425" y="279" type="line" name="iv04"/>
      <point x="658" y="700" type="line" name="at01"/>
      <point x="446" y="700" type="line"/>
      <point x="335" y="472" type="line" name="iv05"/>
      <point x="219" y="700" type="line" name="at02"/>
      <point x="2" y="700" type="line"/>
      <point x="235" y="279" type="line" name="iv01"/>
    </contour>
  </outline>
</glyph>
<glyph name="bracketleft" format="2">
  <advance width="420"/>
  <unicode hex="005B"/>
  <outline>
    <contour>
      <point x="67" y="-217" type="line"/>
      <point x="397" y="-217" type="line"/>
      <point x="397" y="-97" type="line"/>
      <point x="242" y="-97" type="line"/>
      <point x="242" y="658" type="line"/>
      <point x="397" y="658" type="line"/>
      <point x="397" y="778" type="line"/>
      <point x="67" y="778" type="line"/>
    </contour>
  </outline>
</glyph>
<glyph name="d" format="2">
  <advance width="635"/>
  <unicode hex="0064"/>
  <anchor x="295" y="-20" name="bottom"/>
  <anchor x="288" y="750" name="top"/>
  <anchor x="630" y="750" name="topright"/>
  <outline>
    <contour>
      <point x="392" y="0" type="line"/>
      <point x="582" y="0" type="line"/>
      <point x="582" y="750" type="line"/>
      <point x="392" y="750" type="line"/>
    </contour>
    <contour>
      <point x="266" y="-20" type="curve" smooth="yes"/>
      <point x="367" y="-20"/>
      <point x="424" y="82"/>
      <point x="424" y="255" type="curve" smooth="yes"/>
      <point x="424" y="432"/>
      <point x="368" y="520"/>
      <point x="255" y="520" type="curve" smooth="yes"/>
      <point x="118" y="520"/>
      <point x="49" y="411"/>
      <point x="49" y="255" type="curve" smooth="yes"/>
      <point x="49" y="99"/>
      <point x="132" y="-20"/>
    </contour>
    <contour>
      <point x="320" y="116" type="curve" smooth="yes"/>
      <point x="269" y="116"/>
      <point x="239" y="167"/>
      <point x="239" y="254" type="curve" smooth="yes"/>
      <point x="239" y="334"/>
      <point x="268" y="383"/>
      <point x="316" y="383" type="curve" smooth="yes"/>
      <point x="364" y="383"/>
      <point x="392" y="335"/>
      <point x="392" y="255" type="curve" smooth="yes"/>
      <point x="392" y="168"/>
      <point x="365" y="116"/>
    </contour>
  </outline>
</glyph>
<glyph name="g" format="2">
  <advance width="605"/>
  <unicode hex="0067"/>
  <anchor x="288" y="520" name="top"/>
  <anchor x="283" y="-220" name="bottom"/>
  <outline>
    <contour>
      <point x="222" y="-20" type="curve" smooth="yes" name="dv01"/>
      <point x="338" y="-20"/>
      <point x="395" y="92"/>
      <point x="395" y="255" type="curve" smooth="yes"/>
      <point x="395" y="417"/>
      <point x="339" y="520"/>
      <point x="216" y="520" type="curve" smooth="yes" name="at01"/>
      <point x="89" y="520"/>
      <point x="20" y="411"/>
      <point x="20" y="262" type="curve" smooth="yes"/>
      <point x="20" y="99"/>
      <point x="103" y="-20"/>
    </contour>
    <contour>
      <point x="287" y="116" type="curve" smooth="yes" name="dv02"/>
      <point x="240" y="116"/>
      <point x="210" y="167"/>
      <point x="210" y="251" type="curve" smooth="yes"/>
      <point x="210" y="334"/>
      <point x="239" y="383"/>
      <point x="287" y="383" type="curve" smooth="yes" name="sv01"/>
      <point x="334" y="383"/>
      <point x="362" y="335"/>
      <point x="362" y="251" type="curve" smooth="yes"/>
      <point x="362" y="168"/>
      <point x="335" y="116"/>
    </contour>
    <contour>
      <point x="27" y="-130" type="line"/>
      <point x="83" y="-186"/>
      <point x="154" y="-220"/>
      <point x="259" y="-220" type="curve" smooth="yes" name="at01"/>
      <point x="439" y="-220"/>
      <point x="552" y="-120"/>
      <point x="552" y="52" type="curve" smooth="yes"/>
      <point x="552" y="500" type="line" name="av01"/>
      <point x="362" y="500" type="line"/>
      <point x="362" y="73.644" type="line" smooth="yes"/>
      <point x="362" y="-42.364"/>
      <point x="311" y="-85"/>
      <point x="239" y="-85" type="curve" smooth="yes" name="sv01"/>
      <point x="191" y="-85"/>
      <point x="141" y="-67.979"/>
      <point x="115" y="-42" type="curve"/>
    </contour>
  </outline>
</glyph>
<glyph name="k" format="2">
  <advance width="594"/>
  <unicode hex="006B"/>
  <anchor x="297" y="-20" name="bottom"/>
  <anchor x="150" y="750" name="top"/>
  <outline>
    <contour>
      <point x="54" y="0" type="line"/>
      <point x="244" y="0" type="line"/>
      <point x="244" y="750" type="line"/>
      <point x="54" y="750" type="line"/>
    </contour>
    <contour>
      <point x="124" y="189" type="line"/>
      <point x="288" y="189" type="line" name="iv01"/>
      <point x="380" y="0" type="line" name="ab02"/>
      <point x="592" y="0" type="line"/>
      <point x="458" y="263" type="line"/>
      <point x="579" y="500" type="line" name="av02"/>
      <point x="380" y="500" type="line"/>
      <point x="305" y="323" type="line" name="iv02"/>
      <point x="122" y="323" type="line"/>
    </contour>
  </outline>
</glyph>
<glyph name="l" format="2">
  <advance width="300"/>
  <unicode hex="006C"/>
  <anchor x="130" y="750" name="top"/>
  <anchor x="182" y="-20" name="bottom"/>
  <anchor x="270" y="750" name="topright"/>
  <outline>
    <contour>
      <point x="304" y="133" type="line"/>
      <point x="291.533" y="125.603"/>
      <point x="276.322" y="122"/>
      <point x="267.122" y="122" type="curve" smooth="yes" name="dv02"/>
      <point x="244.12" y="122"/>
      <point x="234" y="143.033"/>
      <point x="234" y="209.138" type="curve" smooth="yes"/>
      <point x="234" y="750" type="line" name="ab01"/>
      <point x="44" y="750" type="line"/>
      <point x="44" y="132" type="line" smooth="yes"/>
      <point x="44" y="26"/>
      <point x="93.016" y="-20"/>
      <point x="206.732" y="-20" type="curve" smooth="yes" name="dv01"/>
      <point x="253.787" y="-20"/>
      <point x="293" y="-12"/>
      <point x="338" y="6" type="curve"/>
    </contour>
  </outline>
</glyph>
<glyph name="o" format="2">
  <advance width="616"/>
  <unicode hex="006F"/>
  <anchor x="420" y="-3" name="ogonek"/>
  <anchor x="308" y="520" name="top"/>
  <anchor x="308" y="-20" name="bottom"/>
  <anchor x="308" y="520" name="topgr"/>
  <outline>
    <contour>
      <point x="308" y="-20" type="curve" smooth="yes"/>
      <point x="482" y="-20"/>
      <point x="577" y="79"/>
      <point x="577" y="255" type="curve" smooth="yes"/>
      <point x="577" y="421"/>
      <point x="481" y="520"/>
      <point x="308" y="520" type="curve" smooth="yes"/>
      <point x="145" y="520"/>
      <point x="39" y="421"/>
      <point x="39" y="255" type="curve" smooth="yes"/>
      <point x="39" y="79"/>
      <point x="146" y="-20"/>
    </contour>
    <contour>
      <point x="308" y="120" type="curve" smooth="yes"/>
      <point x="255" y="120"/>
      <point x="229" y="163.643"/>
      <point x="229" y="250.929" type="curve" smooth="yes"/>
      <point x="229" y="337.286"/>
      <point x="254" y="380"/>
      <point x="308" y="380" type="curve" smooth="yes"/>
      <point x="360" y="380"/>
      <point x="387" y="339.143"/>
      <point x="387" y="251.857" type="curve" smooth="yes"/>
      <point x="387" y="163.643"/>
      <point x="360" y="120"/>
    </contour>
  </outline>
</glyph>
<glyph name="p" format="2">
  <advance width="635"/>
  <unicode hex="0070"/>
  <anchor x="361" y="-20" name="bottom"/>
  <anchor x="352" y="520" name="top"/>
  <outline>
    <contour>
      <point x="60" y="-200" type="line"/>
      <point x="250" y="-200" type="line"/>
      <point x="250" y="500" type="line"/>
      <point x="60" y="500" type="line"/>
    </contour>
    <contour>
      <point x="373" y="-20" type="curve" smooth="yes"/>
      <point x="509" y="-20"/>
      <point x="593" y="99"/>
      <point x="593" y="255" type="curve" smooth="yes"/>
      <point x="593" y="411"/>
      <point x="523" y="520"/>
      <point x="385" y="520" type="curve" smooth="yes"/>
      <point x="270" y="520"/>
      <point x="213" y="428"/>
      <point x="213" y="255" type="curve" smooth="yes"/>
      <point x="213" y="82"/>
      <point x="271" y="-20"/>
    </contour>
    <contour>
      <point x="322" y="116" type="curve" smooth="yes"/>
      <point x="277" y="116"/>
      <point x="250" y="168"/>
      <point x="250" y="255" type="curve" smooth="yes"/>
      <point x="250" y="335"/>
      <point x="278" y="383"/>
      <point x="326" y="383" type="curve" smooth="yes"/>
      <point x="374" y="383"/>
      <point x="403" y="334"/>
      <point x="403" y="254" type="curve" smooth="yes"/>
      <point x="403" y="167"/>
      <point x="373" y="116"/>
    </contour>
  </outline>
</glyph>
<glyph name="q" format="2">
  <advance width="635"/>
  <unicode hex="0071"/>
  <anchor x="280" y="-20" name="bottom"/>
  <anchor x="281" y="520" name="top"/>
  <outline>
    <contour>
      <point x="392" y="-200" type="line"/>
      <point x="582" y="-200" type="line"/>
      <point x="582" y="500" type="line"/>
      <point x="392" y="500" type="line"/>
    </contour>
    <contour>
      <point x="266" y="-20" type="curve" smooth="yes"/>
      <point x="367" y="-20"/>
      <point x="424" y="82"/>
      <point x="424" y="255" type="curve" smooth="yes"/>
      <point x="424" y="428"/>
      <point x="368" y="520"/>
      <point x="255" y="520" type="curve" smooth="yes"/>
      <point x="118" y="520"/>
      <point x="49" y="411"/>
      <point x="49" y="255" type="curve" smooth="yes"/>
      <point x="49" y="99"/>
      <point x="132" y="-20"/>
    </contour>
    <contour>
      <point x="320" y="116" type="curve" smooth="yes"/>
      <point x="269" y="116"/>
      <point x="239" y="167"/>
      <point x="239" y="254" type="curve" smooth="yes"/>
      <point x="239" y="334"/>
      <point x="268" y="383"/>
      <point x="316" y="383" type="curve" smooth="yes"/>
      <point x="364" y="383"/>
      <point x="392" y="335"/>
      <point x="392" y="255" type="curve" smooth="yes"/>
      <point x="392" y="168"/>
      <point x="365" y="116"/>
    </contour>
  </outline>
</glyph>
<glyph name="r" format="2">
  <advance width="410"/>
  <unicode hex="0072"/>
  <anchor x="234" y="520" name="top"/>
  <anchor x="141" y="-20" name="bottom"/>
  <outline>
    <contour>
      <point x="45" y="0" type="line" name="ab01"/>
      <point x="235" y="0" type="line"/>
      <point x="235" y="190" type="line" smooth="yes"/>
      <point x="235" y="316.667"/>
      <point x="289" y="380"/>
      <point x="405" y="380" type="curve" name="sv01"/>
      <point x="405" y="520" type="line" name="at01"/>
      <point x="311" y="519"/>
      <point x="274" y="476"/>
      <point x="235" y="404" type="curve" name="iv01"/>
      <point x="235" y="500" type="line"/>
      <point x="45" y="500" type="line" name="av01"/>
    </contour>
  </outline>
</glyph>
<glyph name="t" format="2">
  <advance width="395"/>
  <unicode hex="0074"/>
  <anchor x="175" y="630" name="top"/>
  <anchor x="240" y="-20" name="bottom"/>
  <anchor x="302" y="700" name="topright"/>
  <outline>
    <contour>
      <point x="356.61" y="134.41" type="line"/>
      <point x="340.79" y="126.69"/>
      <point x="316.64" y="122"/>
      <point x="306" y="122" type="curve" smooth="yes" name="dv02"/>
      <point x="281" y="122"/>
      <point x="270" y="143.03"/>
      <point x="270" y="209.13" type="curve" smooth="yes"/>
      <point x="270" y="621" type="line" name="ab01"/>
      <point x="80" y="621" type="line"/>
      <point x="80.05" y="132.75" type="line"/>
      <point x="80.05" y="26.75"/>
      <point x="130" y="-20"/>
      <point x="246" y="-20" type="curve" smooth="yes" name="dv01"/>
      <point x="297.8" y="-20"/>
      <point x="340.29" y="-10.68"/>
      <point x="389.8" y="10.47" type="curve"/>
    </contour>
    <contour>
      <point x="3" y="370" type="line" name="dv03"/>
      <point x="385" y="370" type="line"/>
      <point x="385" y="500" type="line"/>
      <point x="3" y="500" type="line" name="dv04"/>
    </contour>
  </outline>
</glyph>
<glyph name="u" format="2">
  <advance width="580"/>
  <unicode hex="0075"/>
  <anchor x="398" y="-3" name="ogonek"/>
  <anchor x="290" y="520" name="top"/>
  <anchor x="290" y="-20" name="bottom"/>
  <outline>
    <contour>
      <point x="33" y="500" type="line" name="av01"/>
      <point x="33" y="185" type="line" smooth="yes"/>
      <point x="33" y="63"/>
      <point x="132.879" y="-20"/>
      <point x="291.02" y="-20" type="curve" smooth="yes" name="dv01"/>
      <point x="443.96" y="-20"/>
      <point x="548" y="64"/>
      <point x="548" y="185" type="curve" smooth="yes"/>
      <point x="548" y="500" type="line" name="av02"/>
      <point x="358" y="500" type="line"/>
      <point x="358" y="241.794" type="line" smooth="yes"/>
      <point x="358" y="149.508"/>
      <point x="338.043" y="123"/>
      <point x="291.087" y="123" type="curve" smooth="yes" name="dv02"/>
      <point x="239.435" y="123"/>
      <point x="223" y="158.344"/>
      <point x="223" y="241.794" type="curve" smooth="yes"/>
      <point x="223" y="500" type="line"/>
    </contour>
  </outline>
</glyph>
<glyph name="v" format="2">
  <advance width="530"/>
  <unicode hex="0076"/>
  <anchor x="265" y="520" name="top"/>
  <anchor x="265" y="-20" name="bottom"/>
  <outline>
    <contour>
      <point x="173" y="0" type="line"/>
      <point x="357" y="0" type="line"/>
      <point x="539" y="500" type="line"/>
      <point x="337" y="500" type="line"/>
      <point x="265" y="228" type="line"/>
      <point x="193" y="500" type="line"/>
      <point x="-9" y="500" type="line"/>
    </contour>
  </outline>
</glyph>
<glyph name="w" format="2">
  <advance width="854"/>
  <unicode hex="0077"/>
  <anchor x="427" y="520" name="top"/>
  <anchor x="427" y="-20" name="bottom"/>
  <outline>
    <contour>
      <point x="183" y="0" type="line"/>
      <point x="356" y="0" type="line"/>
      <point x="427" y="306" type="line"/>
      <point x="498" y="0" type="line"/>
      <point x="671" y="0" type="line"/>
      <point x="853" y="500" type="line"/>
      <point x="652" y="500" type="line"/>
      <point x="580" y="228" type="line"/>
      <point x="513" y="500" type="line"/>
      <point x="341" y="500" type="line"/>
      <point x="274" y="228" type="line"/>
      <point x="202" y="500" type="line"/>
      <point x="1" y="500" type="line"/>
    </contour>
  </outline>
</glyph>
<glyph name="yen" format="2">
  <advance width="662"/>
  <unicode hex="00A5"/>
  <outline>
    <contour>
      <point x="130" y="87" type="line"/>
      <point x="533" y="87" type="line"/>
      <point x="533" y="182" type="line"/>
      <point x="130" y="182" type="line"/>
    </contour>
    <contour>
      <point x="130" y="218" type="line"/>
      <point x="533" y="218" type="line"/>
      <point x="533" y="313" type="line"/>
      <point x="130" y="313" type="line"/>
    </contour>
    <contour>
      <point x="235" y="0" type="line" name="ab01"/>
      <point x="425" y="0" type="line"/>
      <point x="425" y="279" type="line" name="iv04"/>
      <point x="658" y="700" type="line" name="at01"/>
      <point x="441" y="700" type="line"/>
      <point x="330" y="482" type="line" name="iv05"/>
      <point x="219" y="700" type="line" name="at02"/>
      <point x="2" y="700" type="line"/>
      <point x="235" y="279" type="line" name="iv01"/>
    </contour>
  </outline>
</glyph>
<glyph name="copyright" format="2">
  <advance width="817"/>
  <unicode hex="00A9"/>
  <outline>
    <contour>
      <point x="44" y="357" type="curve" smooth="yes"/>
      <point x="44" y="137"/>
      <point x="233" y="12"/>
      <point x="411" y="12" type="curve" smooth="yes"/>
      <point x="589" y="12"/>
      <point x="773" y="138"/>
      <point x="773" y="357" type="curve" smooth="yes"/>
      <point x="773" y="572"/>
      <point x="596" y="688"/>
      <point x="411" y="688" type="curve" smooth="yes"/>
      <point x="227" y="688"/>
      <point x="44" y="573"/>
    </contour>
    <contour>
      <point x="104" y="358" type="curve" smooth="yes"/>
      <point x="104" y="513"/>
      <point x="231" y="628"/>
      <point x="408" y="628" type="curve" smooth="yes"/>
      <point x="585" y="628"/>
      <point x="713" y="514"/>
      <point x="713" y="354" type="curve" smooth="yes"/>
      <point x="713" y="186"/>
      <point x="573" y="72"/>
      <point x="411" y="72" type="curve" smooth="yes"/>
      <point x="243" y="72"/>
      <point x="104" y="195"/>
    </contour>
    <contour>
      <point x="504.385" y="292.338" type="line"/>
      <point x="478.467" y="266.328"/>
      <point x="453.573" y="254.184"/>
      <point x="419.448" y="254.184" type="curve" smooth="yes" name="dv02"/>
      <point x="363.715" y="254.184"/>
      <point x="337.152" y="286.578"/>
      <point x="337.152" y="353.146" type="curve" smooth="yes"/>
      <point x="337.152" y="415.466"/>
      <point x="360.375" y="447.171"/>
      <point x="419.358" y="447.171" type="curve" smooth="yes" name="sv01"/>
      <point x="458.314" y="447.171"/>
      <point x="483.291" y="433.341"/>
      <point x="502.225" y="409.812" type="curve"/>
      <point x="574.582" y="483.169" type="line"/>
      <point x="535.402" y="522.992"/>
      <point x="484.822" y="547.171"/>
      <point x="410.396" y="547.171" type="curve" smooth="yes" name="at01"/>
      <point x="292.616" y="547.171"/>
      <point x="220.358" y="475.123"/>
      <point x="220.358" y="354.316" type="curve" smooth="yes"/>
      <point x="220.358" y="226.232"/>
      <point x="293.335" y="154.184"/>
      <point x="410.387" y="154.184" type="curve" smooth="yes" name="dv01"/>
      <point x="486.254" y="154.184"/>
      <point x="537.555" y="178.663"/>
      <point x="576.742" y="218.981" type="curve"/>
    </contour>
  </outline>
</glyph>
<glyph name="logicalnot" format="2">
  <advance width="553"/>
  <unicode hex="00AC"/>
  <outline>
    <contour>
      <point x="50" y="292" type="line"/>
      <point x="435" y="292" type="line"/>
      <point x="435" y="93" type="line"/>
      <point x="483" y="93" type="line"/>
      <point x="483" y="322" type="line"/>
      <point x="50" y="322" type="line"/>
    </contour>
  </outline>
</glyph>
<glyph name="onesuperior" format="2">
  <advance width="333"/>
  <unicode hex="00B9"/>
  <outline>
    <contour>
      <point x="159" y="344" type="line"/>
      <point x="291" y="344" type="line"/>
      <point x="291" y="827" type="line"/>
      <point x="181" y="827" type="line"/>
      <point x="146" y="771"/>
      <point x="94" y="728"/>
      <point x="28" y="700" type="curve"/>
      <point x="28" y="590" type="line"/>
      <point x="93" y="610"/>
      <point x="125" y="629"/>
      <point x="159" y="670" type="curve"/>
    </contour>
  </outline>
</glyph>
<glyph name="ordmasculine" format="2">
  <advance width="516"/>
  <unicode hex="00BA"/>
  <outline>
    <contour>
      <point x="258" y="317" type="curve" smooth="yes"/>
      <point x="386" y="317"/>
      <point x="463" y="393"/>
      <point x="463" y="523" type="curve" smooth="yes"/>
      <point x="463" y="631"/>
      <point x="385" y="720"/>
      <point x="258" y="720" type="curve" smooth="yes"/>
      <point x="131" y="720"/>
      <point x="54" y="631"/>
      <point x="54" y="523" type="curve" smooth="yes"/>
      <point x="54" y="393"/>
      <point x="132" y="317"/>
    </contour>
    <contour>
      <point x="258" y="417" type="curve" smooth="yes"/>
      <point x="220" y="417"/>
      <point x="191" y="449"/>
      <point x="191" y="523" type="curve" smooth="yes"/>
      <point x="191" y="589"/>
      <point x="219" y="620"/>
      <point x="258" y="620" type="curve" smooth="yes"/>
      <point x="295" y="620"/>
      <point x="326" y="595"/>
      <point x="326" y="522" type="curve" smooth="yes"/>
      <point x="326" y="450"/>
      <point x="295" y="417"/>
    </contour>
  </outline>
</glyph>
<glyph name="Ccedilla" format="2">
  <advance width="694"/>
  <unicode hex="00C7"/>
  <anchor x="386" y="719" name="top"/>
  <anchor x="396" y="-218" name="bottom"/>
  <outline>
    <contour>
      <point x="561" y="208" type="line"/>
      <point x="505.332" y="147.864"/>
      <point x="456.623" y="124"/>
      <point x="397.973" y="124" type="curve" smooth="yes"/>
      <point x="289.62" y="124"/>
      <point x="226" y="206.719"/>
      <point x="226" y="357.386" type="curve" smooth="yes"/>
      <point x="226" y="499.19"/>
      <point x="282.662" y="576"/>
      <point x="393.003" y="576" type="curve" smooth="yes"/>
      <point x="456.623" y="576"/>
      <point x="507.32" y="550.907"/>
      <point x="561" y="493" type="curve"/>
      <point x="667" y="599" type="line"/>
      <point x="613" y="665"/>
      <point x="517" y="720"/>
      <point x="386" y="720" type="curve" smooth="yes"/>
      <point x="171" y="720"/>
      <point x="33" y="572"/>
      <point x="33" y="361" type="curve" smooth="yes"/>
      <point x="33" y="140"/>
      <point x="183" y="-20"/>
      <point x="399" y="-20" type="curve" smooth="yes"/>
      <point x="514" y="-20"/>
      <point x="598" y="25"/>
      <point x="667" y="102" type="curve"/>
    </contour>
    <contour>
      <point x="264" y="-205" type="line"/>
      <point x="286" y="-211"/>
      <point x="319" y="-218"/>
      <point x="372" y="-218" type="curve" smooth="yes"/>
      <point x="475" y="-218"/>
      <point x="524" y="-191"/>
      <point x="524" y="-134" type="curve" smooth="yes"/>
      <point x="524" y="-87"/>
      <point x="491" y="-64"/>
      <point x="423" y="-64" type="curve"/>
      <point x="470.423" y="20.4105" type="line"/>
      <point x="368.423" y="20.4105" type="line"/>
      <point x="300" y="-109" type="line"/>
      <point x="316" y="-107"/>
      <point x="341" y="-105"/>
      <point x="358" y="-105" type="curve" smooth="yes"/>
      <point x="388" y="-105"/>
      <point x="404" y="-111"/>
      <point x="404" y="-133" type="curve" smooth="yes"/>
      <point x="404" y="-151"/>
      <point x="393" y="-164"/>
      <point x="356" y="-164" type="curve" smooth="yes"/>
      <point x="335" y="-164"/>
      <point x="306" y="-160"/>
      <point x="290" y="-154" type="curve"/>
    </contour>
  </outline>
</glyph>
<glyph name="eth" format="2">
  <advance width="636"/>
  <unicode hex="00F0"/>
  <outline>
    <contour>
      <point x="135" y="600" type="line"/>
      <point x="152.19" y="594.01"/>
      <point x="169.96" y="588.05"/>
      <point x="187.86" y="581.72" type="curve"/>
      <point x="138" y="565" type="line"/>
      <point x="175" y="470" type="line"/>
      <point x="302.55" y="530.41" type="line"/>
      <point x="335.31" y="510.52"/>
      <point x="364.91" y="485.48"/>
      <point x="388" y="452" type="curve"/>
      <point x="363" y="462"/>
      <point x="337" y="471"/>
      <point x="294" y="471" type="curve" smooth="yes"/>
      <point x="149" y="471"/>
      <point x="39" y="367"/>
      <point x="39" y="225" type="curve" smooth="yes"/>
      <point x="39" y="81"/>
      <point x="152" y="-20"/>
      <point x="316" y="-20" type="curve" smooth="yes"/>
      <point x="483" y="-20"/>
      <point x="597" y="86"/>
      <point x="597" y="262" type="curve" smooth="yes"/>
      <point x="597" y="383.71"/>
      <point x="542.36" y="493.44"/>
      <point x="441.14" y="584.58" type="curve"/>
      <point x="516" y="611" type="line"/>
      <point x="479" y="706" type="line"/>
      <point x="359.62" y="647.36" type="line"/>
      <point x="311.14" y="679.5"/>
      <point x="255.79" y="708.51"/>
      <point x="194" y="734" type="curve"/>
    </contour>
    <contour>
      <point x="316" y="114" type="curve" smooth="yes"/>
      <point x="258" y="114"/>
      <point x="229" y="154"/>
      <point x="229" y="222" type="curve" smooth="yes"/>
      <point x="229" y="293"/>
      <point x="261" y="337"/>
      <point x="321" y="337" type="curve" smooth="yes"/>
      <point x="374" y="337"/>
      <point x="407" y="302"/>
      <point x="407" y="228" type="curve" smooth="yes"/>
      <point x="407" y="153"/>
      <point x="374" y="114"/>
    </contour>
  </outline>
</glyph>
<glyph name="oslash" format="2">
  <advance width="616"/>
  <unicode hex="00F8"/>
  <anchor x="420" y="-3" name="ogonek"/>
  <anchor x="308" y="520" name="top"/>
  <anchor x="308" y="-20" name="bottom"/>
  <anchor x="376" y="520" name="topgr"/>
  <outline>
    <contour>
      <point x="308" y="-20" type="curve" smooth="yes" name="dv01"/>
      <point x="482" y="-20"/>
      <point x="577" y="79"/>
      <point x="577" y="255" type="curve" smooth="yes"/>
      <point x="577" y="421"/>
      <point x="481" y="520"/>
      <point x="308" y="520" type="curve" smooth="yes" name="at01"/>
      <point x="145" y="520"/>
      <point x="39" y="421"/>
      <point x="39" y="255" type="curve" smooth="yes"/>
      <point x="39" y="79"/>
      <point x="146" y="-20"/>
    </contour>
    <contour>
      <point x="308" y="120" type="curve" smooth="yes" name="dv02"/>
      <point x="255" y="120"/>
      <point x="229" y="163.643"/>
      <point x="229" y="250.929" type="curve" smooth="yes"/>
      <point x="229" y="337.286"/>
      <point x="254" y="380"/>
      <point x="308" y="380" type="curve" smooth="yes" name="sv01"/>
      <point x="360" y="380"/>
      <point x="387" y="339.143"/>
      <point x="387" y="251.857" type="curve" smooth="yes"/>
      <point x="387" y="163.643"/>
      <point x="360" y="120"/>
    </contour>
    <contour>
      <point x="122.902" y="-76" type="line"/>
      <point x="156.668" y="-76" type="line"/>
      <point x="487.228" y="579.06" type="line"/>
      <point x="453.461" y="579.06" type="line"/>
    </contour>
  </outline>
</glyph>
<glyph name="aogonek" format="2">
  <advance width="645"/>
  <unicode hex="0105"/>
  <anchor x="330" y="520" name="top"/>
  <anchor x="322" y="-20" name="bottom"/>
  <outline>
    <contour>
      <point x="402" y="0" type="line"/>
      <point x="592" y="0" type="line"/>
      <point x="592" y="500" type="line"/>
      <point x="402" y="500" type="line"/>
    </contour>
    <contour>
      <point x="259" y="-20" type="curve" smooth="yes"/>
      <point x="375" y="-20"/>
      <point x="434" y="82"/>
      <point x="434" y="258" type="curve" smooth="yes"/>
      <point x="434" y="432"/>
      <point x="376" y="520"/>
      <point x="255" y="520" type="curve" smooth="yes"/>
      <point x="120" y="520"/>
      <point x="49" y="411"/>
      <point x="49" y="262" type="curve" smooth="yes"/>
      <point x="49" y="99"/>
      <point x="134" y="-20"/>
    </contour>
    <contour>
      <point x="322" y="116" type="curve" smooth="yes"/>
      <point x="271" y="116"/>
      <point x="239" y="167"/>
      <point x="239" y="251" type="curve" smooth="yes"/>
      <point x="239" y="334"/>
      <point x="270" y="383"/>
      <point x="321" y="383" type="curve" smooth="yes"/>
      <point x="372" y="383"/>
      <point x="402" y="335"/>
      <point x="402" y="251" type="curve" smooth="yes"/>
      <point x="402" y="168"/>
      <point x="373" y="116"/>
    </contour>
    <contour>
      <point x="592" y="-183" type="line"/>
      <point x="549.672" y="-169"/>
      <point x="529" y="-138"/>
      <point x="529" y="-104" type="curve" smooth="yes"/>
      <point x="529" y="-67"/>
      <point x="552.619" y="-24"/>
      <point x="591" y="0" type="curve"/>
      <point x="531.709" y="3" type="line"/>
      <point x="435.236" y="-14"/>
      <point x="387" y="-53"/>
      <point x="387" y="-105" type="curve" smooth="yes"/>
      <point x="387" y="-158"/>
      <point x="438.25" y="-196"/>
      <point x="517.637" y="-206" type="curve"/>
    </contour>
  </outline>
</glyph>
<glyph name="eogonek" format="2">
  <advance width="598"/>
  <unicode hex="0119"/>
  <anchor x="299" y="520" name="top"/>
  <anchor x="299" y="-20" name="bottom"/>
  <outline>
    <contour>
      <point x="215" y="329" type="line"/>
      <point x="219" y="367"/>
      <point x="253" y="390"/>
      <point x="303" y="390" type="curve" smooth="yes"/>
      <point x="353" y="390"/>
      <point x="381" y="367"/>
      <point x="385" y="329" type="curve"/>
    </contour>
    <contour>
      <point x="454" y="158" type="line"/>
      <point x="428" y="135.042"/>
      <point x="381" y="120"/>
      <point x="327" y="120" type="curve" smooth="yes"/>
      <point x="256" y="120"/>
      <point x="215" y="149.667"/>
      <point x="215" y="209" type="curve"/>
      <point x="572" y="209" type="line"/>
      <point x="593.474" y="390.707"/>
      <point x="488.467" y="520"/>
      <point x="301" y="520" type="curve" smooth="yes"/>
      <point x="142" y="520"/>
      <point x="28" y="419"/>
      <point x="28" y="251" type="curve" smooth="yes"/>
      <point x="28" y="81"/>
      <point x="145" y="-20"/>
      <point x="317" y="-20" type="curve" smooth="yes"/>
      <point x="417" y="-20"/>
      <point x="486" y="14"/>
      <point x="542" y="70" type="curve"/>
    </contour>
    <contour>
      <point x="437" y="-183" type="line"/>
      <point x="394.672" y="-169"/>
      <point x="374" y="-138"/>
      <point x="374" y="-104" type="curve" smooth="yes"/>
      <point x="374" y="-67"/>
      <point x="397.619" y="-24"/>
      <point x="436" y="0" type="curve"/>
      <point x="376.709" y="3" type="line"/>
      <point x="280.236" y="-14"/>
      <point x="232" y="-53"/>
      <point x="232" y="-105" type="curve" smooth="yes"/>
      <point x="232" y="-158"/>
      <point x="283.25" y="-196"/>
      <point x="362.637" y="-206" type="curve"/>
    </contour>
  </outline>
</glyph>
<glyph name="iogonek" format="2">
  <advance width="272"/>
  <unicode hex="012F"/>
  <anchor x="136" y="-20" name="bottom"/>
  <anchor x="136" y="717" name="top"/>
  <outline>
    <contour>
      <point x="41" y="0" type="line" name="ab01"/>
      <point x="231" y="0" type="line"/>
      <point x="231" y="500" type="line"/>
      <point x="41" y="500" type="line" name="av01"/>
    </contour>
    <contour>
      <point x="41.5" y="636.951" type="curve" smooth="yes"/>
      <point x="41.908" y="595.1"/>
      <point x="74.199" y="544.688"/>
      <point x="137.927" y="544.688" type="curve" smooth="yes" name="dv01"/>
      <point x="199.753" y="544.688"/>
      <point x="232.092" y="591.295"/>
      <point x="231.5" y="637.902" type="curve"/>
      <point x="232.092" y="684.51"/>
      <point x="199.753" y="727.312"/>
      <point x="138.878" y="727.312" type="curve" smooth="yes" name="dv02"/>
      <point x="74.198" y="727.312"/>
      <point x="41.092" y="678.805"/>
    </contour>
    <contour>
      <point x="233" y="-182" type="line"/>
      <point x="190.672" y="-168"/>
      <point x="170" y="-137"/>
      <point x="170" y="-103" type="curve" smooth="yes"/>
      <point x="170" y="-66"/>
      <point x="193.619" y="-23"/>
      <point x="232" y="1" type="curve"/>
      <point x="172.709" y="4" type="line"/>
      <point x="76.236" y="-13"/>
      <point x="28" y="-52"/>
      <point x="28" y="-104" type="curve" smooth="yes"/>
      <point x="28" y="-157"/>
      <point x="79.25" y="-195"/>
      <point x="158.637" y="-205" type="curve"/>
    </contour>
  </outline>
</glyph>
<glyph name="kgreenlandic" format="2">
  <advance width="594"/>
  <unicode hex="0138"/>
  <outline>
    <contour>
      <point x="244" y="0" type="line" name="av01"/>
      <point x="244" y="500" type="line"/>
      <point x="54" y="500" type="line"/>
      <point x="54" y="0" type="line" name="ab01"/>
    </contour>
    <contour>
      <point x="288" y="189" type="line"/>
      <point x="380" y="0" type="line" name="iv02"/>
      <point x="592" y="0" type="line"/>
      <point x="458" y="263" type="line" name="av02"/>
      <point x="579" y="500" type="line"/>
      <point x="390" y="500" type="line"/>
      <point x="315" y="323" type="line" name="ab02"/>
      <point x="122" y="323" type="line" name="iv01"/>
      <point x="124" y="189" type="line"/>
    </contour>
  </outline>
</glyph>
<glyph name="OE" format="2">
  <advance width="968"/>
  <unicode hex="0152"/>
  <anchor x="484" y="719" name="top"/>
  <anchor x="484" y="-20" name="bottom"/>
  <outline>
    <contour>
      <point x="485" y="140" type="line"/>
      <point x="411.285" y="140" type="line" smooth="yes"/>
      <point x="296.727" y="140"/>
      <point x="226" y="224"/>
      <point x="226" y="359" type="curve" smooth="yes"/>
      <point x="226" y="489"/>
      <point x="291.746" y="560"/>
      <point x="411.285" y="560" type="curve" smooth="yes"/>
      <point x="485" y="560" type="line"/>
    </contour>
    <contour>
      <point x="670" y="0" type="line"/>
      <point x="670" y="700" type="line"/>
      <point x="390.557" y="700" type="line" smooth="yes"/>
      <point x="178.226" y="700"/>
      <point x="33" y="558"/>
      <point x="33" y="350" type="curve" smooth="yes"/>
      <point x="33" y="141"/>
      <point x="177.225" y="0"/>
      <point x="390.557" y="0" type="curve" smooth="yes"/>
    </contour>
    <contour>
      <point x="491" y="0" type="line"/>
      <point x="923" y="0" type="line"/>
      <point x="923" y="140" type="line"/>
      <point x="676" y="140" type="line"/>
      <point x="676" y="297" type="line"/>
      <point x="883" y="297" type="line"/>
      <point x="883" y="437" type="line"/>
      <point x="676" y="437" type="line"/>
      <point x="676" y="560" type="line"/>
      <point x="908" y="560" type="line"/>
      <point x="908" y="700" type="line"/>
      <point x="491" y="700" type="line"/>
    </contour>
  </outline>
</glyph>
<glyph name="oe" format="2">
  <advance width="957"/>
  <unicode hex="0153"/>
  <anchor x="479" y="520" name="top"/>
  <anchor x="479" y="-20" name="bottom"/>
  <outline>
    <contour>
      <point x="308" y="-20" type="curve" smooth="yes"/>
      <point x="482" y="-20"/>
      <point x="577" y="79"/>
      <point x="577" y="255" type="curve" smooth="yes"/>
      <point x="577" y="421"/>
      <point x="481" y="520"/>
      <point x="308" y="520" type="curve" smooth="yes"/>
      <point x="145" y="520"/>
      <point x="39" y="421"/>
      <point x="39" y="255" type="curve" smooth="yes"/>
      <point x="39" y="79"/>
      <point x="146" y="-20"/>
    </contour>
    <contour>
      <point x="308" y="120" type="curve" smooth="yes"/>
      <point x="255" y="120"/>
      <point x="229" y="163.643"/>
      <point x="229" y="250.929" type="curve" smooth="yes"/>
      <point x="229" y="337.286"/>
      <point x="254" y="380"/>
      <point x="308" y="380" type="curve" smooth="yes"/>
      <point x="360" y="380"/>
      <point x="387" y="339.143"/>
      <point x="387" y="251.857" type="curve" smooth="yes"/>
      <point x="387" y="163.643"/>
      <point x="360" y="120"/>
    </contour>
    <contour>
      <point x="574" y="329" type="line"/>
      <point x="578" y="367"/>
      <point x="612" y="390"/>
      <point x="662" y="390" type="curve" smooth="yes"/>
      <point x="712" y="390"/>
      <point x="740" y="367"/>
      <point x="744" y="329" type="curve"/>
    </contour>
    <contour>
      <point x="813" y="158" type="line"/>
      <point x="787" y="135.042"/>
      <point x="740" y="120"/>
      <point x="686" y="120" type="curve" smooth="yes"/>
      <point x="615" y="120"/>
      <point x="574" y="149.667"/>
      <point x="574" y="209" type="curve"/>
      <point x="931" y="209" type="line"/>
      <point x="952.474" y="390.707"/>
      <point x="847.467" y="520"/>
      <point x="660" y="520" type="curve" smooth="yes"/>
      <point x="501" y="520"/>
      <point x="387" y="419"/>
      <point x="387" y="251" type="curve" smooth="yes"/>
      <point x="387" y="81"/>
      <point x="504" y="-20"/>
      <point x="676" y="-20" type="curve" smooth="yes"/>
      <point x="776" y="-20"/>
      <point x="845" y="14"/>
      <point x="901" y="70" type="curve"/>
    </contour>
  </outline>
</glyph>
<glyph name="Scedilla" format="2">
  <advance width="600"/>
  <unicode hex="015E"/>
  <anchor x="286" y="719" name="top"/>
  <anchor x="290" y="-218" name="bottom"/>
  <outline>
    <contour>
      <point x="132" y="207" type="curve"/>
      <point x="26" y="101" type="line"/>
      <point x="78" y="37"/>
      <point x="169" y="-20"/>
      <point x="304" y="-20" type="curve" smooth="yes"/>
      <point x="466" y="-20"/>
      <point x="563" y="61.1352"/>
      <point x="563" y="209.382" type="curve" smooth="yes"/>
      <point x="563" y="308.548"/>
      <point x="499.006" y="369.673"/>
      <point x="356" y="407.713" type="curve" smooth="yes"/>
      <point x="258.006" y="433.78"/>
      <point x="230" y="453.79"/>
      <point x="230" y="500.868" type="curve" smooth="yes"/>
      <point x="230" y="546.945"/>
      <point x="257" y="580"/>
      <point x="309" y="580" type="curve" smooth="yes"/>
      <point x="358" y="580"/>
      <point x="405" y="549.651"/>
      <point x="455" y="493" type="curve"/>
      <point x="561" y="599" type="line"/>
      <point x="509" y="663"/>
      <point x="417" y="720"/>
      <point x="291" y="720" type="curve" smooth="yes"/>
      <point x="135" y="720"/>
      <point x="40" y="632.855"/>
      <point x="40" y="492.621" type="curve" smooth="yes"/>
      <point x="40" y="379.432"/>
      <point x="117.746" y="305.222"/>
      <point x="279.281" y="266.244" type="curve" smooth="yes"/>
      <point x="346.06" y="250.13"/>
      <point x="373" y="236.194"/>
      <point x="373" y="193.122" type="curve" smooth="yes"/>
      <point x="373" y="147.045"/>
      <point x="343.124" y="120"/>
      <point x="287.355" y="120" type="curve" smooth="yes"/>
      <point x="228.599" y="120"/>
      <point x="181.793" y="150.349"/>
    </contour>
    <contour>
      <point x="158" y="-205" type="line"/>
      <point x="180" y="-211"/>
      <point x="213" y="-218"/>
      <point x="266" y="-218" type="curve" smooth="yes"/>
      <point x="369" y="-218"/>
      <point x="418" y="-191"/>
      <point x="418" y="-134" type="curve" smooth="yes"/>
      <point x="418" y="-87"/>
      <point x="385" y="-64"/>
      <point x="317" y="-64" type="curve"/>
      <point x="364.423" y="20.4105" type="line"/>
      <point x="262.423" y="20.4105" type="line"/>
      <point x="194" y="-109" type="line"/>
      <point x="210" y="-107"/>
      <point x="235" y="-105"/>
      <point x="252" y="-105" type="curve" smooth="yes"/>
      <point x="282" y="-105"/>
      <point x="298" y="-111"/>
      <point x="298" y="-133" type="curve" smooth="yes"/>
      <point x="298" y="-151"/>
      <point x="287" y="-164"/>
      <point x="250" y="-164" type="curve" smooth="yes"/>
      <point x="229" y="-164"/>
      <point x="200" y="-160"/>
      <point x="184" y="-154" type="curve"/>
    </contour>
  </outline>
</glyph>
<glyph name="Tcedilla" format="2">
  <advance width="648"/>
  <unicode hex="0162"/>
  <anchor x="324" y="719" name="top"/>
  <anchor x="304" y="-218" name="bottom"/>
  <outline>
    <contour>
      <point x="229" y="0" type="line" name="ab01"/>
      <point x="419" y="0" type="line"/>
      <point x="419" y="560" type="line" name="sv02"/>
      <point x="627" y="560" type="line" name="sv03"/>
      <point x="627" y="700" type="line"/>
      <point x="21" y="700" type="line" name="at01"/>
      <point x="21" y="560" type="line" name="sv01"/>
      <point x="229" y="560" type="line"/>
    </contour>
    <contour>
      <point x="172" y="-205" type="line"/>
      <point x="194" y="-211"/>
      <point x="227" y="-218"/>
      <point x="280" y="-218" type="curve" smooth="yes"/>
      <point x="383" y="-218"/>
      <point x="432" y="-191"/>
      <point x="432" y="-134" type="curve" smooth="yes"/>
      <point x="432" y="-87"/>
      <point x="399" y="-64"/>
      <point x="331" y="-64" type="curve"/>
      <point x="378.423" y="20.41" type="line"/>
      <point x="276.423" y="20.41" type="line"/>
      <point x="208" y="-109" type="line"/>
      <point x="224" y="-107"/>
      <point x="249" y="-105"/>
      <point x="266" y="-105" type="curve" smooth="yes"/>
      <point x="296" y="-105"/>
      <point x="312" y="-111"/>
      <point x="312" y="-133" type="curve" smooth="yes"/>
      <point x="312" y="-151"/>
      <point x="301" y="-164"/>
      <point x="264" y="-164" type="curve" smooth="yes"/>
      <point x="243" y="-164"/>
      <point x="214" y="-160"/>
      <point x="198" y="-154" type="curve"/>
    </contour>
  </outline>
</glyph>
<glyph name="tbar" format="2">
  <advance width="365"/>
  <unicode hex="0167"/>
  <outline>
    <contour>
      <point x="11" y="365" type="line"/>
      <point x="355" y="365" type="line"/>
      <point x="355" y="500" type="line"/>
      <point x="11" y="500" type="line"/>
    </contour>
    <contour>
      <point x="337" y="136" type="line"/>
      <point x="317" y="124.312"/>
      <point x="303" y="119"/>
      <point x="294" y="119" type="curve" smooth="yes"/>
      <point x="275" y="119"/>
      <point x="270" y="138.037"/>
      <point x="270" y="206.171" type="curve" smooth="yes"/>
      <point x="270" y="621" type="line"/>
      <point x="80" y="621" type="line"/>
      <point x="80" y="132" type="line" smooth="yes"/>
      <point x="80" y="29"/>
      <point x="134" y="-21"/>
      <point x="256" y="-21" type="curve" smooth="yes"/>
      <point x="294" y="-21"/>
      <point x="316" y="-16"/>
      <point x="374" y="6" type="curve"/>
    </contour>
    <contour>
      <point x="10.32" y="185.6" type="line"/>
      <point x="342.08" y="185.6" type="line"/>
      <point x="342.08" y="314.8" type="line"/>
      <point x="10.32" y="314.8" type="line"/>
    </contour>
  </outline>
</glyph>
<glyph name="Schwa" format="2">
  <advance width="759"/>
  <unicode hex="018F"/>
  <anchor x="380" y="719" name="top"/>
  <anchor x="380" y="-20" name="bottom"/>
  <outline>
    <contour>
      <point x="555" y="280" type="line" name="dv05"/>
      <point x="556" y="417" type="line" name="dv06"/>
      <point x="30" y="417" type="line" name="sh04"/>
      <point x="26" y="402" name=".dv02"/>
      <point x="23" y="376"/>
      <point x="23" y="344" type="curve" smooth="yes" name="sh01"/>
      <point x="23" y="125"/>
      <point x="160" y="-20"/>
      <point x="375" y="-20" type="curve" smooth="yes" name="dv01"/>
      <point x="586" y="-20"/>
      <point x="736" y="119"/>
      <point x="736" y="354" type="curve" smooth="yes" name="sh03"/>
      <point x="736" y="590"/>
      <point x="584" y="720"/>
      <point x="366" y="720" type="curve" smooth="yes"/>
      <point x="225" y="720"/>
      <point x="129" y="665"/>
      <point x="75" y="599" type="curve"/>
      <point x="181" y="493" type="line"/>
      <point x="235" y="553.698" name=".sh02"/>
      <point x="286" y="580"/>
      <point x="355" y="580" type="curve" smooth="yes"/>
      <point x="470" y="580" name=".dv01"/>
      <point x="546" y="508.69"/>
      <point x="546" y="337.948" type="curve" smooth="yes"/>
      <point x="546" y="195.328" name=".sh01"/>
      <point x="493" y="120"/>
      <point x="380" y="120" type="curve" smooth="yes" name="dv02"/>
      <point x="284" y="120" name=".sh03"/>
      <point x="229" y="175" name=".dv03"/>
      <point x="219" y="280" type="curve" name="sh02"/>
    </contour>
  </outline>
</glyph>
<glyph name="schwa" format="2">
  <advance width="613"/>
  <unicode hex="0259"/>
  <anchor x="306" y="520" name="top"/>
  <anchor x="306" y="-20" name="bottom"/>
  <outline>
    <contour>
      <point x="231" y="179" type="line"/>
      <point x="235" y="135.746"/>
      <point x="266" y="110"/>
      <point x="305" y="110" type="curve" smooth="yes"/>
      <point x="345" y="110"/>
      <point x="370" y="139"/>
      <point x="375" y="179" type="curve"/>
    </contour>
    <contour>
      <point x="67" y="430" type="line"/>
      <point x="123" y="486"/>
      <point x="193" y="520"/>
      <point x="295" y="520" type="curve" smooth="yes"/>
      <point x="473" y="520"/>
      <point x="574" y="418"/>
      <point x="574" y="254" type="curve" smooth="yes"/>
      <point x="574" y="90"/>
      <point x="473" y="-20"/>
      <point x="310" y="-20" type="curve" smooth="yes"/>
      <point x="151" y="-20"/>
      <point x="49" y="85"/>
      <point x="49" y="249" type="curve" smooth="yes"/>
      <point x="49" y="272"/>
      <point x="51" y="283"/>
      <point x="53" y="299" type="curve"/>
      <point x="382" y="299" type="line"/>
      <point x="375.833" y="359"/>
      <point x="345" y="390"/>
      <point x="286" y="390" type="curve" smooth="yes"/>
      <point x="240" y="390"/>
      <point x="184.865" y="371"/>
      <point x="155" y="342" type="curve"/>
    </contour>
  </outline>
</glyph>
<glyph name="apostrophemod" format="2">
  <advance width="287"/>
  <unicode hex="02BC"/>
  <outline>
    <contour>
      <point x="55" y="500" type="line"/>
      <point x="166" y="500" type="line"/>
      <point x="242" y="701" type="line"/>
      <point x="96" y="701" type="line"/>
    </contour>
  </outline>
</glyph>
<glyph name="caron" format="2">
  <advance width="346"/>
  <unicode hex="02C7"/>
  <outline>
    <contour>
      <point x="114" y="550" type="line"/>
      <point x="232" y="550" type="line"/>
      <point x="334" y="701" type="line"/>
      <point x="215" y="701" type="line"/>
      <point x="173" y="629" type="line"/>
      <point x="131" y="701" type="line"/>
      <point x="12" y="701" type="line"/>
    </contour>
  </outline>
</glyph>
<glyph name="hungarumlaut" format="2">
  <advance width="389"/>
  <unicode hex="02DD"/>
  <outline>
    <contour>
      <point x="190" y="551" type="line"/>
      <point x="281" y="551" type="line"/>
      <point x="381" y="702" type="line"/>
      <point x="250" y="702" type="line"/>
    </contour>
    <contour>
      <point x="5" y="551" type="line"/>
      <point x="96" y="551" type="line"/>
      <point x="196" y="702" type="line"/>
      <point x="65" y="702" type="line"/>
    </contour>
  </outline>
</glyph>
<glyph name="gravecomb" format="2">
  <advance width="297"/>
  <unicode hex="0300"/>
  <anchor x="148" y="700" name="top"/>
  <anchor x="178" y="500" name="_top"/>
  <outline>
    <contour>
      <point x="124" y="550" type="line"/>
      <point x="235" y="550" type="line"/>
      <point x="164" y="701" type="line"/>
      <point x="18" y="701" type="line"/>
    </contour>
  </outline>
</glyph>
<glyph name="acutecomb" format="2">
  <advance width="287"/>
  <unicode hex="0301"/>
  <anchor x="141" y="700" name="top"/>
  <anchor x="125" y="500" name="_top"/>
  <outline>
    <contour>
      <point x="76" y="550" type="line"/>
      <point x="187" y="550" type="line"/>
      <point x="293" y="701" type="line"/>
      <point x="147" y="701" type="line"/>
    </contour>
  </outline>
</glyph>
<glyph name="dotaccentcomb" format="2">
  <advance width="211"/>
  <unicode hex="0307"/>
  <anchor x="105" y="697" name="top"/>
  <anchor x="105" y="500" name="_top"/>
  <outline>
    <contour>
      <point x="10.5" y="616.951" type="curve" smooth="yes"/>
      <point x="10.908" y="575.1"/>
      <point x="43.199" y="524.688"/>
      <point x="106.927" y="524.688" type="curve" smooth="yes" name="dv01"/>
      <point x="168.753" y="524.688"/>
      <point x="201.092" y="571.295"/>
      <point x="200.5" y="617.902" type="curve"/>
      <point x="201.092" y="664.51"/>
      <point x="168.753" y="707.312"/>
      <point x="107.878" y="707.312" type="curve" smooth="yes" name="dv02"/>
      <point x="43.198" y="707.312"/>
      <point x="10.092" y="658.805"/>
    </contour>
  </outline>
</glyph>
<glyph name="dieresiscomb" format="2">
  <advance width="407"/>
  <unicode hex="0308"/>
  <anchor x="204" y="687" name="top"/>
  <anchor x="204" y="500" name="_top"/>
  <anchor x="204" y="500" name="_topgr"/>
  <outline>
    <contour>
      <point x="10.8329" y="608.771" type="curve" smooth="yes"/>
      <point x="10.8329" y="570.698"/>
      <point x="42.2704" y="523.771"/>
      <point x="102.451" y="523.771" type="curve" smooth="yes"/>
      <point x="160.835" y="523.771"/>
      <point x="191.374" y="567.157"/>
      <point x="191.374" y="608.771" type="curve" smooth="yes"/>
      <point x="191.374" y="653.928"/>
      <point x="160.835" y="693.771"/>
      <point x="102.451" y="693.771" type="curve" smooth="yes"/>
      <point x="42.2704" y="693.771"/>
      <point x="10.8329" y="648.615"/>
    </contour>
    <contour>
      <point x="215.626" y="608.771" type="curve" smooth="yes"/>
      <point x="215.626" y="570.698"/>
      <point x="247.063" y="523.771"/>
      <point x="307.244" y="523.771" type="curve" smooth="yes"/>
      <point x="365.628" y="523.771"/>
      <point x="396.167" y="567.157"/>
      <point x="396.167" y="608.771" type="curve" smooth="yes"/>
      <point x="396.167" y="653.928"/>
      <point x="365.628" y="693.771"/>
      <point x="307.244" y="693.771" type="curve" smooth="yes"/>
      <point x="247.063" y="693.771"/>
      <point x="215.626" y="648.615"/>
    </contour>
  </outline>
</glyph>
<glyph name="caroncomb" format="2">
  <advance width="346"/>
  <unicode hex="030C"/>
  <anchor x="173" y="702" name="top"/>
  <anchor x="173" y="500" name="_top"/>
  <outline>
    <contour>
      <point x="114" y="550" type="line"/>
      <point x="232" y="550" type="line"/>
      <point x="334" y="701" type="line"/>
      <point x="215" y="701" type="line"/>
      <point x="173" y="629" type="line"/>
      <point x="131" y="701" type="line"/>
      <point x="12" y="701" type="line"/>
    </contour>
  </outline>
</glyph>
<glyph name="commaaccentcomb" format="2">
  <advance width="246"/>
  <unicode hex="0326"/>
  <anchor x="123" y="-248" name="bottom"/>
  <anchor x="123" y="0" name="_bottom"/>
  <outline>
    <contour>
      <point x="84" y="-277" type="line"/>
      <point x="150" y="-258.919"/>
      <point x="194" y="-195.637"/>
      <point x="194" y="-132.354" type="curve" smooth="yes"/>
      <point x="194" y="-89.161"/>
      <point x="173" y="-53"/>
      <point x="121" y="-53" type="curve" smooth="yes"/>
      <point x="80" y="-53"/>
      <point x="52" y="-75.185"/>
      <point x="52" y="-113.504" type="curve" smooth="yes"/>
      <point x="52" y="-151.824"/>
      <point x="80" y="-173"/>
      <point x="111" y="-173" type="curve" smooth="yes"/>
      <point x="123" y="-173"/>
      <point x="136" y="-170"/>
      <point x="138" y="-166" type="curve"/>
      <point x="135" y="-199"/>
      <point x="97" y="-227"/>
      <point x="63" y="-244" type="curve"/>
    </contour>
  </outline>
</glyph>
<glyph name="ogonekcomb" format="2">
  <advance width="209"/>
  <unicode hex="0328"/>
  <anchor x="206" y="0" name="_ogonek"/>
  <outline>
    <contour>
      <point x="207" y="-180" type="line"/>
      <point x="164.672" y="-166"/>
      <point x="144" y="-135"/>
      <point x="144" y="-101" type="curve" smooth="yes"/>
      <point x="144" y="-64"/>
      <point x="167.619" y="-21"/>
      <point x="206" y="3" type="curve"/>
      <point x="146.709" y="6" type="line"/>
      <point x="50.236" y="-11"/>
      <point x="2" y="-50"/>
      <point x="2" y="-102" type="curve" smooth="yes"/>
      <point x="2" y="-155"/>
      <point x="53.25" y="-193"/>
      <point x="132.637" y="-203" type="curve"/>
    </contour>
  </outline>
</glyph>
<glyph name="dieresistonos" format="2">
  <advance width="333"/>
  <unicode hex="0385"/>
  <anchor x="166" y="688" name="topgr"/>
  <anchor x="166" y="500" name="_topgr"/>
  <outline>
    <contour>
      <point x="106" y="538" type="line"/>
      <point x="186" y="538" type="line"/>
      <point x="240" y="708" type="line"/>
      <point x="140" y="708" type="line"/>
    </contour>
    <contour>
      <point x="294.41" y="550.507" type="curve" smooth="yes" name="dv01"/>
      <point x="335.641" y="550.507"/>
      <point x="358.318" y="581.43"/>
      <point x="358.318" y="616.476" type="curve" smooth="yes"/>
      <point x="358.318" y="651.522"/>
      <point x="335.641" y="681.414"/>
      <point x="294.41" y="681.414" type="curve" smooth="yes" name="dv02"/>
      <point x="251.118" y="681.414"/>
      <point x="228.441" y="646.368"/>
      <point x="228.441" y="616.476" type="curve" smooth="yes"/>
      <point x="228.441" y="586.584"/>
      <point x="251.118" y="550.507"/>
    </contour>
    <contour>
      <point x="41.651" y="550.507" type="curve" smooth="yes" name="dv01"/>
      <point x="82.882" y="550.507"/>
      <point x="105.559" y="581.43"/>
      <point x="105.559" y="616.476" type="curve" smooth="yes"/>
      <point x="105.559" y="651.522"/>
      <point x="82.882" y="681.414"/>
      <point x="41.651" y="681.414" type="curve" smooth="yes" name="dv02"/>
      <point x="-1.641" y="681.414"/>
      <point x="-24.318" y="646.368"/>
      <point x="-24.318" y="616.476" type="curve" smooth="yes"/>
      <point x="-24.318" y="586.584"/>
      <point x="-1.641" y="550.507"/>
    </contour>
  </outline>
</glyph>
<glyph name="delta" format="2">
  <advance width="578"/>
  <unicode hex="03B4"/>
  <anchor x="289" y="721" name="topgr"/>
  <outline>
    <contour>
      <point x="290" y="-20" type="curve" smooth="yes"/>
      <point x="451" y="-20"/>
      <point x="558" y="75"/>
      <point x="558" y="226" type="curve" smooth="yes"/>
      <point x="558" y="376"/>
      <point x="452" y="467"/>
      <point x="291" y="467" type="curve" smooth="yes"/>
      <point x="123" y="467"/>
      <point x="20" y="369"/>
      <point x="20" y="226" type="curve" smooth="yes"/>
      <point x="20" y="82"/>
      <point x="124" y="-20"/>
    </contour>
    <contour>
      <point x="292" y="114" type="curve" smooth="yes"/>
      <point x="237" y="114"/>
      <point x="210" y="154"/>
      <point x="210" y="226" type="curve" smooth="yes"/>
      <point x="210" y="297"/>
      <point x="236" y="333"/>
      <point x="290" y="333" type="curve" smooth="yes"/>
      <point x="343" y="333"/>
      <point x="368" y="297"/>
      <point x="368" y="223" type="curve" smooth="yes"/>
      <point x="368" y="149"/>
      <point x="343" y="114"/>
    </contour>
    <contour>
      <point x="420" y="443" type="line"/>
      <point x="319" y="480"/>
      <point x="272" y="516"/>
      <point x="272" y="552" type="curve" smooth="yes"/>
      <point x="272" y="574"/>
      <point x="289" y="590"/>
      <point x="323" y="590" type="curve" smooth="yes"/>
      <point x="360" y="590"/>
      <point x="404" y="571"/>
      <point x="430" y="552" type="curve"/>
      <point x="518" y="640" type="line"/>
      <point x="463" y="686"/>
      <point x="394" y="720"/>
      <point x="296" y="720" type="curve" smooth="yes"/>
      <point x="164" y="720"/>
      <point x="82" y="658"/>
      <point x="82" y="576" type="curve" smooth="yes"/>
      <point x="82" y="501"/>
      <point x="149" y="449"/>
      <point x="271" y="438" type="curve"/>
    </contour>
  </outline>
</glyph>
<glyph name="zeta" format="2">
  <advance width="560"/>
  <unicode hex="03B6"/>
  <anchor x="280" y="721" name="topgr"/>
  <outline>
    <contour>
      <point x="300" y="-200" type="line"/>
      <point x="324" y="-165"/>
      <point x="344" y="-142"/>
      <point x="344" y="-99" type="curve" smooth="yes"/>
      <point x="344" y="-45"/>
      <point x="314.686" y="-20"/>
      <point x="250.823" y="-20" type="curve" smooth="yes"/>
      <point x="126.238" y="-20"/>
      <point x="54" y="79"/>
      <point x="54" y="212" type="curve" smooth="yes"/>
      <point x="54" y="349"/>
      <point x="126" y="463"/>
      <point x="286" y="570" type="curve"/>
      <point x="39" y="570" type="line"/>
      <point x="39" y="700" type="line"/>
      <point x="502" y="700" type="line"/>
      <point x="502" y="580" type="line"/>
      <point x="358" y="492"/>
      <point x="244" y="346"/>
      <point x="244" y="206" type="curve" smooth="yes"/>
      <point x="244" y="146"/>
      <point x="264" y="111"/>
      <point x="343" y="111" type="curve" smooth="yes"/>
      <point x="445" y="111"/>
      <point x="521" y="39"/>
      <point x="521" y="-62" type="curve" smooth="yes"/>
      <point x="521" y="-127"/>
      <point x="492.667" y="-176"/>
      <point x="471.889" y="-200" type="curve"/>
    </contour>
  </outline>
</glyph>
<glyph name="theta" format="2">
  <advance width="644"/>
  <unicode hex="03B8"/>
  <anchor x="322" y="721" name="topgr"/>
  <outline>
    <contour>
      <point x="324" y="-20" type="curve" smooth="yes"/>
      <point x="503" y="-20"/>
      <point x="605" y="114"/>
      <point x="605" y="348" type="curve" smooth="yes"/>
      <point x="605" y="581"/>
      <point x="500" y="720"/>
      <point x="324" y="720" type="curve" smooth="yes"/>
      <point x="146" y="720"/>
      <point x="39" y="580"/>
      <point x="39" y="348" type="curve" smooth="yes"/>
      <point x="39" y="115"/>
      <point x="143" y="-20"/>
    </contour>
    <contour>
      <point x="324" y="120" type="curve" smooth="yes"/>
      <point x="261" y="120"/>
      <point x="229" y="196.667"/>
      <point x="229" y="347.089" type="curve" smooth="yes"/>
      <point x="229" y="504.304"/>
      <point x="259" y="580"/>
      <point x="324" y="580" type="curve" smooth="yes"/>
      <point x="387" y="580"/>
      <point x="415" y="508.186"/>
      <point x="415" y="347.089" type="curve" smooth="yes"/>
      <point x="415" y="189.873"/>
      <point x="387" y="120"/>
    </contour>
    <contour>
      <point x="191" y="289" type="line"/>
      <point x="454" y="289" type="line"/>
      <point x="454" y="412" type="line"/>
      <point x="191" y="412" type="line"/>
    </contour>
  </outline>
</glyph>
<glyph name="sigmafinal" format="2">
  <advance width="590"/>
  <unicode hex="03C2"/>
  <anchor x="295" y="520" name="topgr"/>
  <outline>
    <contour>
      <point x="330" y="-200" type="line"/>
      <point x="354" y="-165"/>
      <point x="374" y="-142"/>
      <point x="374" y="-99" type="curve" smooth="yes"/>
      <point x="374" y="-49"/>
      <point x="345.943" y="-20"/>
      <point x="273.202" y="-20" type="curve" smooth="yes"/>
      <point x="132.916" y="-20"/>
      <point x="29" y="89"/>
      <point x="29" y="258" type="curve" smooth="yes"/>
      <point x="29" y="425"/>
      <point x="127" y="520"/>
      <point x="306" y="520" type="curve" smooth="yes"/>
      <point x="405" y="520"/>
      <point x="481" y="491"/>
      <point x="531" y="430" type="curve"/>
      <point x="443" y="342" type="line"/>
      <point x="420" y="375"/>
      <point x="376" y="390"/>
      <point x="336" y="390" type="curve" smooth="yes"/>
      <point x="267" y="390"/>
      <point x="219" y="356.846"/>
      <point x="219" y="252.473" type="curve" smooth="yes"/>
      <point x="219" y="165.161"/>
      <point x="252" y="110"/>
      <point x="353" y="110" type="curve" smooth="yes"/>
      <point x="484" y="110"/>
      <point x="551" y="33.2476"/>
      <point x="551" y="-62.4437" type="curve" smooth="yes"/>
      <point x="551" y="-127.235"/>
      <point x="522.667" y="-176.077"/>
      <point x="501.889" y="-200" type="curve"/>
    </contour>
  </outline>
</glyph>
<glyph name="phi" format="2">
  <advance width="750"/>
  <unicode hex="03C6"/>
  <anchor x="375" y="520" name="topgr"/>
  <outline>
    <contour>
      <point x="285" y="-200" type="line"/>
      <point x="462" y="-200" type="line"/>
      <point x="462" y="-19" type="line"/>
      <point x="616" y="-7"/>
      <point x="711" y="90"/>
      <point x="711" y="250" type="curve" smooth="yes"/>
      <point x="711" y="416"/>
      <point x="612.389" y="520"/>
      <point x="455.597" y="520" type="curve" smooth="yes"/>
      <point x="344.167" y="520"/>
      <point x="285" y="460"/>
      <point x="285" y="346" type="curve" smooth="yes"/>
      <point x="285" y="114" type="line"/>
      <point x="245.4" y="131"/>
      <point x="219" y="181"/>
      <point x="219" y="256" type="curve" smooth="yes"/>
      <point x="219" y="304"/>
      <point x="228.258" y="351"/>
      <point x="260" y="391" type="curve"/>
      <point x="151" y="500" type="line"/>
      <point x="82" y="452"/>
      <point x="39" y="369"/>
      <point x="39" y="251" type="curve" smooth="yes"/>
      <point x="39" y="87"/>
      <point x="136" y="-10"/>
      <point x="285" y="-19" type="curve"/>
    </contour>
    <contour>
      <point x="462" y="111" type="curve"/>
      <point x="462" y="391" type="line"/>
      <point x="464.41" y="390.326"/>
      <point x="466.767" y="389.536"/>
      <point x="469.069" y="388.63" type="curve" smooth="yes"/>
      <point x="507.769" y="373.409"/>
      <point x="531" y="325.676"/>
      <point x="531" y="253" type="curve" smooth="yes"/>
      <point x="531" y="174"/>
      <point x="503.731" y="125"/>
    </contour>
  </outline>
</glyph>
<glyph name="chi" format="2">
  <advance width="646"/>
  <unicode hex="03C7"/>
  <anchor x="323" y="520" name="topgr"/>
  <outline>
    <contour>
      <point x="29" y="386" type="line"/>
      <point x="137.512" y="386"/>
      <point x="188.174" y="325.826"/>
      <point x="237.72" y="138.091" type="curve" smooth="yes"/>
      <point x="305.299" y="-117.972"/>
      <point x="415.999" y="-219"/>
      <point x="629" y="-219" type="curve"/>
      <point x="629" y="-85" type="line"/>
      <point x="523.656" y="-85"/>
      <point x="475.818" y="-27.571"/>
      <point x="425.346" y="159.484" type="curve" smooth="yes"/>
      <point x="357.313" y="411.624"/>
      <point x="238.166" y="520"/>
      <point x="29" y="520" type="curve"/>
    </contour>
    <contour>
      <point x="11" y="-200" type="line" name="ab01"/>
      <point x="220" y="-200" type="line"/>
      <point x="634" y="500" type="line" name="at01"/>
      <point x="425" y="500" type="line"/>
    </contour>
  </outline>
</glyph>
<glyph name="psi" format="2">
  <advance width="774"/>
  <unicode hex="03C8"/>
  <anchor x="387" y="656" name="topgr"/>
  <outline>
    <contour>
      <point x="53" y="500" type="line"/>
      <point x="53" y="206" type="line" smooth="yes"/>
      <point x="53" y="70"/>
      <point x="197" y="-20"/>
      <point x="389" y="-20" type="curve" smooth="yes"/>
      <point x="579" y="-20"/>
      <point x="722" y="70"/>
      <point x="722" y="206" type="curve" smooth="yes"/>
      <point x="722" y="500" type="line"/>
      <point x="536" y="500" type="line"/>
      <point x="536" y="244" type="line" smooth="yes"/>
      <point x="536" y="168"/>
      <point x="492.837" y="118"/>
      <point x="389.042" y="118" type="curve" smooth="yes"/>
      <point x="290.384" y="118"/>
      <point x="239" y="161"/>
      <point x="239" y="244" type="curve" smooth="yes"/>
      <point x="239" y="500" type="line"/>
    </contour>
    <contour>
      <point x="299" y="-200" type="line"/>
      <point x="477" y="-200" type="line"/>
      <point x="477" y="656" type="line"/>
      <point x="299" y="656" type="line"/>
    </contour>
  </outline>
</glyph>
<glyph name="Njecyr" format="2">
  <advance width="990"/>
  <unicode hex="040A"/>
  <outline>
    <contour>
      <point x="69" y="0" type="line"/>
      <point x="259" y="0" type="line"/>
      <point x="259" y="315" type="line"/>
      <point x="447" y="315" type="line"/>
      <point x="447" y="0" type="line"/>
      <point x="637" y="0" type="line"/>
      <point x="637" y="700" type="line"/>
      <point x="447" y="700" type="line"/>
      <point x="447" y="455" type="line"/>
      <point x="259" y="455" type="line"/>
      <point x="259" y="700" type="line"/>
      <point x="69" y="700" type="line"/>
    </contour>
    <contour>
      <point x="505" y="0" type="line"/>
      <point x="701" y="0" type="line" smooth="yes"/>
      <point x="890" y="0"/>
      <point x="951" y="93.1838"/>
      <point x="951" y="219.957" type="curve" smooth="yes"/>
      <point x="951" y="345.647"/>
      <point x="890" y="454"/>
      <point x="701" y="454" type="curve" smooth="yes"/>
      <point x="525" y="454" type="line"/>
      <point x="540" y="314" type="line"/>
      <point x="652" y="314" type="line" smooth="yes"/>
      <point x="734" y="314"/>
      <point x="761" y="291.468"/>
      <point x="761" y="225.122" type="curve" smooth="yes"/>
      <point x="761" y="160.029"/>
      <point x="735" y="140"/>
      <point x="652" y="140" type="curve" smooth="yes"/>
      <point x="627" y="140" type="line"/>
    </contour>
  </outline>
</glyph>
<glyph name="Dzhecyr" format="2">
  <advance width="683"/>
  <unicode hex="040F"/>
  <outline>
    <contour>
      <point x="68" y="0" type="line"/>
      <point x="270" y="0" type="line"/>
      <point x="282" y="-38"/>
      <point x="283" y="-119"/>
      <point x="272" y="-158" type="curve"/>
      <point x="417" y="-158" type="line"/>
      <point x="430" y="-105"/>
      <point x="429" y="-52"/>
      <point x="413" y="0" type="curve"/>
      <point x="615" y="0" type="line"/>
      <point x="615" y="700" type="line"/>
      <point x="424" y="700" type="line"/>
      <point x="424" y="141" type="line"/>
      <point x="259" y="141" type="line"/>
      <point x="259" y="700" type="line"/>
      <point x="68" y="700" type="line"/>
    </contour>
  </outline>
</glyph>
<glyph name="Becyr" format="2">
  <advance width="633"/>
  <unicode hex="0411"/>
  <outline>
    <contour>
      <point x="118" y="559" type="line"/>
      <point x="545" y="559" type="line"/>
      <point x="545" y="700" type="line"/>
      <point x="85" y="700" type="line"/>
      <point x="85" y="694" type="line"/>
    </contour>
    <contour>
      <point x="68" y="0" type="line"/>
      <point x="343" y="0" type="line" smooth="yes"/>
      <point x="504" y="0"/>
      <point x="594" y="93"/>
      <point x="594" y="224" type="curve" smooth="yes"/>
      <point x="594" y="354"/>
      <point x="504" y="449"/>
      <point x="343" y="449" type="curve" smooth="yes"/>
      <point x="259" y="449" type="line"/>
      <point x="259" y="700" type="line"/>
      <point x="68" y="700" type="line"/>
    </contour>
    <contour>
      <point x="259" y="140" type="line"/>
      <point x="259" y="308" type="line"/>
      <point x="284" y="308" type="line" smooth="yes"/>
      <point x="356" y="308"/>
      <point x="403" y="298"/>
      <point x="403" y="232" type="curve" smooth="yes"/>
      <point x="403" y="165"/>
      <point x="356" y="140"/>
      <point x="284" y="140" type="curve" smooth="yes"/>
    </contour>
  </outline>
</glyph>
<glyph name="Decyr" format="2">
  <advance width="864"/>
  <unicode hex="0414"/>
  <outline>
    <contour>
      <point x="165" y="-140" type="line"/>
      <point x="165" y="-47"/>
      <point x="162" y="0"/>
      <point x="221" y="0" type="curve" smooth="yes"/>
      <point x="634" y="0" type="line" smooth="yes"/>
      <point x="705" y="0"/>
      <point x="697" y="-42"/>
      <point x="697" y="-140" type="curve"/>
      <point x="843" y="-140" type="line"/>
      <point x="843" y="117"/>
      <point x="811" y="139"/>
      <point x="711" y="139" type="curve"/>
      <point x="711" y="700" type="line"/>
      <point x="232" y="700" type="line"/>
      <point x="232" y="670" type="line" smooth="yes"/>
      <point x="232" y="299"/>
      <point x="219" y="201"/>
      <point x="151" y="141" type="curve"/>
      <point x="66" y="141"/>
      <point x="19" y="117"/>
      <point x="19" y="-140" type="curve"/>
    </contour>
    <contour>
      <point x="332" y="140" type="line"/>
      <point x="397.95" y="208.59"/>
      <point x="418.28" y="290.33"/>
      <point x="422.22" y="559.99" type="curve"/>
      <point x="520" y="560" type="line"/>
      <point x="520" y="140" type="line"/>
    </contour>
  </outline>
</glyph>
<glyph name="Kacyr" format="2">
  <advance width="640"/>
  <unicode hex="041A"/>
  <anchor x="320" y="719" name="top"/>
  <anchor x="320" y="-20" name="bottom"/>
  <outline>
    <contour>
      <point x="48" y="0" type="line"/>
      <point x="238" y="0" type="line"/>
      <point x="238" y="700" type="line"/>
      <point x="48" y="700" type="line"/>
    </contour>
    <contour>
      <point x="197" y="305" type="line"/>
      <point x="407" y="305" type="line" smooth="yes"/>
      <point x="501" y="305"/>
      <point x="564" y="360"/>
      <point x="577" y="473" type="curve"/>
      <point x="598" y="700" type="line"/>
      <point x="416" y="700" type="line"/>
      <point x="402" y="549" type="line" smooth="yes"/>
      <point x="394" y="469"/>
      <point x="374" y="445"/>
      <point x="313" y="445" type="curve" smooth="yes"/>
      <point x="197" y="445" type="line"/>
    </contour>
    <contour>
      <point x="445" y="0" type="line"/>
      <point x="639" y="0" type="line"/>
      <point x="513" y="346" type="line"/>
      <point x="325" y="329" type="line"/>
    </contour>
  </outline>
</glyph>
<glyph name="Checyr" format="2">
  <advance width="674"/>
  <unicode hex="0427"/>
  <anchor x="337" y="719" name="top"/>
  <outline>
    <contour>
      <point x="415" y="0" type="line"/>
      <point x="606" y="0" type="line"/>
      <point x="606" y="700" type="line"/>
      <point x="415" y="700" type="line"/>
    </contour>
    <contour>
      <point x="416" y="474" type="line"/>
      <point x="416" y="378"/>
      <point x="382" y="322"/>
      <point x="322" y="322" type="curve" smooth="yes"/>
      <point x="275" y="322"/>
      <point x="251" y="356"/>
      <point x="251" y="464" type="curve" smooth="yes"/>
      <point x="251" y="700" type="line"/>
      <point x="60" y="700" type="line"/>
      <point x="60" y="414" type="line" smooth="yes"/>
      <point x="60" y="266"/>
      <point x="139" y="183"/>
      <point x="265" y="183" type="curve" smooth="yes"/>
      <point x="380" y="183"/>
      <point x="445" y="251"/>
      <point x="459" y="348" type="curve"/>
    </contour>
  </outline>
</glyph>
<glyph name="Softcyr" format="2">
  <advance width="613"/>
  <unicode hex="042C"/>
  <outline>
    <contour>
      <point x="58" y="0" type="line"/>
      <point x="333" y="0" type="line" smooth="yes"/>
      <point x="494" y="0"/>
      <point x="584" y="97.143"/>
      <point x="584" y="233.978" type="curve" smooth="yes"/>
      <point x="584" y="369.768"/>
      <point x="494" y="469"/>
      <point x="333" y="469" type="curve" smooth="yes"/>
      <point x="249" y="469" type="line"/>
      <point x="249" y="700" type="line"/>
      <point x="58" y="700" type="line"/>
    </contour>
    <contour>
      <point x="249" y="140" type="line"/>
      <point x="249" y="328" type="line"/>
      <point x="274" y="328" type="line" smooth="yes"/>
      <point x="346" y="328"/>
      <point x="393" y="311.81"/>
      <point x="393" y="237.952" type="curve" smooth="yes"/>
      <point x="393" y="162.976"/>
      <point x="346" y="140"/>
      <point x="274" y="140" type="curve" smooth="yes"/>
    </contour>
  </outline>
</glyph>
<glyph name="becyr" format="2">
  <advance width="582"/>
  <unicode hex="0431"/>
  <outline>
    <contour>
      <point x="508" y="749" type="line"/>
      <point x="458.717" y="714"/>
      <point x="400.698" y="698.36"/>
      <point x="327.295" y="690" type="curve" smooth="yes"/>
      <point x="93.401" y="663.36"/>
      <point x="20" y="560"/>
      <point x="20" y="340" type="curve" smooth="yes"/>
      <point x="20" y="92"/>
      <point x="114.05" y="-20"/>
      <point x="297.302" y="-20" type="curve" smooth="yes"/>
      <point x="465.041" y="-20"/>
      <point x="562" y="74"/>
      <point x="562" y="235" type="curve" smooth="yes"/>
      <point x="562" y="392"/>
      <point x="471.037" y="480"/>
      <point x="331.243" y="480" type="curve" smooth="yes"/>
      <point x="237.408" y="480"/>
      <point x="179" y="440"/>
      <point x="154" y="393" type="curve"/>
      <point x="156" y="504"/>
      <point x="198.923" y="542.039"/>
      <point x="331.523" y="556" type="curve" smooth="yes"/>
      <point x="417.373" y="565.039"/>
      <point x="472.705" y="585"/>
      <point x="508" y="615" type="curve"/>
    </contour>
    <contour>
      <point x="294.354" y="114" type="curve" smooth="yes"/>
      <point x="242.891" y="114"/>
      <point x="214" y="151"/>
      <point x="214" y="232" type="curve" smooth="yes"/>
      <point x="214" y="311"/>
      <point x="241.086" y="346"/>
      <point x="292.549" y="346" type="curve" smooth="yes"/>
      <point x="344.011" y="346"/>
      <point x="372" y="311"/>
      <point x="372" y="230" type="curve" smooth="yes"/>
      <point x="372" y="151"/>
      <point x="345.817" y="114"/>
    </contour>
  </outline>
</glyph>
<glyph name="zhecyr" format="2">
  <advance width="800"/>
  <unicode hex="0436"/>
  <anchor x="398" y="-20" name="bottom"/>
  <anchor x="400" y="520" name="top"/>
  <outline>
    <contour>
      <point x="50" y="500" type="line" name="av02"/>
      <point x="67" y="336" type="line"/>
      <point x="73.2" y="290.25"/>
      <point x="86.77" y="252.47"/>
      <point x="111.8" y="228.26" type="curve"/>
      <point x="12" y="0" type="line"/>
      <point x="197" y="0" type="line" name="ab02"/>
      <point x="283.37" y="199" type="line"/>
      <point x="305" y="199" type="line" name="dv01"/>
      <point x="305" y="0" type="line" name="ab01"/>
      <point x="495" y="0" type="line"/>
      <point x="495" y="199" type="line" name="dv01"/>
      <point x="516.63" y="199" type="line"/>
      <point x="603" y="0" type="line" name="ab02"/>
      <point x="788" y="0" type="line"/>
      <point x="688.2" y="228.26" type="line"/>
      <point x="713.23" y="252.47"/>
      <point x="726.79" y="290.25"/>
      <point x="733" y="336" type="curve"/>
      <point x="750" y="500" type="line" name="av02"/>
      <point x="577" y="500" type="line"/>
      <point x="566" y="393" type="line" smooth="yes"/>
      <point x="560" y="341"/>
      <point x="537" y="333"/>
      <point x="502" y="333" type="curve" smooth="yes"/>
      <point x="495" y="333" type="line" name="dv02"/>
      <point x="495" y="500" type="line"/>
      <point x="305" y="500" type="line" name="av01"/>
      <point x="305" y="333" type="line" name="dv02"/>
      <point x="298" y="333" type="line" smooth="yes"/>
      <point x="263" y="333"/>
      <point x="240" y="341"/>
      <point x="234" y="393" type="curve" smooth="yes"/>
      <point x="223" y="500" type="line"/>
    </contour>
  </outline>
</glyph>
<glyph name="zecyr" format="2">
  <advance width="515"/>
  <unicode hex="0437"/>
  <anchor x="250" y="520" name="top"/>
  <anchor x="280" y="-20" name="bottom"/>
  <outline>
    <contour>
      <point x="115" y="170" type="line"/>
      <point x="147" y="127"/>
      <point x="179" y="110"/>
      <point x="221" y="110" type="curve" smooth="yes"/>
      <point x="260" y="110"/>
      <point x="285" y="124"/>
      <point x="285" y="160" type="curve" smooth="yes"/>
      <point x="285" y="213"/>
      <point x="230" y="209"/>
      <point x="179" y="202" type="curve"/>
      <point x="179" y="322" type="line"/>
      <point x="224" y="323"/>
      <point x="258" y="334"/>
      <point x="258" y="362" type="curve" smooth="yes"/>
      <point x="258" y="379"/>
      <point x="245" y="390"/>
      <point x="215" y="390" type="curve" smooth="yes"/>
      <point x="179" y="390"/>
      <point x="147" y="374"/>
      <point x="118" y="337" type="curve"/>
      <point x="25" y="430" type="line"/>
      <point x="75" y="491"/>
      <point x="150" y="520"/>
      <point x="248" y="520" type="curve" smooth="yes"/>
      <point x="394" y="520"/>
      <point x="446" y="456"/>
      <point x="446" y="385.125" type="curve" smooth="yes"/>
      <point x="446" y="315.848"/>
      <point x="396.32" y="275"/>
      <point x="311" y="275" type="curve"/>
      <point x="412.274" y="275"/>
      <point x="473" y="228.518"/>
      <point x="473" y="151" type="curve" smooth="yes"/>
      <point x="473" y="57"/>
      <point x="388" y="-20"/>
      <point x="240" y="-20" type="curve" smooth="yes"/>
      <point x="147" y="-20"/>
      <point x="71" y="10"/>
      <point x="22" y="77" type="curve"/>
    </contour>
  </outline>
</glyph>
<glyph name="icyr" format="2">
  <advance width="629"/>
  <unicode hex="0438"/>
  <anchor x="315" y="520" name="top"/>
  <anchor x="315" y="-20" name="bottom"/>
  <outline>
    <contour>
      <point x="53" y="0" type="line"/>
      <point x="223" y="0" type="line"/>
      <point x="387" y="210" type="line"/>
      <point x="387" y="0" type="line"/>
      <point x="577" y="0" type="line"/>
      <point x="577" y="500" type="line"/>
      <point x="407" y="500" type="line"/>
      <point x="243" y="290" type="line"/>
      <point x="243" y="500" type="line"/>
      <point x="53" y="500" type="line"/>
    </contour>
  </outline>
</glyph>
<glyph name="elcyr" format="2">
  <advance width="600"/>
  <unicode hex="043B"/>
  <outline>
    <contour>
      <point x="-4" y="-8" type="line"/>
      <point x="23" y="-15"/>
      <point x="57" y="-20"/>
      <point x="98" y="-20" type="curve" smooth="yes"/>
      <point x="254" y="-20"/>
      <point x="291" y="64"/>
      <point x="291" y="368" type="curve"/>
      <point x="357" y="368" type="line"/>
      <point x="357" y="0" type="line"/>
      <point x="547" y="0" type="line"/>
      <point x="547" y="500" type="line"/>
      <point x="102" y="500" type="line"/>
      <point x="102" y="203"/>
      <point x="94" y="114"/>
      <point x="49" y="114" type="curve" smooth="yes"/>
      <point x="36" y="114"/>
      <point x="29" y="117"/>
      <point x="23" y="119" type="curve"/>
    </contour>
  </outline>
</glyph>
<glyph name="pecyr" format="2">
  <advance width="618"/>
  <unicode hex="043F"/>
  <anchor x="309" y="-20" name="bottom"/>
  <anchor x="309" y="520" name="top"/>
  <outline>
    <contour>
      <point x="53" y="0" type="line"/>
      <point x="243" y="0" type="line"/>
      <point x="243" y="360" type="line"/>
      <point x="376" y="360" type="line"/>
      <point x="376" y="0" type="line"/>
      <point x="566" y="0" type="line"/>
      <point x="566" y="500" type="line"/>
      <point x="53" y="500" type="line"/>
    </contour>
  </outline>
</glyph>
<glyph name="tecyr" format="2">
  <advance width="525"/>
  <unicode hex="0442"/>
  <anchor x="262" y="-20" name="bottom"/>
  <anchor x="263" y="520" name="top"/>
  <outline>
    <contour>
      <point x="168" y="0" type="line"/>
      <point x="358" y="0" type="line"/>
      <point x="358" y="370" type="line"/>
      <point x="509" y="370" type="line"/>
      <point x="509" y="500" type="line"/>
      <point x="17" y="500" type="line"/>
      <point x="17" y="370" type="line"/>
      <point x="168" y="370" type="line"/>
    </contour>
  </outline>
</glyph>
<glyph name="tsecyr" format="2">
  <advance width="676"/>
  <unicode hex="0446"/>
  <outline>
    <contour>
      <point x="43" y="0" type="line"/>
      <point x="478" y="0" type="line" smooth="yes"/>
      <point x="545" y="0"/>
      <point x="531" y="-102"/>
      <point x="531" y="-140" type="curve"/>
      <point x="669" y="-140" type="line"/>
      <point x="669" y="74"/>
      <point x="648" y="140"/>
      <point x="548" y="140" type="curve"/>
      <point x="548" y="500" type="line"/>
      <point x="358" y="500" type="line"/>
      <point x="358" y="140" type="line"/>
      <point x="233" y="140" type="line"/>
      <point x="233" y="500" type="line"/>
      <point x="43" y="500" type="line"/>
    </contour>
  </outline>
</glyph>
<glyph name="checyr" format="2">
  <advance width="575"/>
  <unicode hex="0447"/>
  <anchor x="288" y="-20" name="bottom"/>
  <anchor x="288" y="520" name="top"/>
  <outline>
    <contour>
      <point x="343" y="0" type="line" name="ab01"/>
      <point x="533" y="0" type="line" name="sh01"/>
      <point x="533" y="500" type="line" name="av01"/>
      <point x="343" y="500" type="line"/>
      <point x="343" y="365" type="line" smooth="yes"/>
      <point x="343" y="300"/>
      <point x="309.1" y="274"/>
      <point x="278.282" y="274" type="curve" smooth="yes"/>
      <point x="244.967" y="274"/>
      <point x="230" y="294.45"/>
      <point x="230" y="340" type="curve" smooth="yes"/>
      <point x="230" y="500" type="line"/>
      <point x="40" y="500" type="line"/>
      <point x="40" y="340" type="line" smooth="yes"/>
      <point x="40" y="212.04"/>
      <point x="109.589" y="141"/>
      <point x="219.588" y="141" type="curve" smooth="yes"/>
      <point x="269.159" y="141"/>
      <point x="312.801" y="155.44"/>
      <point x="343" y="185.61" type="curve"/>
    </contour>
  </outline>
</glyph>
<glyph name="shchacyr" format="2">
  <advance width="944"/>
  <unicode hex="0449"/>
  <outline>
    <contour>
      <point x="43" y="0" type="line"/>
      <point x="745" y="0" type="line" smooth="yes"/>
      <point x="813" y="0"/>
      <point x="798" y="-102"/>
      <point x="798" y="-140" type="curve"/>
      <point x="937" y="-140" type="line"/>
      <point x="937" y="74"/>
      <point x="916" y="141"/>
      <point x="817" y="141" type="curve"/>
      <point x="817" y="500" type="line"/>
      <point x="627" y="500" type="line"/>
      <point x="627" y="140" type="line"/>
      <point x="525" y="140" type="line"/>
      <point x="525" y="500" type="line"/>
      <point x="335" y="500" type="line"/>
      <point x="335" y="140" type="line"/>
      <point x="233" y="140" type="line"/>
      <point x="233" y="500" type="line"/>
      <point x="43" y="500" type="line"/>
    </contour>
  </outline>
</glyph>
<glyph name="hardcyr" format="2">
  <advance width="600"/>
  <unicode hex="044A"/>
  <outline>
    <contour>
      <point x="21" y="368" type="line"/>
      <point x="179" y="368" type="line"/>
      <point x="212" y="497" type="line"/>
      <point x="212" y="500" type="line"/>
      <point x="21" y="500" type="line"/>
    </contour>
    <contour>
      <point x="117" y="0" type="line"/>
      <point x="362" y="0" type="line" smooth="yes"/>
      <point x="480" y="0"/>
      <point x="558" y="71.5909"/>
      <point x="558" y="179.972" type="curve" smooth="yes"/>
      <point x="558" y="283.381"/>
      <point x="481" y="350"/>
      <point x="360" y="350" type="curve" smooth="yes"/>
      <point x="168" y="350" type="line"/>
      <point x="168" y="220" type="line"/>
      <point x="308.299" y="220" type="line" smooth="yes"/>
      <point x="340.139" y="220"/>
      <point x="368" y="213.864"/>
      <point x="368" y="176.023" type="curve" smooth="yes"/>
      <point x="368" y="137.159"/>
      <point x="346.355" y="130"/>
      <point x="309.952" y="130" type="curve" smooth="yes"/>
      <point x="307" y="130" type="line"/>
      <point x="307" y="500" type="line"/>
      <point x="117" y="500" type="line"/>
    </contour>
  </outline>
</glyph>
<glyph name="softcyr" format="2">
  <advance width="536"/>
  <unicode hex="044C"/>
  <anchor x="268" y="-20" name="bottom"/>
  <anchor x="268" y="520" name="top"/>
  <outline>
    <contour>
      <point x="53" y="0" type="line"/>
      <point x="298" y="0" type="line" smooth="yes"/>
      <point x="416" y="0"/>
      <point x="494" y="71.5909"/>
      <point x="494" y="179.972" type="curve" smooth="yes"/>
      <point x="494" y="283.381"/>
      <point x="417" y="350"/>
      <point x="296" y="350" type="curve" smooth="yes"/>
      <point x="104" y="350" type="line"/>
      <point x="104" y="220" type="line"/>
      <point x="244.299" y="220" type="line" smooth="yes"/>
      <point x="276.139" y="220"/>
      <point x="304" y="213.864"/>
      <point x="304" y="176.023" type="curve" smooth="yes"/>
      <point x="304" y="137.159"/>
      <point x="282.355" y="130"/>
      <point x="245.952" y="130" type="curve" smooth="yes"/>
      <point x="243" y="130" type="line"/>
      <point x="243" y="500" type="line"/>
      <point x="53" y="500" type="line"/>
    </contour>
  </outline>
</glyph>
<glyph name="ereversedcyr" format="2">
  <advance width="563"/>
  <unicode hex="044D"/>
  <anchor x="301" y="-20" name="bottom"/>
  <anchor x="281" y="520" name="top"/>
  <outline>
    <contour>
      <point x="150" y="194" type="line"/>
      <point x="150" y="308" type="line"/>
      <point x="424" y="308" type="line"/>
      <point x="424" y="194" type="line"/>
    </contour>
    <contour>
      <point x="117" y="158" type="line"/>
      <point x="143" y="135.042"/>
      <point x="198" y="120"/>
      <point x="241" y="120" type="curve" smooth="yes"/>
      <point x="307" y="120"/>
      <point x="334" y="163.643"/>
      <point x="334" y="250.929" type="curve" smooth="yes"/>
      <point x="334" y="337.286"/>
      <point x="311" y="380"/>
      <point x="236" y="380" type="curve" smooth="yes"/>
      <point x="192" y="380"/>
      <point x="146" y="364.958"/>
      <point x="120" y="342" type="curve"/>
      <point x="32" y="430" type="line"/>
      <point x="88" y="486"/>
      <point x="158" y="520"/>
      <point x="261" y="520" type="curve" smooth="yes"/>
      <point x="424" y="520"/>
      <point x="524" y="421"/>
      <point x="524" y="255" type="curve" smooth="yes"/>
      <point x="524" y="79"/>
      <point x="423" y="-20"/>
      <point x="261" y="-20" type="curve" smooth="yes"/>
      <point x="156" y="-20"/>
      <point x="85" y="14"/>
      <point x="29" y="70" type="curve"/>
    </contour>
  </outline>
</glyph>
<glyph name="yacyr" format="2">
  <advance width="540"/>
  <unicode hex="044F"/>
  <anchor x="270" y="-20" name="bottom"/>
  <anchor x="270" y="520" name="top"/>
  <outline>
    <contour>
      <point x="16" y="0" type="line"/>
      <point x="206" y="0" type="line"/>
      <point x="288" y="157" type="line"/>
      <point x="308" y="157" type="line"/>
      <point x="308" y="0" type="line"/>
      <point x="498" y="0" type="line"/>
      <point x="498" y="500" type="line"/>
      <point x="240" y="500" type="line" smooth="yes"/>
      <point x="95" y="500"/>
      <point x="25" y="442"/>
      <point x="25" y="343" type="curve" smooth="yes"/>
      <point x="25" y="271"/>
      <point x="62" y="222"/>
      <point x="116" y="191" type="curve"/>
    </contour>
    <contour>
      <point x="308" y="283" type="line"/>
      <point x="258.762" y="283" type="line" smooth="yes"/>
      <point x="220.928" y="283"/>
      <point x="207" y="296.823"/>
      <point x="207" y="329.076" type="curve" smooth="yes"/>
      <point x="207" y="360.177"/>
      <point x="220.928" y="374"/>
      <point x="258.762" y="374" type="curve" smooth="yes"/>
      <point x="308" y="374" type="line"/>
    </contour>
  </outline>
</glyph>
<glyph name="Geupcyr" format="2">
  <advance width="557"/>
  <unicode hex="0490"/>
  <outline>
    <contour>
      <point x="68" y="0" type="line"/>
      <point x="258" y="0" type="line"/>
      <point x="258" y="560" type="line"/>
      <point x="343" y="560" type="line" smooth="yes"/>
      <point x="513" y="560"/>
      <point x="547" y="613"/>
      <point x="547" y="814" type="curve"/>
      <point x="402" y="814" type="line"/>
      <point x="402" y="720"/>
      <point x="385" y="700"/>
      <point x="350" y="700" type="curve" smooth="yes"/>
      <point x="68" y="700" type="line"/>
    </contour>
  </outline>
</glyph>
<glyph name="Germandbls" format="2">
  <advance width="715"/>
  <unicode hex="1E9E"/>
  <outline>
    <contour>
      <point x="46" y="0" type="line"/>
      <point x="236" y="0" type="line"/>
      <point x="236" y="452.597" type="line" smooth="yes"/>
      <point x="236" y="542.758"/>
      <point x="268.079" y="576"/>
      <point x="365.212" y="576" type="curve" smooth="yes"/>
      <point x="409.232" y="576"/>
      <point x="423.59" y="571.254"/>
      <point x="449.934" y="559.772" type="curve"/>
      <point x="421.302" y="584.775" type="line"/>
      <point x="380.067" y="531.837" type="line" smooth="yes"/>
      <point x="351.166" y="494.733"/>
      <point x="339" y="445.68"/>
      <point x="339" y="402.315" type="curve" smooth="yes"/>
      <point x="339" y="233.21"/>
      <point x="514" y="241.023"/>
      <point x="514" y="161.629" type="curve" smooth="yes"/>
      <point x="514" y="136.864"/>
      <point x="496" y="120"/>
      <point x="463" y="120" type="curve" smooth="yes"/>
      <point x="433" y="120"/>
      <point x="404" y="134"/>
      <point x="373" y="174" type="curve"/>
      <point x="272.144" y="73.144" type="line"/>
      <point x="317.04" y="9.828"/>
      <point x="382.643" y="-20"/>
      <point x="477" y="-20" type="curve" smooth="yes"/>
      <point x="642" y="-20"/>
      <point x="698" y="84"/>
      <point x="698" y="171" type="curve" smooth="yes"/>
      <point x="698" y="347"/>
      <point x="529" y="334"/>
      <point x="529" y="422" type="curve" smooth="yes"/>
      <point x="529" y="455"/>
      <point x="544.919" y="483.609"/>
      <point x="560" y="505" type="curve" smooth="yes"/>
      <point x="666.853" y="656.554" type="line"/>
      <point x="661.642" y="635.659" type="line"/>
      <point x="595.176" y="679.179"/>
      <point x="532.38" y="720"/>
      <point x="349" y="720" type="curve" smooth="yes"/>
      <point x="154.373" y="720"/>
      <point x="46" y="637.379"/>
      <point x="46" y="489" type="curve" smooth="yes"/>
    </contour>
  </outline>
</glyph>
<glyph name="bullet" format="2">
  <advance width="471"/>
  <unicode hex="2022"/>
  <outline>
    <contour>
      <point x="234" y="157" type="curve" smooth="yes"/>
      <point x="324" y="157"/>
      <point x="396" y="228"/>
      <point x="396" y="318" type="curve" smooth="yes"/>
      <point x="396" y="408"/>
      <point x="324" y="480"/>
      <point x="234" y="480" type="curve" smooth="yes"/>
      <point x="145" y="480"/>
      <point x="73" y="408"/>
      <point x="73" y="318" type="curve" smooth="yes"/>
      <point x="73" y="228"/>
      <point x="145" y="157"/>
    </contour>
  </outline>
</glyph>
<glyph name="zero.superior" format="2">
  <advance width="436"/>
  <unicode hex="2070"/>
  <outline>
    <contour>
      <point x="220" y="339" type="curve" smooth="yes"/>
      <point x="343" y="339"/>
      <point x="416" y="427"/>
      <point x="416" y="586" type="curve" smooth="yes"/>
      <point x="416" y="743"/>
      <point x="344" y="832"/>
      <point x="223" y="832" type="curve" smooth="yes"/>
      <point x="97" y="832"/>
      <point x="20" y="737"/>
      <point x="20" y="582" type="curve" smooth="yes"/>
      <point x="20" y="429"/>
      <point x="95" y="339"/>
    </contour>
    <contour>
      <point x="220" y="434" type="curve" smooth="yes"/>
      <point x="170" y="434"/>
      <point x="152" y="479"/>
      <point x="152" y="578" type="curve" smooth="yes"/>
      <point x="152" y="697"/>
      <point x="178" y="737"/>
      <point x="221" y="737" type="curve" smooth="yes"/>
      <point x="264" y="737"/>
      <point x="284" y="697"/>
      <point x="284" y="578" type="curve" smooth="yes"/>
      <point x="284" y="478"/>
      <point x="270" y="434"/>
    </contour>
  </outline>
</glyph>
<glyph name="four.superior" format="2">
  <advance width="460"/>
  <unicode hex="2074"/>
  <outline>
    <contour>
      <point x="5" y="449" type="line"/>
      <point x="236" y="449" type="line"/>
      <point x="236" y="344" type="line"/>
      <point x="368" y="344" type="line"/>
      <point x="368" y="449" type="line"/>
      <point x="455" y="449" type="line"/>
      <point x="455" y="543" type="line"/>
      <point x="368" y="543" type="line"/>
      <point x="368" y="830" type="line"/>
      <point x="213" y="830" type="line"/>
      <point x="5" y="497" type="line"/>
    </contour>
    <contour>
      <point x="144" y="543" type="line"/>
      <point x="236" y="690" type="line"/>
      <point x="236" y="543" type="line"/>
    </contour>
  </outline>
</glyph>
<glyph name="seven.superior" format="2">
  <advance width="417"/>
  <unicode hex="2077"/>
  <outline>
    <contour>
      <point x="183" y="344" type="line"/>
      <point x="405" y="820" type="line"/>
      <point x="405" y="828" type="line"/>
      <point x="31" y="828" type="line"/>
      <point x="31" y="733" type="line"/>
      <point x="228" y="733" type="line"/>
      <point x="47" y="344" type="line"/>
    </contour>
  </outline>
</glyph>
<glyph name="austral" format="2">
  <advance width="718"/>
  <unicode hex="20B3"/>
  <outline>
    <contour>
      <point x="13" y="133" type="line"/>
      <point x="705" y="133" type="line"/>
      <point x="705" y="216" type="line"/>
      <point x="13" y="216" type="line"/>
    </contour>
    <contour>
      <point x="13" y="252" type="line"/>
      <point x="705" y="252" type="line"/>
      <point x="705" y="335" type="line"/>
      <point x="13" y="335" type="line"/>
    </contour>
    <contour>
      <point x="400.5" y="700" type="line"/>
      <point x="255.5" y="700" type="line"/>
      <point x="28.5" y="0" type="line"/>
      <point x="217.5" y="0" type="line"/>
    </contour>
    <contour>
      <point x="462.5" y="700" type="line"/>
      <point x="317.5" y="700" type="line"/>
      <point x="500.5" y="0" type="line"/>
      <point x="689.5" y="0" type="line"/>
    </contour>
  </outline>
</glyph>
<glyph name="hryvnia" format="2">
  <advance width="734"/>
  <unicode hex="20B4"/>
  <outline>
    <contour>
      <point x="21" y="236" type="line"/>
      <point x="112.66" y="236" type="line"/>
      <point x="111.55" y="227.44"/>
      <point x="111" y="218.57"/>
      <point x="111" y="209.38" type="curve" smooth="yes"/>
      <point x="111" y="61.13"/>
      <point x="208" y="-20"/>
      <point x="370" y="-20" type="curve" smooth="yes"/>
      <point x="505" y="-20"/>
      <point x="596" y="37"/>
      <point x="648" y="101" type="curve"/>
      <point x="542" y="207" type="line"/>
      <point x="492.2" y="150.34"/>
      <point x="445.4" y="120"/>
      <point x="386.64" y="120" type="curve" smooth="yes"/>
      <point x="330.87" y="120"/>
      <point x="301" y="147.04"/>
      <point x="301" y="193.12" type="curve" smooth="yes"/>
      <point x="301" y="212.24"/>
      <point x="306.3" y="225.62"/>
      <point x="318.05" y="236" type="curve"/>
      <point x="713" y="236" type="line"/>
      <point x="713" y="312" type="line"/>
      <point x="21" y="312" type="line"/>
    </contour>
    <contour>
      <point x="21" y="374" type="line"/>
      <point x="713" y="374" type="line"/>
      <point x="713" y="450" type="line"/>
      <point x="629.95" y="450" type="line"/>
      <point x="632.65" y="463.53"/>
      <point x="634" y="477.74"/>
      <point x="634" y="492.62" type="curve" smooth="yes"/>
      <point x="634" y="632.85"/>
      <point x="539" y="720"/>
      <point x="383" y="720" type="curve" smooth="yes"/>
      <point x="257" y="720"/>
      <point x="165" y="663"/>
      <point x="113" y="599" type="curve"/>
      <point x="219" y="493" type="line"/>
      <point x="269" y="549.65"/>
      <point x="316" y="580"/>
      <point x="365" y="580" type="curve" smooth="yes"/>
      <point x="417" y="580"/>
      <point x="444" y="546.94"/>
      <point x="444" y="500.86" type="curve" smooth="yes"/>
      <point x="444" y="479.28"/>
      <point x="438.11" y="463.39"/>
      <point x="422.3" y="450" type="curve"/>
      <point x="21" y="450" type="line"/>
    </contour>
  </outline>
</glyph>
<glyph name="turkishlira" format="2">
  <advance width="640"/>
  <unicode hex="20BA"/>
  <outline>
    <contour>
      <point x="21" y="384" type="line"/>
      <point x="443" y="511" type="line"/>
      <point x="443" y="594" type="line"/>
      <point x="21" y="466" type="line"/>
    </contour>
    <contour>
      <point x="21" y="247" type="line"/>
      <point x="443" y="374" type="line"/>
      <point x="443" y="457" type="line"/>
      <point x="21" y="329" type="line"/>
    </contour>
    <contour>
      <point x="124" y="0" type="line"/>
      <point x="303" y="0" type="line" smooth="yes"/>
      <point x="521" y="0"/>
      <point x="606" y="78"/>
      <point x="606" y="283" type="curve"/>
      <point x="419" y="240" type="line"/>
      <point x="419" y="175"/>
      <point x="392" y="140"/>
      <point x="330" y="140" type="curve" smooth="yes"/>
      <point x="314" y="140" type="line"/>
      <point x="314" y="700" type="line"/>
      <point x="124" y="700" type="line"/>
    </contour>
  </outline>
</glyph>
<glyph name="manat" format="2">
  <advance width="801"/>
  <unicode hex="20BC"/>
  <outline>
    <contour>
      <point x="275" y="0" type="line"/>
      <point x="241" y="57"/>
      <point x="223" y="127"/>
      <point x="223" y="194" type="curve" smooth="yes"/>
      <point x="223" y="354"/>
      <point x="294.022" y="462"/>
      <point x="401.444" y="462" type="curve" smooth="yes"/>
      <point x="509.753" y="462"/>
      <point x="579" y="356"/>
      <point x="579" y="197" type="curve" smooth="yes"/>
      <point x="579" y="129"/>
      <point x="561" y="58"/>
      <point x="526" y="0" type="curve"/>
      <point x="716" y="0" type="line"/>
      <point x="750" y="75"/>
      <point x="768" y="154"/>
      <point x="768" y="230" type="curve" smooth="yes"/>
      <point x="768" y="450"/>
      <point x="618.173" y="602"/>
      <point x="402.385" y="602" type="curve" smooth="yes"/>
      <point x="182.827" y="602"/>
      <point x="33" y="444"/>
      <point x="33" y="214" type="curve" smooth="yes"/>
      <point x="33" y="143"/>
      <point x="49" y="69"/>
      <point x="80" y="0" type="curve"/>
    </contour>
    <contour>
      <point x="330" y="110" type="line"/>
      <point x="472" y="165" type="line"/>
      <point x="472" y="758" type="line"/>
      <point x="330" y="703" type="line"/>
    </contour>
  </outline>
</glyph>
<glyph name="estimated" format="2">
  <advance width="850"/>
  <unicode hex="212E"/>
  <outline>
    <contour>
      <point x="174" y="363" type="line"/>
      <point x="794" y="363" type="line"/>
      <point x="794" y="585"/>
      <point x="643" y="732"/>
      <point x="425" y="732" type="curve" smooth="yes"/>
      <point x="207" y="732"/>
      <point x="57" y="585"/>
      <point x="57" y="363" type="curve" smooth="yes"/>
      <point x="57" y="141"/>
      <point x="205" y="-6"/>
      <point x="425" y="-6" type="curve" smooth="yes"/>
      <point x="512" y="-6"/>
      <point x="588" y="17"/>
      <point x="648" y="59" type="curve"/>
      <point x="636" y="125" type="line"/>
      <point x="580" y="87"/>
      <point x="505" y="64"/>
      <point x="422" y="64" type="curve" smooth="yes"/>
      <point x="303" y="64"/>
      <point x="235" y="111"/>
      <point x="174" y="193" type="curve"/>
    </contour>
    <contour>
      <point x="175" y="433" type="line"/>
      <point x="175" y="540" type="line"/>
      <point x="237" y="618"/>
      <point x="308" y="662"/>
      <point x="424" y="662" type="curve" smooth="yes"/>
      <point x="545" y="662"/>
      <point x="620" y="614"/>
      <point x="681" y="532" type="curve"/>
      <point x="681" y="433" type="line"/>
    </contour>
  </outline>
</glyph>
<glyph name="C.ss10" format="2">
  <advance width="735"/>
  <anchor x="407" y="-19" name="bottom"/>
  <anchor x="387" y="719" name="top"/>
  <outline>
    <contour>
      <point x="657" y="286" type="line"/>
      <point x="585" y="165.273"/>
      <point x="505" y="120"/>
      <point x="418" y="120" type="curve" smooth="yes"/>
      <point x="293.2" y="120"/>
      <point x="223" y="214.41"/>
      <point x="223" y="356.026" type="curve" smooth="yes"/>
      <point x="223" y="490.611"/>
      <point x="285" y="580"/>
      <point x="409" y="580" type="curve" smooth="yes"/>
      <point x="498" y="580"/>
      <point x="576" y="534.727"/>
      <point x="648" y="414" type="curve"/>
      <point x="693" y="578" type="line"/>
      <point x="628" y="664"/>
      <point x="524" y="720"/>
      <point x="394" y="720" type="curve" smooth="yes"/>
      <point x="181" y="720"/>
      <point x="33" y="570"/>
      <point x="33" y="357" type="curve" smooth="yes"/>
      <point x="33" y="130.8"/>
      <point x="181" y="-20"/>
      <point x="403" y="-20" type="curve" smooth="yes"/>
      <point x="531" y="-20"/>
      <point x="637" y="36"/>
      <point x="702" y="122" type="curve"/>
    </contour>
  </outline>
</glyph>
<glyph name="Djecyr.ss12" format="2">
  <advance width="783"/>
  <outline>
    <contour>
      <point x="161" y="0" type="line"/>
      <point x="352" y="0" type="line"/>
      <point x="352" y="180" type="line" smooth="yes"/>
      <point x="352" y="256"/>
      <point x="398" y="331"/>
      <point x="467" y="331" type="curve" smooth="yes"/>
      <point x="539" y="331"/>
      <point x="553" y="248"/>
      <point x="553" y="173" type="curve" smooth="yes"/>
      <point x="553" y="49"/>
      <point x="515" y="-14"/>
      <point x="428" y="-14" type="curve"/>
      <point x="428" y="-154" type="line"/>
      <point x="648" y="-154"/>
      <point x="744" y="-35"/>
      <point x="744" y="175" type="curve" smooth="yes"/>
      <point x="744" y="360"/>
      <point x="661" y="466"/>
      <point x="521" y="466" type="curve" smooth="yes"/>
      <point x="436" y="466"/>
      <point x="383" y="424"/>
      <point x="351" y="380" type="curve"/>
      <point x="351" y="560" type="line"/>
      <point x="564" y="560" type="line"/>
      <point x="564" y="700" type="line"/>
      <point x="21" y="700" type="line"/>
      <point x="21" y="560" type="line"/>
      <point x="161" y="560" type="line"/>
    </contour>
  </outline>
</glyph>
<glyph name="Efcyr.loclBGR" format="2">
  <advance width="836"/>
  <outline>
    <contour>
      <point x="323" y="-80" type="line"/>
      <point x="513" y="-80" type="line"/>
      <point x="513" y="0" type="line"/>
      <point x="687" y="0"/>
      <point x="803" y="140.962"/>
      <point x="803" y="352.406" type="curve" smooth="yes"/>
      <point x="803" y="560.962"/>
      <point x="687" y="700"/>
      <point x="513" y="700" type="curve"/>
      <point x="513" y="780" type="line"/>
      <point x="323" y="780" type="line"/>
      <point x="323" y="700" type="line"/>
      <point x="149" y="700"/>
      <point x="33" y="560.962"/>
      <point x="33" y="352.406" type="curve" smooth="yes"/>
      <point x="33" y="140.962"/>
      <point x="149" y="0"/>
      <point x="323" y="0" type="curve"/>
    </contour>
    <contour>
      <point x="513" y="560" type="line"/>
      <point x="572.4" y="560"/>
      <point x="612" y="476.625"/>
      <point x="612" y="351.563" type="curve" smooth="yes"/>
      <point x="612" y="224.625"/>
      <point x="572.4" y="140"/>
      <point x="513" y="140" type="curve"/>
    </contour>
    <contour>
      <point x="323" y="140" type="line"/>
      <point x="270" y="140"/>
      <point x="224" y="220.834"/>
      <point x="224" y="354.344" type="curve" smooth="yes"/>
      <point x="224" y="482.291"/>
      <point x="267" y="560"/>
      <point x="323" y="560" type="curve"/>
    </contour>
  </outline>
</glyph>
<glyph name="Euro.ss09" format="2">
  <advance width="730"/>
  <outline>
    <contour>
      <point x="-8" y="374" type="line"/>
      <point x="463" y="374" type="line"/>
      <point x="495" y="444" type="line"/>
      <point x="266" y="444" type="line"/>
      <point x="280.597" y="411.685" type="line"/>
      <point x="279.218" y="527.33"/>
      <point x="329.349" y="579"/>
      <point x="399" y="579" type="curve" smooth="yes"/>
      <point x="455" y="579"/>
      <point x="495" y="546"/>
      <point x="516" y="485" type="curve"/>
      <point x="697" y="485" type="line"/>
      <point x="657" y="620"/>
      <point x="560" y="720"/>
      <point x="400" y="720" type="curve" smooth="yes"/>
      <point x="223.515" y="720"/>
      <point x="94.963" y="596.439"/>
      <point x="88" y="417.477" type="curve"/>
      <point x="104" y="444" type="line"/>
      <point x="24" y="444" type="line"/>
    </contour>
    <contour>
      <point x="-8" y="270" type="line"/>
      <point x="88" y="270" type="line"/>
      <point x="102" y="100"/>
      <point x="230" y="-20"/>
      <point x="397" y="-20" type="curve" smooth="yes"/>
      <point x="569" y="-20"/>
      <point x="668" y="106"/>
      <point x="697" y="261" type="curve"/>
      <point x="516" y="261" type="line"/>
      <point x="509" y="170"/>
      <point x="459" y="122"/>
      <point x="398" y="122" type="curve" smooth="yes"/>
      <point x="334" y="122"/>
      <point x="286" y="161"/>
      <point x="280" y="270" type="curve"/>
      <point x="455" y="270" type="line"/>
      <point x="487" y="340" type="line"/>
      <point x="24" y="340" type="line"/>
    </contour>
  </outline>
</glyph>
<glyph name="Euro.ss10" format="2">
  <advance width="714"/>
  <outline>
    <contour>
      <point x="3" y="364" type="line"/>
      <point x="526" y="364" type="line"/>
      <point x="538" y="444" type="line"/>
      <point x="263" y="444" type="line"/>
      <point x="286" y="528"/>
      <point x="342" y="579"/>
      <point x="427" y="579" type="curve" smooth="yes"/>
      <point x="506" y="579"/>
      <point x="563" y="534"/>
      <point x="627" y="414" type="curve"/>
      <point x="672" y="578" type="line"/>
      <point x="612" y="664"/>
      <point x="516" y="720"/>
      <point x="396" y="720" type="curve" smooth="yes"/>
      <point x="227" y="720"/>
      <point x="102" y="610"/>
      <point x="70" y="444" type="curve"/>
      <point x="15" y="444" type="line"/>
    </contour>
    <contour>
      <point x="3" y="260" type="line"/>
      <point x="72" y="260" type="line"/>
      <point x="108" y="94"/>
      <point x="234" y="-20"/>
      <point x="404" y="-20" type="curve" smooth="yes"/>
      <point x="523" y="-20"/>
      <point x="621" y="36"/>
      <point x="681" y="122" type="curve"/>
      <point x="636" y="286" type="line"/>
      <point x="572" y="166"/>
      <point x="513" y="121"/>
      <point x="435" y="121" type="curve" smooth="yes"/>
      <point x="349" y="121"/>
      <point x="290" y="175"/>
      <point x="265" y="260" type="curve"/>
      <point x="506" y="260" type="line"/>
      <point x="518" y="340" type="line"/>
      <point x="15" y="340" type="line"/>
    </contour>
  </outline>
</glyph>
<glyph name="G.ss03" format="2">
  <advance width="753"/>
  <anchor x="388" y="-19" name="bottom"/>
  <anchor x="377" y="719" name="top"/>
  <outline>
    <contour>
      <point x="532" y="260" type="line" name="sv02"/>
      <point x="532" y="185.468" name=".sv01"/>
      <point x="482" y="120"/>
      <point x="399" y="120" type="curve" smooth="yes" name="dv04"/>
      <point x="286" y="120"/>
      <point x="214" y="209.389"/>
      <point x="214" y="348.996" type="curve" smooth="yes" name="dv07"/>
      <point x="214" y="496.638"/>
      <point x="281" y="580"/>
      <point x="399" y="580" type="curve" smooth="yes"/>
      <point x="498" y="580"/>
      <point x="564" y="534.727"/>
      <point x="638" y="414" type="curve"/>
      <point x="683" y="578" type="line"/>
      <point x="616" y="664"/>
      <point x="510" y="720"/>
      <point x="377" y="720" type="curve" smooth="yes"/>
      <point x="169" y="720"/>
      <point x="23" y="558"/>
      <point x="23" y="348" type="curve" smooth="yes" name="dv08"/>
      <point x="23" y="135"/>
      <point x="176" y="-20"/>
      <point x="386" y="-20" type="curve" smooth="yes" name="dv03"/>
      <point x="590" y="-20"/>
      <point x="730" y="118.662"/>
      <point x="730" y="320.17" type="curve" smooth="yes" name="sv03"/>
      <point x="730" y="390" type="line" name="sv01"/>
      <point x="371" y="390" type="line" name="dv06"/>
      <point x="371" y="260" type="line" name="dv05"/>
    </contour>
  </outline>
</glyph>
<glyph name="G.ss09" format="2">
  <advance width="780"/>
  <anchor x="380" y="-19" name="bottom"/>
  <anchor x="380" y="719" name="top"/>
  <outline>
    <contour>
      <point x="320" y="251" type="line" name="dv05"/>
      <point x="574" y="251" type="line" name="dv07"/>
      <point x="614" y="248" type="line"/>
      <point x="676" y="0" type="line" name="dv15"/>
      <point x="737" y="0" type="line" name="dv14"/>
      <point x="737" y="381" type="line" name="iv02"/>
      <point x="320" y="381" type="line" name="dv06"/>
    </contour>
    <contour>
      <point x="542" y="328" type="line" name="iv01"/>
      <point x="542" y="220.483"/>
      <point x="494" y="120"/>
      <point x="383" y="120" type="curve" smooth="yes" name="dv02"/>
      <point x="287" y="120"/>
      <point x="214" y="196.332"/>
      <point x="214" y="354.017" type="curve" smooth="yes" name="dv12"/>
      <point x="214" y="497.642"/>
      <point x="275" y="580"/>
      <point x="391" y="580" type="curve" smooth="yes" name="dv03"/>
      <point x="463" y="580"/>
      <point x="509" y="548"/>
      <point x="526" y="485" type="curve"/>
      <point x="717" y="485" type="line"/>
      <point x="687" y="623"/>
      <point x="556" y="720"/>
      <point x="389" y="720" type="curve" smooth="yes" name="dv04"/>
      <point x="176" y="720"/>
      <point x="23" y="563"/>
      <point x="23" y="350" type="curve" smooth="yes" name="dv11"/>
      <point x="23" y="128"/>
      <point x="157" y="-20"/>
      <point x="358" y="-20" type="curve" smooth="yes" name="dv01"/>
      <point x="501" y="-20"/>
      <point x="608" y="75"/>
      <point x="641" y="236" type="curve" name="dv10"/>
    </contour>
  </outline>
</glyph>
<glyph name="G.ss10" format="2">
  <advance width="770"/>
  <anchor x="394" y="-19" name="bottom"/>
  <anchor x="394" y="719" name="top"/>
  <outline>
    <contour>
      <point x="363" y="241" type="line"/>
      <point x="617" y="241" type="line"/>
      <point x="677" y="0" type="line"/>
      <point x="737" y="0" type="line"/>
      <point x="737" y="371" type="line"/>
      <point x="363" y="371" type="line"/>
    </contour>
    <contour>
      <point x="563" y="344" type="line"/>
      <point x="563" y="339.982"/>
      <point x="564" y="327.928"/>
      <point x="564" y="310.852" type="curve" smooth="yes"/>
      <point x="564" y="189.309"/>
      <point x="503" y="120"/>
      <point x="403" y="120" type="curve" smooth="yes"/>
      <point x="293" y="120"/>
      <point x="224" y="202.358"/>
      <point x="224" y="351.004" type="curve" smooth="yes"/>
      <point x="224" y="490.611"/>
      <point x="284" y="580"/>
      <point x="408" y="580" type="curve" smooth="yes"/>
      <point x="497" y="580"/>
      <point x="567" y="534.727"/>
      <point x="644" y="414" type="curve"/>
      <point x="689" y="578" type="line"/>
      <point x="620" y="664"/>
      <point x="510" y="720"/>
      <point x="382" y="720" type="curve" smooth="yes"/>
      <point x="166" y="720"/>
      <point x="33" y="560"/>
      <point x="33" y="354" type="curve" smooth="yes"/>
      <point x="33" y="129.6"/>
      <point x="173.8" y="-20"/>
      <point x="385" y="-20" type="curve" smooth="yes"/>
      <point x="533" y="-20"/>
      <point x="622" y="61"/>
      <point x="661" y="229" type="curve"/>
    </contour>
  </outline>
</glyph>
<glyph name="G.ss14" format="2">
  <advance width="775"/>
  <anchor x="388" y="-19" name="bottom"/>
  <anchor x="388" y="719" name="top"/>
  <outline>
    <contour>
      <point x="361" y="241" type="line"/>
      <point x="578" y="241" type="line"/>
      <point x="562.958" y="159.325"/>
      <point x="509.807" y="120"/>
      <point x="427.575" y="120" type="curve" smooth="yes"/>
      <point x="302.221" y="120"/>
      <point x="224" y="210.393"/>
      <point x="224" y="351.004" type="curve" smooth="yes"/>
      <point x="224" y="494.629"/>
      <point x="286.146" y="580"/>
      <point x="410.439" y="580" type="curve" smooth="yes"/>
      <point x="509.672" y="580"/>
      <point x="575.828" y="534.727"/>
      <point x="649" y="414" type="curve"/>
      <point x="694" y="578" type="line"/>
      <point x="630.905" y="662"/>
      <point x="519.736" y="720"/>
      <point x="390.541" y="720" type="curve" smooth="yes" name=" "/>
      <point x="172.211" y="720"/>
      <point x="33" y="561"/>
      <point x="33" y="350" type="curve" smooth="yes"/>
      <point x="33" y="147"/>
      <point x="168.23" y="-20"/>
      <point x="382.596" y="-20" type="curve" smooth="yes"/>
      <point x="571.918" y="-20"/>
      <point x="620" y="131.622"/>
      <point x="620" y="320.152" type="curve" smooth="yes"/>
      <point x="620" y="381" type="line"/>
      <point x="361" y="381" type="line"/>
    </contour>
    <contour>
      <point x="578" y="0" type="line"/>
      <point x="718" y="0" type="line"/>
      <point x="718" y="381" type="line"/>
      <point x="578" y="381" type="line"/>
    </contour>
  </outline>
</glyph>
<glyph name="G.ss15" format="2">
  <advance width="747"/>
  <anchor x="383" y="-19" name="bottom"/>
  <anchor x="383" y="719" name="top"/>
  <outline>
    <contour>
      <point x="367" y="264" type="line" name="dv05"/>
      <point x="557" y="264" type="line" name="sv02"/>
      <point x="537" y="309" type="line"/>
      <point x="537" y="182"/>
      <point x="490" y="121"/>
      <point x="390" y="121" type="curve" smooth="yes" name="dv04"/>
      <point x="275.044" y="121"/>
      <point x="213" y="200.22"/>
      <point x="213" y="347" type="curve" smooth="yes" name="dv07"/>
      <point x="213" y="512.556"/>
      <point x="262.869" y="576"/>
      <point x="393" y="576" type="curve" smooth="yes"/>
      <point x="483" y="576"/>
      <point x="583" y="548"/>
      <point x="654" y="472" type="curve"/>
      <point x="667" y="596" type="line"/>
      <point x="594" y="679"/>
      <point x="493" y="720"/>
      <point x="378" y="720" type="curve" smooth="yes"/>
      <point x="161" y="720"/>
      <point x="23" y="575"/>
      <point x="23" y="347" type="curve" smooth="yes" name="dv08"/>
      <point x="23" y="120"/>
      <point x="160" y="-19"/>
      <point x="372" y="-19" type="curve" smooth="yes" name="dv03"/>
      <point x="586" y="-19"/>
      <point x="724" y="122"/>
      <point x="724" y="329" type="curve" smooth="yes" name="sv03"/>
      <point x="724" y="404" type="line" name="sv01"/>
      <point x="367" y="404" type="line" name="dv06"/>
    </contour>
  </outline>
</glyph>
<glyph name="Germandbls.ss10" format="2">
  <advance width="723"/>
  <outline>
    <contour>
      <point x="516" y="162" type="curve" smooth="yes"/>
      <point x="516" y="140"/>
      <point x="489.473" y="120"/>
      <point x="462.946" y="120" type="curve" smooth="yes"/>
      <point x="393.568" y="120"/>
      <point x="361" y="154"/>
      <point x="315" y="233" type="curve"/>
      <point x="251.103" y="61.839" type="line"/>
      <point x="286.83" y="5.569"/>
      <point x="360.493" y="-20"/>
      <point x="456.582" y="-20" type="curve" smooth="yes"/>
      <point x="645.556" y="-20"/>
      <point x="703" y="78.895"/>
      <point x="703" y="168.42" type="curve" smooth="yes"/>
      <point x="703" y="332.091"/>
      <point x="511" y="328"/>
      <point x="511" y="430" type="curve" smooth="yes"/>
      <point x="511" y="459"/>
      <point x="532.669" y="482.487"/>
      <point x="557" y="511" type="curve" smooth="yes"/>
      <point x="699.155" y="677.588" type="line"/>
      <point x="660.508" y="624.591" type="line"/>
      <point x="611.747" y="667.271"/>
      <point x="484.898" y="720"/>
      <point x="333.157" y="720" type="curve" smooth="yes"/>
      <point x="132.558" y="720"/>
      <point x="45" y="631"/>
      <point x="45" y="499" type="curve" smooth="yes"/>
      <point x="45" y="0" type="line"/>
      <point x="235" y="0" type="line"/>
      <point x="235" y="434" type="line" smooth="yes"/>
      <point x="235" y="527"/>
      <point x="253.907" y="579"/>
      <point x="333.157" y="579" type="curve" smooth="yes"/>
      <point x="367.53" y="579"/>
      <point x="392.701" y="573.194"/>
      <point x="423.452" y="556.335" type="curve"/>
      <point x="464.818" y="652.391" type="line"/>
      <point x="388" y="559" type="line" smooth="yes"/>
      <point x="343.97" y="505.471"/>
      <point x="321" y="468"/>
      <point x="321" y="418" type="curve" smooth="yes"/>
      <point x="321" y="262"/>
      <point x="516" y="250"/>
    </contour>
  </outline>
</glyph>
<glyph name="IJ.liga.ss07" format="2">
  <advance width="640"/>
  <outline>
    <contour>
      <point x="68" y="50" type="line"/>
      <point x="258" y="50" type="line"/>
      <point x="258" y="700" type="line"/>
      <point x="68" y="700" type="line"/>
    </contour>
    <contour>
      <point x="68" y="-144" type="line"/>
      <point x="503.537" y="-144"/>
      <point x="579.21" y="-75"/>
      <point x="579" y="154" type="curve" smooth="yes"/>
      <point x="578.5" y="700" type="line"/>
      <point x="388.5" y="700" type="line"/>
      <point x="388.5" y="154" type="line" smooth="yes"/>
      <point x="388.5" y="17"/>
      <point x="348.454" y="-4"/>
      <point x="68" y="-4" type="curve"/>
    </contour>
  </outline>
</glyph>
<glyph name="M.ss01" format="2">
  <advance width="850"/>
  <anchor x="425" y="719" name="top"/>
  <anchor x="425" y="-20" name="bottom"/>
  <outline>
    <contour>
      <point x="58" y="0" type="line" name="ab01"/>
      <point x="248" y="0" type="line"/>
      <point x="248" y="398" type="line" name="iv02"/>
      <point x="406" y="124" type="line"/>
      <point x="444" y="124" type="line"/>
      <point x="602" y="398" type="line" name="iv03"/>
      <point x="602" y="0" type="line" name="ab02"/>
      <point x="792" y="0" type="line"/>
      <point x="792" y="700" type="line" name="at02"/>
      <point x="612" y="700" type="line"/>
      <point x="425" y="376" type="line" name="iv01"/>
      <point x="238" y="700" type="line" name="at01"/>
      <point x="58" y="700" type="line"/>
    </contour>
  </outline>
</glyph>
<glyph name="Q.ss06" format="2">
  <advance width="795"/>
  <anchor x="398" y="719" name="top"/>
  <anchor x="398" y="-20" name="bottom"/>
  <anchor x="522" y="-2" name="ogonek"/>
  <outline>
    <contour>
      <point x="398.983" y="124" type="curve" smooth="yes"/>
      <point x="290.251" y="124"/>
      <point x="226" y="210.847"/>
      <point x="226" y="352.961" type="curve" smooth="yes"/>
      <point x="226" y="496.061"/>
      <point x="286.297" y="576"/>
      <point x="395.029" y="576" type="curve" smooth="yes"/>
      <point x="505.738" y="576"/>
      <point x="569" y="491.127"/>
      <point x="569" y="346.052" type="curve" smooth="yes"/>
      <point x="569" y="202.952"/>
      <point x="508.703" y="124"/>
    </contour>
    <contour>
      <point x="397" y="-20" type="curve" smooth="yes"/>
      <point x="614" y="-20"/>
      <point x="762" y="125"/>
      <point x="762" y="350" type="curve" smooth="yes"/>
      <point x="762" y="568"/>
      <point x="618" y="720"/>
      <point x="398" y="720" type="curve" smooth="yes"/>
      <point x="178" y="720"/>
      <point x="33" y="569"/>
      <point x="33" y="350" type="curve" smooth="yes"/>
      <point x="33" y="127"/>
      <point x="181" y="-20"/>
    </contour>
    <contour>
      <point x="303.503" y="121" type="line"/>
      <point x="334.503" y="154"/>
      <point x="359.503" y="162"/>
      <point x="377.982" y="162" type="curve" smooth="yes"/>
      <point x="419.147" y="162"/>
      <point x="434.526" y="116.652"/>
      <point x="453.724" y="60.0451" type="curve" smooth="yes"/>
      <point x="485.604" y="-33.9543"/>
      <point x="528.013" y="-159"/>
      <point x="716.503" y="-159" type="curve"/>
      <point x="716.503" y="-19" type="line"/>
      <point x="630.142" y="-19"/>
      <point x="610.996" y="40.1786"/>
      <point x="591.601" y="100.128" type="curve" smooth="yes"/>
      <point x="571.695" y="161.658"/>
      <point x="551.525" y="224"/>
      <point x="458.148" y="224" type="curve" smooth="yes"/>
      <point x="368.503" y="224"/>
      <point x="316.503" y="176"/>
      <point x="295.503" y="129" type="curve"/>
    </contour>
  </outline>
</glyph>
<glyph name="Schwa.ss12" format="2">
  <advance width="779"/>
  <anchor x="390" y="719" name="top"/>
  <anchor x="390" y="-20" name="bottom"/>
  <outline>
    <contour>
      <point x="40" y="417" type="line"/>
      <point x="36" y="402"/>
      <point x="33" y="376"/>
      <point x="33" y="358" type="curve" smooth="yes"/>
      <point x="33" y="125"/>
      <point x="170" y="-20"/>
      <point x="390" y="-20" type="curve" smooth="yes"/>
      <point x="596" y="-20"/>
      <point x="746" y="111"/>
      <point x="746" y="350" type="curve" smooth="yes"/>
      <point x="746" y="582"/>
      <point x="595" y="720"/>
      <point x="384" y="720" type="curve" smooth="yes"/>
      <point x="266" y="720"/>
      <point x="171" y="679"/>
      <point x="90" y="596" type="curve"/>
      <point x="103" y="472" type="line"/>
      <point x="183" y="547.701"/>
      <point x="256" y="580"/>
      <point x="368" y="580" type="curve" smooth="yes"/>
      <point x="492" y="580"/>
      <point x="556" y="508.69"/>
      <point x="556" y="353.013" type="curve" smooth="yes"/>
      <point x="556" y="195.328"/>
      <point x="503" y="120"/>
      <point x="392" y="120" type="curve" smooth="yes"/>
      <point x="294" y="120"/>
      <point x="239" y="175"/>
      <point x="229" y="280" type="curve"/>
      <point x="565" y="280" type="line"/>
      <point x="566" y="417" type="line"/>
    </contour>
  </outline>
</glyph>
<glyph name="Zecyr.ss09" format="2">
  <advance width="598"/>
  <anchor x="299" y="-20" name="bottom"/>
  <anchor x="299" y="719" name="top"/>
  <outline>
    <contour>
      <point x="25" y="198" type="line"/>
      <point x="47" y="73"/>
      <point x="129" y="-20"/>
      <point x="296" y="-20" type="curve" smooth="yes"/>
      <point x="454" y="-20"/>
      <point x="568" y="63"/>
      <point x="568" y="179" type="curve" smooth="yes"/>
      <point x="568" y="285"/>
      <point x="515" y="354"/>
      <point x="376" y="371" type="curve"/>
      <point x="489" y="398"/>
      <point x="535" y="448"/>
      <point x="535" y="542" type="curve" smooth="yes"/>
      <point x="535" y="654"/>
      <point x="439" y="720"/>
      <point x="301" y="720" type="curve" smooth="yes"/>
      <point x="135" y="720"/>
      <point x="48" y="627"/>
      <point x="24" y="502" type="curve"/>
      <point x="214" y="502" type="line"/>
      <point x="220.583" y="551.526"/>
      <point x="243.03" y="580"/>
      <point x="287.03" y="580" type="curve" smooth="yes"/>
      <point x="321.03" y="580"/>
      <point x="341" y="556.844"/>
      <point x="341" y="512.544" type="curve" smooth="yes"/>
      <point x="341" y="461.197"/>
      <point x="319" y="432"/>
      <point x="252" y="432" type="curve"/>
      <point x="252" y="292" type="line"/>
      <point x="327" y="292"/>
      <point x="375" y="258.807"/>
      <point x="375" y="206.503" type="curve" smooth="yes"/>
      <point x="375" y="147.158"/>
      <point x="347" y="120"/>
      <point x="294" y="120" type="curve" smooth="yes"/>
      <point x="249" y="120"/>
      <point x="227" y="150"/>
      <point x="215" y="198" type="curve"/>
    </contour>
  </outline>
</glyph>
<glyph name="a.ss01" format="2">
  <advance width="606"/>
  <anchor x="301" y="520" name="top"/>
  <anchor x="293" y="-20" name="bottom"/>
  <anchor x="626" y="-3" name="ogonek"/>
  <outline>
    <contour>
      <point x="230" y="-20" type="curve" smooth="yes" name="dv01"/>
      <point x="346" y="-20"/>
      <point x="405" y="82"/>
      <point x="405" y="258" type="curve" smooth="yes"/>
      <point x="405" y="432"/>
      <point x="347" y="520"/>
      <point x="226" y="520" type="curve" smooth="yes" name="at01"/>
      <point x="91" y="520"/>
      <point x="20" y="411"/>
      <point x="20" y="262" type="curve" smooth="yes"/>
      <point x="20" y="99"/>
      <point x="105" y="-20"/>
    </contour>
    <contour>
      <point x="293" y="116" type="curve" smooth="yes" name="dv02"/>
      <point x="242" y="116"/>
      <point x="210" y="167"/>
      <point x="210" y="251" type="curve" smooth="yes"/>
      <point x="210" y="334"/>
      <point x="241" y="383"/>
      <point x="292" y="383" type="curve" smooth="yes" name="sv01"/>
      <point x="343" y="383"/>
      <point x="373" y="335"/>
      <point x="373" y="251" type="curve" smooth="yes"/>
      <point x="373" y="168"/>
      <point x="344" y="116"/>
    </contour>
    <contour>
      <point x="608" y="133" type="line"/>
      <point x="602" y="126.953"/>
      <point x="591.254" y="122"/>
      <point x="580.156" y="122" type="curve" smooth="yes" name="dv02"/>
      <point x="568.723" y="122"/>
      <point x="563" y="143.033"/>
      <point x="563" y="209.138" type="curve" smooth="yes"/>
      <point x="563" y="500" type="line" name="ab01"/>
      <point x="373" y="500" type="line"/>
      <point x="373" y="132" type="line" smooth="yes"/>
      <point x="373" y="26"/>
      <point x="417.878" y="-20"/>
      <point x="519.732" y="-20" type="curve" smooth="yes" name="dv01"/>
      <point x="561.878" y="-20"/>
      <point x="597" y="-12"/>
      <point x="642" y="6" type="curve"/>
    </contour>
  </outline>
</glyph>
<glyph name="a.ss09" format="2">
  <advance width="541"/>
  <anchor x="271" y="520" name="top"/>
  <anchor x="266" y="-20" name="bottom"/>
  <anchor x="492" y="-3" name="ogonek"/>
  <outline>
    <contour>
      <point x="320" y="160.074" type="curve"/>
      <point x="315.565" y="127.25"/>
      <point x="285.361" y="104"/>
      <point x="248.964" y="104" type="curve" smooth="yes"/>
      <point x="218.385" y="104"/>
      <point x="200" y="120.412"/>
      <point x="200" y="152.45" type="curve" smooth="yes"/>
      <point x="200" y="183.324"/>
      <point x="217.267" y="197"/>
      <point x="249.033" y="197" type="curve" smooth="yes"/>
      <point x="282.349" y="197"/>
      <point x="308.913" y="181.956"/>
    </contour>
    <contour>
      <point x="502" y="0" type="line"/>
      <point x="502" y="352" type="line" smooth="yes"/>
      <point x="502" y="455"/>
      <point x="416.166" y="520"/>
      <point x="282.306" y="520" type="curve" smooth="yes"/>
      <point x="121.878" y="520"/>
      <point x="41.153" y="449"/>
      <point x="34" y="341" type="curve"/>
      <point x="218" y="341" type="line"/>
      <point x="224.071" y="376"/>
      <point x="244.714" y="390"/>
      <point x="273.857" y="390" type="curve" smooth="yes"/>
      <point x="304.214" y="390"/>
      <point x="320" y="376.827"/>
      <point x="320" y="343.387" type="curve" smooth="yes"/>
      <point x="320" y="238" type="line"/>
      <point x="295" y="285"/>
      <point x="247.918" y="312"/>
      <point x="186.926" y="312" type="curve" smooth="yes"/>
      <point x="90.623" y="312"/>
      <point x="20" y="243"/>
      <point x="20" y="146" type="curve" smooth="yes"/>
      <point x="20" y="49"/>
      <point x="90.605" y="-20"/>
      <point x="185.814" y="-20" type="curve" smooth="yes"/>
      <point x="247.86" y="-20"/>
      <point x="296" y="10"/>
      <point x="320" y="63" type="curve"/>
      <point x="320" y="0" type="line"/>
    </contour>
  </outline>
</glyph>
<glyph name="ae.ss14" format="2">
  <advance width="867"/>
  <anchor x="439" y="500" name="top"/>
  <anchor x="439" y="-0" name="bottom"/>
  <outline>
    <contour>
      <point x="35" y="430" type="line"/>
      <point x="69" y="482"/>
      <point x="166.39" y="520"/>
      <point x="275.44" y="520" type="curve" smooth="yes"/>
      <point x="340.37" y="520"/>
      <point x="394.16" y="506.4"/>
      <point x="433.01" y="481.07" type="curve"/>
      <point x="478.939" y="505.75"/>
      <point x="535.32" y="520"/>
      <point x="594" y="520" type="curve" smooth="yes"/>
      <point x="765" y="520"/>
      <point x="859.864" y="410"/>
      <point x="843" y="224" type="curve"/>
      <point x="502" y="224" type="line"/>
      <point x="502" y="151.54"/>
      <point x="538.411" y="110"/>
      <point x="614.04" y="110" type="curve" smooth="yes"/>
      <point x="676.61" y="110"/>
      <point x="725.27" y="139"/>
      <point x="785" y="220" type="curve"/>
      <point x="828" y="70" type="line"/>
      <point x="795.569" y="18"/>
      <point x="707.823" y="-20"/>
      <point x="605.884" y="-20" type="curve" smooth="yes"/>
      <point x="508.656" y="-20"/>
      <point x="437.525" y="12.5888"/>
      <point x="390.577" y="68.916" type="curve"/>
      <point x="356.742" y="12.7431"/>
      <point x="285.669" y="-20"/>
      <point x="212.097" y="-20" type="curve" smooth="yes"/>
      <point x="109.718" y="-20"/>
      <point x="34" y="44"/>
      <point x="34" y="137" type="curve" smooth="yes"/>
      <point x="34" y="231"/>
      <point x="108" y="286"/>
      <point x="227" y="286" type="curve" smooth="yes"/>
      <point x="291" y="286"/>
      <point x="312" y="302"/>
      <point x="312" y="338" type="curve" smooth="yes"/>
      <point x="312" y="369"/>
      <point x="294.52" y="390"/>
      <point x="243.3" y="390" type="curve" smooth="yes"/>
      <point x="213.02" y="390"/>
      <point x="142" y="383"/>
      <point x="78" y="280" type="curve"/>
    </contour>
    <contour>
      <point x="312" y="202" type="line"/>
      <point x="301" y="181"/>
      <point x="283" y="171"/>
      <point x="262" y="171" type="curve" smooth="yes"/>
      <point x="235" y="171"/>
      <point x="224" y="155"/>
      <point x="224" y="139" type="curve" smooth="yes"/>
      <point x="224" y="122"/>
      <point x="232.205" y="105"/>
      <point x="258.205" y="105" type="curve" smooth="yes"/>
      <point x="288.621" y="105"/>
      <point x="312" y="129.213"/>
      <point x="312" y="166.817" type="curve" smooth="yes"/>
    </contour>
    <contour>
      <point x="650" y="328" type="line"/>
      <point x="650" y="358"/>
      <point x="622.8" y="390"/>
      <point x="576.5" y="390" type="curve" smooth="yes"/>
      <point x="529.17" y="390"/>
      <point x="502" y="356"/>
      <point x="502" y="328" type="curve"/>
    </contour>
  </outline>
</glyph>
<glyph name="alpha.ss01" format="2">
  <advance width="670"/>
  <anchor x="300" y="519" name="topgr"/>
  <outline>
    <contour>
      <point x="648" y="0" type="line"/>
      <point x="575" y="0" type="line" smooth="yes"/>
      <point x="456" y="0"/>
      <point x="402" y="47"/>
      <point x="402" y="153" type="curve" smooth="yes"/>
      <point x="402" y="500" type="line"/>
      <point x="592" y="500" type="line"/>
      <point x="592" y="210" type="line" smooth="yes"/>
      <point x="592" y="148"/>
      <point x="611" y="133"/>
      <point x="648" y="133" type="curve"/>
    </contour>
    <contour>
      <point x="258" y="-20" type="curve" smooth="yes"/>
      <point x="134" y="-20"/>
      <point x="49" y="99"/>
      <point x="49" y="262" type="curve" smooth="yes"/>
      <point x="49" y="411"/>
      <point x="120" y="520"/>
      <point x="254" y="520" type="curve" smooth="yes"/>
      <point x="377" y="520"/>
      <point x="434" y="428"/>
      <point x="434" y="258" type="curve" smooth="yes"/>
      <point x="434" y="92"/>
      <point x="379" y="-20"/>
    </contour>
    <contour>
      <point x="320" y="106" type="curve" smooth="yes"/>
      <point x="377" y="106"/>
      <point x="402" y="178"/>
      <point x="402" y="251" type="curve" smooth="yes"/>
      <point x="402" y="332"/>
      <point x="372" y="393"/>
      <point x="319" y="393" type="curve" smooth="yes"/>
      <point x="270" y="393"/>
      <point x="239" y="340"/>
      <point x="239" y="252" type="curve" smooth="yes"/>
      <point x="239" y="169"/>
      <point x="266" y="106"/>
    </contour>
  </outline>
</glyph>
<glyph name="aogonek.ss02" format="2">
  <advance width="551"/>
  <anchor x="261" y="520" name="top"/>
  <anchor x="251" y="-20" name="bottom"/>
  <outline>
    <contour>
      <point x="319.9" y="159.991" type="curve"/>
      <point x="314.334" y="123.612"/>
      <point x="295.331" y="104"/>
      <point x="255.272" y="104" type="curve" smooth="yes"/>
      <point x="218.424" y="104"/>
      <point x="200" y="120.412"/>
      <point x="200" y="150.5" type="curve" smooth="yes"/>
      <point x="200" y="181.956"/>
      <point x="221.287" y="197"/>
      <point x="253.217" y="197" type="curve" smooth="yes"/>
      <point x="284.363" y="197"/>
      <point x="308.058" y="181.669"/>
    </contour>
    <contour>
      <point x="502" y="63" type="line"/>
      <point x="502" y="352" type="line" smooth="yes"/>
      <point x="502" y="455"/>
      <point x="410.056" y="520"/>
      <point x="263.968" y="520" type="curve" smooth="yes" name="at01"/>
      <point x="157.721" y="520"/>
      <point x="86.21" y="486"/>
      <point x="29" y="430" type="curve"/>
      <point x="117" y="342" type="line"/>
      <point x="145.53" y="371"/>
      <point x="198.2" y="390"/>
      <point x="247.578" y="390" type="curve" smooth="yes" name="sv01"/>
      <point x="292.568" y="390"/>
      <point x="320" y="374"/>
      <point x="320" y="325" type="curve" smooth="yes"/>
      <point x="320" y="237.79" type="line"/>
      <point x="295.52" y="285.2"/>
      <point x="248.926" y="312"/>
      <point x="187.974" y="312" type="curve" smooth="yes"/>
      <point x="90.613" y="312"/>
      <point x="20" y="243"/>
      <point x="20" y="146" type="curve" smooth="yes"/>
      <point x="20" y="49"/>
      <point x="90.61" y="-20"/>
      <point x="185.827" y="-20" type="curve" smooth="yes"/>
      <point x="248.466" y="-20"/>
      <point x="295.7" y="10.06"/>
      <point x="320" y="63.22" type="curve"/>
      <point x="320" y="63" type="line"/>
    </contour>
    <contour>
      <point x="547" y="133" type="line"/>
      <point x="541" y="126.953"/>
      <point x="530.254" y="122"/>
      <point x="519.156" y="122" type="curve" smooth="yes" name="dv02"/>
      <point x="507.723" y="122"/>
      <point x="502" y="143.033"/>
      <point x="502" y="209.138" type="curve" smooth="yes"/>
      <point x="502" y="324.625" type="line" name="ab01"/>
      <point x="320" y="324.625" type="line"/>
      <point x="320" y="132" type="line" smooth="yes"/>
      <point x="320" y="26"/>
      <point x="356.878" y="-20"/>
      <point x="458.732" y="-20" type="curve" smooth="yes" name="dv01"/>
      <point x="500.878" y="-20"/>
      <point x="536" y="-12"/>
      <point x="581" y="6" type="curve"/>
    </contour>
    <contour>
      <point x="558" y="-183" type="line"/>
      <point x="515.672" y="-169"/>
      <point x="495" y="-138"/>
      <point x="495" y="-104" type="curve" smooth="yes"/>
      <point x="495" y="-67"/>
      <point x="518.619" y="-24"/>
      <point x="557" y="0" type="curve"/>
      <point x="497.709" y="3" type="line"/>
      <point x="401.236" y="-14"/>
      <point x="353" y="-53"/>
      <point x="353" y="-105" type="curve" smooth="yes"/>
      <point x="353" y="-158"/>
      <point x="404.25" y="-196"/>
      <point x="483.637" y="-206" type="curve"/>
    </contour>
  </outline>
</glyph>
<glyph name="aogonek.ss10" format="2">
  <advance width="558"/>
  <anchor x="274" y="520" name="top"/>
  <anchor x="274" y="-20" name="bottom"/>
  <outline>
    <contour>
      <point x="310" y="192" type="line" smooth="yes"/>
      <point x="310" y="139"/>
      <point x="294.48" y="105"/>
      <point x="250.34" y="105" type="curve" smooth="yes"/>
      <point x="219.31" y="105"/>
      <point x="205" y="125.86"/>
      <point x="205" y="146.72" type="curve" smooth="yes"/>
      <point x="205" y="166.36"/>
      <point x="218.25" y="186"/>
      <point x="250.77" y="186" type="curve" smooth="yes"/>
      <point x="276.06" y="186"/>
      <point x="297.75" y="196"/>
      <point x="310" y="217" type="curve"/>
    </contour>
    <contour>
      <point x="494" y="-183" type="line"/>
      <point x="451.67" y="-169"/>
      <point x="431" y="-138"/>
      <point x="431" y="-104" type="curve" smooth="yes"/>
      <point x="431" y="-67"/>
      <point x="454.61" y="-34"/>
      <point x="493" y="-10" type="curve"/>
      <point x="493" y="352" type="line" smooth="yes"/>
      <point x="493" y="458"/>
      <point x="405.94" y="520"/>
      <point x="268.52" y="520" type="curve" smooth="yes"/>
      <point x="160.49" y="520"/>
      <point x="64" y="482"/>
      <point x="30" y="430" type="curve"/>
      <point x="73" y="280" type="line"/>
      <point x="138.94" y="383"/>
      <point x="210.41" y="390"/>
      <point x="240.87" y="390" type="curve" smooth="yes"/>
      <point x="292.42" y="390"/>
      <point x="310" y="369"/>
      <point x="310" y="338" type="curve" smooth="yes"/>
      <point x="310" y="302"/>
      <point x="288.47" y="286"/>
      <point x="222.85" y="286" type="curve" smooth="yes"/>
      <point x="100.86" y="286"/>
      <point x="25" y="231"/>
      <point x="25" y="137" type="curve" smooth="yes"/>
      <point x="25" y="44"/>
      <point x="97.73" y="-20"/>
      <point x="196.08" y="-20" type="curve" smooth="yes"/>
      <point x="267.73" y="-20"/>
      <point x="302.5" y="14.11"/>
      <point x="323.79" y="66.75" type="curve"/>
      <point x="451.55" y="8.8" type="line"/>
      <point x="343.18" y="-6.47"/>
      <point x="289" y="-49.88"/>
      <point x="289" y="-105" type="curve" smooth="yes"/>
      <point x="289" y="-158"/>
      <point x="340.25" y="-196"/>
      <point x="419.63" y="-206" type="curve"/>
    </contour>
  </outline>
</glyph>
<glyph name="aogonek.ss12" format="2">
  <advance width="544"/>
  <anchor x="272" y="520" name="top"/>
  <anchor x="272" y="-20" name="bottom"/>
  <outline>
    <contour>
      <point x="308" y="0" type="line"/>
      <point x="308" y="204" type="line"/>
      <point x="300.146" y="188"/>
      <point x="284.439" y="181"/>
      <point x="264.244" y="181" type="curve" smooth="yes"/>
      <point x="235.073" y="181"/>
      <point x="216" y="166"/>
      <point x="216" y="146" type="curve" smooth="yes"/>
      <point x="216" y="126.2"/>
      <point x="231.707" y="113"/>
      <point x="255.268" y="113" type="curve" smooth="yes"/>
      <point x="286.907" y="113"/>
      <point x="308" y="144.6"/>
      <point x="308" y="192" type="curve"/>
      <point x="331" y="122" type="line"/>
      <point x="303.577" y="24"/>
      <point x="269" y="-20"/>
      <point x="189.354" y="-20" type="curve" smooth="yes"/>
      <point x="92.4" y="-20"/>
      <point x="26" y="45.2"/>
      <point x="26" y="143" type="curve" smooth="yes"/>
      <point x="26" y="239"/>
      <point x="96" y="296"/>
      <point x="219.842" y="296" type="curve" smooth="yes"/>
      <point x="283.861" y="296"/>
      <point x="308" y="311"/>
      <point x="308" y="342" type="curve" smooth="yes"/>
      <point x="308" y="373"/>
      <point x="284.24" y="390"/>
      <point x="232.4" y="390" type="curve" smooth="yes"/>
      <point x="173" y="390"/>
      <point x="120" y="367"/>
      <point x="51" y="315" type="curve"/>
      <point x="40" y="431" type="line"/>
      <point x="89" y="485"/>
      <point x="166.905" y="520"/>
      <point x="265.311" y="520" type="curve" smooth="yes"/>
      <point x="411.895" y="520"/>
      <point x="498" y="443"/>
      <point x="498" y="350" type="curve" smooth="yes"/>
      <point x="498" y="0" type="line"/>
    </contour>
    <contour>
      <point x="424.637" y="-206" type="line"/>
      <point x="345.25" y="-196"/>
      <point x="294" y="-158"/>
      <point x="294" y="-105" type="curve" smooth="yes"/>
      <point x="294" y="-53"/>
      <point x="342.236" y="-14"/>
      <point x="438.709" y="3" type="curve"/>
      <point x="498" y="0" type="line"/>
      <point x="459.619" y="-24"/>
      <point x="436" y="-67"/>
      <point x="436" y="-104" type="curve" smooth="yes"/>
      <point x="436" y="-138"/>
      <point x="456.672" y="-169"/>
      <point x="499" y="-183" type="curve"/>
    </contour>
  </outline>
</glyph>
<glyph name="backslash.case" format="2">
  <advance width="326"/>
  <outline>
    <contour>
      <point x="329" y="0" type="line"/>
      <point x="-43" y="700" type="line"/>
      <point x="-5" y="700" type="line"/>
      <point x="367" y="0" type="line"/>
    </contour>
  </outline>
</glyph>
<glyph name="becyr.loclMKD" format="2">
  <advance width="578"/>
  <outline>
    <contour>
      <point x="292" y="114" type="curve" smooth="yes"/>
      <point x="237" y="114"/>
      <point x="210" y="154"/>
      <point x="210" y="226" type="curve" smooth="yes"/>
      <point x="210" y="297"/>
      <point x="236" y="333"/>
      <point x="290" y="333" type="curve" smooth="yes"/>
      <point x="343" y="333"/>
      <point x="368" y="297"/>
      <point x="368" y="223" type="curve" smooth="yes"/>
      <point x="368" y="149"/>
      <point x="343" y="114"/>
    </contour>
    <contour>
      <point x="290" y="-20" type="curve" smooth="yes"/>
      <point x="451" y="-20"/>
      <point x="558" y="75"/>
      <point x="558" y="226" type="curve" smooth="yes"/>
      <point x="558" y="376"/>
      <point x="452" y="467"/>
      <point x="291" y="467" type="curve" smooth="yes"/>
      <point x="123" y="467"/>
      <point x="20" y="369"/>
      <point x="20" y="226" type="curve" smooth="yes"/>
      <point x="20" y="82"/>
      <point x="124" y="-20"/>
    </contour>
    <contour>
      <point x="377.678" y="456.818" type="line"/>
      <point x="300.611" y="477.805"/>
      <point x="271.145" y="498.347"/>
      <point x="271.145" y="521.574" type="curve" smooth="yes"/>
      <point x="271.145" y="549.47"/>
      <point x="284.216" y="564.052"/>
      <point x="373.775" y="573.456" type="curve" smooth="yes"/>
      <point x="522.8" y="589.104" type="line"/>
      <point x="523.482" y="730.385" type="line"/>
      <point x="291.944" y="706.399" type="line" smooth="yes"/>
      <point x="184.875" y="695.308"/>
      <point x="81.145" y="669.067"/>
      <point x="81.145" y="569.795" type="curve" smooth="yes"/>
      <point x="81.145" y="494.795"/>
      <point x="148.307" y="449"/>
      <point x="270.619" y="438" type="curve"/>
    </contour>
  </outline>
</glyph>
<glyph name="c.ss10" format="2">
  <advance width="547"/>
  <anchor x="297" y="520" name="top"/>
  <anchor x="297" y="-20" name="bottom"/>
  <outline>
    <contour>
      <point x="484" y="220" type="line"/>
      <point x="430" y="139"/>
      <point x="386" y="110"/>
      <point x="317" y="110" type="curve" smooth="yes"/>
      <point x="253" y="110"/>
      <point x="211" y="165"/>
      <point x="211" y="249" type="curve" smooth="yes"/>
      <point x="211" y="334"/>
      <point x="253" y="390"/>
      <point x="317" y="390" type="curve" smooth="yes"/>
      <point x="386" y="390"/>
      <point x="430" y="361"/>
      <point x="484" y="280" type="curve"/>
      <point x="527" y="430" type="line"/>
      <point x="493" y="482"/>
      <point x="401" y="520"/>
      <point x="310" y="520" type="curve" smooth="yes"/>
      <point x="137" y="520"/>
      <point x="20" y="413"/>
      <point x="20" y="255" type="curve" smooth="yes"/>
      <point x="20" y="89"/>
      <point x="135" y="-20"/>
      <point x="310" y="-20" type="curve" smooth="yes"/>
      <point x="401" y="-20"/>
      <point x="493" y="18"/>
      <point x="527" y="70" type="curve"/>
    </contour>
  </outline>
</glyph>
<glyph name="c.ss12" format="2">
  <advance width="532"/>
  <anchor x="291" y="520" name="top"/>
  <anchor x="291" y="-20" name="bottom"/>
  <outline>
    <contour>
      <point x="501" y="196" type="line"/>
      <point x="448" y="137"/>
      <point x="387" y="110"/>
      <point x="327" y="110" type="curve" smooth="yes"/>
      <point x="263" y="110"/>
      <point x="210" y="168"/>
      <point x="210" y="255" type="curve" smooth="yes"/>
      <point x="210" y="342"/>
      <point x="261" y="390"/>
      <point x="326" y="390" type="curve" smooth="yes"/>
      <point x="385" y="390"/>
      <point x="435" y="367"/>
      <point x="501" y="315" type="curve"/>
      <point x="512" y="431" type="line"/>
      <point x="463" y="485"/>
      <point x="387" y="520"/>
      <point x="296" y="520" type="curve" smooth="yes"/>
      <point x="116" y="520"/>
      <point x="20" y="401"/>
      <point x="20" y="255" type="curve" smooth="yes"/>
      <point x="20" y="100"/>
      <point x="116" y="-20"/>
      <point x="295" y="-20" type="curve" smooth="yes"/>
      <point x="392" y="-20"/>
      <point x="463" y="26"/>
      <point x="512" y="80" type="curve"/>
    </contour>
  </outline>
</glyph>
<glyph name="ccedilla.ss10" format="2">
  <advance width="585"/>
  <anchor x="316" y="520" name="top"/>
  <anchor x="296" y="-218" name="bottom"/>
  <outline>
    <contour>
      <point x="503" y="220" type="line"/>
      <point x="449" y="139"/>
      <point x="405" y="110"/>
      <point x="336" y="110" type="curve" smooth="yes"/>
      <point x="272" y="110"/>
      <point x="230" y="165"/>
      <point x="230" y="249" type="curve" smooth="yes"/>
      <point x="230" y="334"/>
      <point x="272" y="390"/>
      <point x="336" y="390" type="curve" smooth="yes"/>
      <point x="405" y="390"/>
      <point x="449" y="361"/>
      <point x="503" y="280" type="curve"/>
      <point x="546" y="430" type="line"/>
      <point x="512" y="482"/>
      <point x="420" y="520"/>
      <point x="329" y="520" type="curve" smooth="yes"/>
      <point x="156" y="520"/>
      <point x="39" y="413"/>
      <point x="39" y="255" type="curve" smooth="yes"/>
      <point x="39" y="89"/>
      <point x="154" y="-20"/>
      <point x="329" y="-20" type="curve" smooth="yes"/>
      <point x="420" y="-20"/>
      <point x="512" y="18"/>
      <point x="546" y="70" type="curve"/>
    </contour>
    <contour>
      <point x="164" y="-205" type="line"/>
      <point x="186" y="-211"/>
      <point x="219" y="-218"/>
      <point x="272" y="-218" type="curve" smooth="yes"/>
      <point x="375" y="-218"/>
      <point x="424" y="-191"/>
      <point x="424" y="-134" type="curve" smooth="yes"/>
      <point x="424" y="-87"/>
      <point x="391" y="-64"/>
      <point x="323" y="-64" type="curve"/>
      <point x="370.423" y="20.4105" type="line"/>
      <point x="268.423" y="20.4105" type="line"/>
      <point x="200" y="-109" type="line"/>
      <point x="216" y="-107"/>
      <point x="241" y="-105"/>
      <point x="258" y="-105" type="curve" smooth="yes"/>
      <point x="288" y="-105"/>
      <point x="304" y="-111"/>
      <point x="304" y="-133" type="curve" smooth="yes"/>
      <point x="304" y="-151"/>
      <point x="293" y="-164"/>
      <point x="256" y="-164" type="curve" smooth="yes"/>
      <point x="235" y="-164"/>
      <point x="206" y="-160"/>
      <point x="190" y="-154" type="curve"/>
    </contour>
  </outline>
</glyph>
<glyph name="ccedilla.ss12" format="2">
  <advance width="532"/>
  <anchor x="291" y="520" name="top"/>
  <anchor x="271" y="-218" name="bottom"/>
  <outline>
    <contour>
      <point x="501" y="196" type="line"/>
      <point x="448" y="137"/>
      <point x="387" y="110"/>
      <point x="327" y="110" type="curve" smooth="yes"/>
      <point x="263" y="110"/>
      <point x="210" y="168"/>
      <point x="210" y="255" type="curve" smooth="yes"/>
      <point x="210" y="342"/>
      <point x="261" y="390"/>
      <point x="326" y="390" type="curve" smooth="yes"/>
      <point x="385" y="390"/>
      <point x="435" y="367"/>
      <point x="501" y="315" type="curve"/>
      <point x="512" y="431" type="line"/>
      <point x="463" y="485"/>
      <point x="387" y="520"/>
      <point x="296" y="520" type="curve" smooth="yes"/>
      <point x="116" y="520"/>
      <point x="20" y="401"/>
      <point x="20" y="255" type="curve" smooth="yes"/>
      <point x="20" y="100"/>
      <point x="116" y="-20"/>
      <point x="295" y="-20" type="curve" smooth="yes"/>
      <point x="392" y="-20"/>
      <point x="463" y="26"/>
      <point x="512" y="80" type="curve"/>
    </contour>
    <contour>
      <point x="139" y="-205" type="line"/>
      <point x="161" y="-211"/>
      <point x="194" y="-218"/>
      <point x="247" y="-218" type="curve" smooth="yes"/>
      <point x="350" y="-218"/>
      <point x="399" y="-191"/>
      <point x="399" y="-134" type="curve" smooth="yes"/>
      <point x="399" y="-87"/>
      <point x="366" y="-64"/>
      <point x="298" y="-64" type="curve"/>
      <point x="345.423" y="20.41" type="line"/>
      <point x="243.423" y="20.41" type="line"/>
      <point x="175" y="-109" type="line"/>
      <point x="191" y="-107"/>
      <point x="216" y="-105"/>
      <point x="233" y="-105" type="curve" smooth="yes"/>
      <point x="263" y="-105"/>
      <point x="279" y="-111"/>
      <point x="279" y="-133" type="curve" smooth="yes"/>
      <point x="279" y="-151"/>
      <point x="268" y="-164"/>
      <point x="231" y="-164" type="curve" smooth="yes"/>
      <point x="210" y="-164"/>
      <point x="181" y="-160"/>
      <point x="165" y="-154" type="curve"/>
    </contour>
  </outline>
</glyph>
<glyph name="dcroat.ss02" format="2">
  <advance width="625"/>
  <outline>
    <contour>
      <point x="211.455" y="631" type="line"/>
      <point x="622.447" y="631" type="line"/>
      <point x="622.447" y="665" type="line"/>
      <point x="211.455" y="665" type="line"/>
    </contour>
    <contour>
      <point x="363" y="150" type="line" name="ab03"/>
      <point x="553" y="150" type="line"/>
      <point x="553" y="750" type="line" name="ab01"/>
      <point x="363" y="750" type="line"/>
    </contour>
    <contour>
      <point x="237" y="-20" type="curve" smooth="yes" name="dv01"/>
      <point x="338" y="-20"/>
      <point x="395" y="82"/>
      <point x="395" y="255" type="curve" smooth="yes"/>
      <point x="395" y="432"/>
      <point x="339" y="520"/>
      <point x="226" y="520" type="curve" smooth="yes" name="at01"/>
      <point x="89" y="520"/>
      <point x="20" y="411"/>
      <point x="20" y="255" type="curve" smooth="yes"/>
      <point x="20" y="99"/>
      <point x="103" y="-20"/>
    </contour>
    <contour>
      <point x="291" y="116" type="curve" smooth="yes" name="dv02"/>
      <point x="240" y="116"/>
      <point x="210" y="167"/>
      <point x="210" y="254" type="curve" smooth="yes"/>
      <point x="210" y="334"/>
      <point x="239" y="383"/>
      <point x="287" y="383" type="curve" smooth="yes" name="sv01"/>
      <point x="335" y="383"/>
      <point x="363" y="335"/>
      <point x="363" y="255" type="curve" smooth="yes"/>
      <point x="363" y="168"/>
      <point x="336" y="116"/>
    </contour>
    <contour>
      <point x="598" y="133" type="line"/>
      <point x="592" y="126.953"/>
      <point x="581.254" y="122"/>
      <point x="570.156" y="122" type="curve" smooth="yes" name="dv02"/>
      <point x="558.723" y="122"/>
      <point x="553" y="143.033"/>
      <point x="553" y="209.138" type="curve" smooth="yes"/>
      <point x="553" y="324.625" type="line" name="ab01"/>
      <point x="362" y="324.625" type="line"/>
      <point x="362" y="132" type="line" smooth="yes"/>
      <point x="362" y="26"/>
      <point x="400.15" y="-20"/>
      <point x="505.516" y="-20" type="curve" smooth="yes" name="dv01"/>
      <point x="549.115" y="-20"/>
      <point x="585.448" y="-12"/>
      <point x="632" y="6" type="curve"/>
    </contour>
  </outline>
</glyph>
<glyph name="decyr.ss08" format="2">
  <advance width="741"/>
  <outline>
    <contour>
      <point x="99" y="86" type="line"/>
      <point x="291" y="86" type="line"/>
      <point x="370" y="332" type="line"/>
      <point x="449" y="86" type="line"/>
      <point x="643" y="86" type="line"/>
      <point x="474" y="500" type="line"/>
      <point x="268" y="500" type="line"/>
    </contour>
    <contour>
      <point x="148" y="-140" type="line"/>
      <point x="149" y="-107"/>
      <point x="135" y="0"/>
      <point x="194" y="0" type="curve" smooth="yes"/>
      <point x="544" y="0" type="line" smooth="yes"/>
      <point x="615" y="0"/>
      <point x="596" y="-102"/>
      <point x="596" y="-140" type="curve"/>
      <point x="732" y="-140" type="line"/>
      <point x="732" y="72"/>
      <point x="711" y="130"/>
      <point x="613" y="130" type="curve" smooth="yes"/>
      <point x="130" y="130" type="line" smooth="yes"/>
      <point x="32" y="130"/>
      <point x="11" y="72"/>
      <point x="11" y="-140" type="curve"/>
    </contour>
  </outline>
</glyph>
<glyph name="dollar.ss10" format="2">
  <advance width="580"/>
  <outline>
    <contour>
      <point x="26" y="134.461" type="line"/>
      <point x="81.1066" y="54.9632"/>
      <point x="167.273" y="0.0720003"/>
      <point x="290.512" y="0.0720003" type="curve" smooth="yes"/>
      <point x="443.808" y="0.0720003"/>
      <point x="543" y="86.3382"/>
      <point x="543" y="221.899" type="curve" smooth="yes"/>
      <point x="543" y="347.408"/>
      <point x="437.629" y="382.451"/>
      <point x="348.197" y="412.193" type="curve" smooth="yes"/>
      <point x="282.267" y="434.118"/>
      <point x="225" y="453.163"/>
      <point x="225" y="503.449" type="curve" smooth="yes"/>
      <point x="225" y="536.629"/>
      <point x="249" y="567.912"/>
      <point x="305" y="567.912" type="curve" smooth="yes"/>
      <point x="373" y="567.912"/>
      <point x="423" y="521.257"/>
      <point x="487" y="410.81" type="curve"/>
      <point x="532" y="566.019" type="line"/>
      <point x="478" y="645.517"/>
      <point x="392" y="700.408"/>
      <point x="272" y="700.408" type="curve" smooth="yes"/>
      <point x="127" y="700.408"/>
      <point x="35" y="619.83"/>
      <point x="35" y="481.425" type="curve" smooth="yes"/>
      <point x="35" y="347.057"/>
      <point x="142.648" y="310.258"/>
      <point x="232.877" y="279.414" type="curve" smooth="yes"/>
      <point x="297.973" y="257.161"/>
      <point x="353" y="238.007"/>
      <point x="353" y="187.551" type="curve" smooth="yes"/>
      <point x="353" y="154.372"/>
      <point x="328.915" y="132.568"/>
      <point x="273.719" y="132.568" type="curve" smooth="yes"/>
      <point x="193.434" y="132.568"/>
      <point x="137.235" y="179.223"/>
      <point x="71" y="289.67" type="curve"/>
    </contour>
    <contour>
      <point x="267" y="-101" type="line"/>
      <point x="305" y="-101" type="line"/>
      <point x="305" y="780" type="line"/>
      <point x="267" y="780" type="line"/>
    </contour>
  </outline>
</glyph>
<glyph name="dollar.ss12" format="2">
  <advance width="590"/>
  <outline>
    <contour>
      <point x="37.286" y="106.238" type="line"/>
      <point x="91.744" y="45.03"/>
      <point x="206.623" y="0.07"/>
      <point x="311" y="0.07" type="curve" smooth="yes"/>
      <point x="467" y="0.07"/>
      <point x="553" y="87.293"/>
      <point x="553" y="201.063" type="curve" smooth="yes"/>
      <point x="553" y="335.252"/>
      <point x="451.372" y="374.345"/>
      <point x="365.06" y="407.547" type="curve" smooth="yes"/>
      <point x="301.358" y="432.051"/>
      <point x="246" y="453.345"/>
      <point x="246" y="507.293" type="curve" smooth="yes"/>
      <point x="246" y="544.613"/>
      <point x="269.426" y="563.721"/>
      <point x="315.179" y="563.721" type="curve" smooth="yes"/>
      <point x="382.903" y="563.721"/>
      <point x="448.215" y="531.551"/>
      <point x="523.094" y="474.957" type="curve"/>
      <point x="535.574" y="599.522" type="line"/>
      <point x="481.116" y="660.731"/>
      <point x="383.377" y="700.48"/>
      <point x="279" y="700.48" type="curve" smooth="yes"/>
      <point x="139" y="700.48"/>
      <point x="56" y="622.737"/>
      <point x="56" y="509.916" type="curve" smooth="yes"/>
      <point x="56" y="363.067"/>
      <point x="161.678" y="322.609"/>
      <point x="249.029" y="289.168" type="curve" smooth="yes"/>
      <point x="310.561" y="265.611"/>
      <point x="363" y="245.535"/>
      <point x="363" y="194.205" type="curve" smooth="yes"/>
      <point x="363" y="157.23"/>
      <point x="339.821" y="136.829"/>
      <point x="274.821" y="136.829" type="curve" smooth="yes"/>
      <point x="207.097" y="136.829"/>
      <point x="124.645" y="174.209"/>
      <point x="49.766" y="230.804" type="curve"/>
    </contour>
    <contour>
      <point x="282" y="-101" type="line"/>
      <point x="320" y="-101" type="line"/>
      <point x="320" y="780" type="line"/>
      <point x="282" y="780" type="line"/>
    </contour>
  </outline>
</glyph>
<glyph name="dotlessi.ss11" format="2">
  <advance width="370"/>
  <anchor x="185" y="520" name="top"/>
  <anchor x="185" y="-20" name="bottom"/>
  <anchor x="353" y="-2" name="ogonek"/>
  <outline>
    <contour>
      <point x="90" y="0" type="line" name="ab01"/>
      <point x="280" y="0" type="line"/>
      <point x="280" y="500" type="line"/>
      <point x="90" y="500" type="line" name="av01"/>
    </contour>
    <contour>
      <point x="10" y="370" type="line"/>
      <point x="360" y="370" type="line"/>
      <point x="360" y="500" type="line"/>
      <point x="10" y="500" type="line"/>
    </contour>
    <contour>
      <point x="10" y="0" type="line"/>
      <point x="360" y="0" type="line"/>
      <point x="360" y="130" type="line"/>
      <point x="10" y="130" type="line"/>
    </contour>
  </outline>
</glyph>
<glyph name="e.ss10" format="2">
  <advance width="585"/>
  <anchor x="294" y="520" name="top"/>
  <anchor x="294" y="-20" name="bottom"/>
  <anchor x="434" y="-3" name="ogonek"/>
  <outline>
    <contour>
      <point x="368" y="328" type="line"/>
      <point x="368" y="358"/>
      <point x="340.816" y="390"/>
      <point x="294.503" y="390" type="curve" smooth="yes"/>
      <point x="247.184" y="390"/>
      <point x="220" y="356"/>
      <point x="220" y="328" type="curve"/>
    </contour>
    <contour>
      <point x="219" y="224" type="line"/>
      <point x="219" y="166"/>
      <point x="245.092" y="110"/>
      <point x="332.045" y="110" type="curve" smooth="yes"/>
      <point x="394.618" y="110"/>
      <point x="443.28" y="139"/>
      <point x="503" y="220" type="curve"/>
      <point x="546" y="70" type="line"/>
      <point x="511.934" y="18"/>
      <point x="419.756" y="-20"/>
      <point x="312.676" y="-20" type="curve" smooth="yes"/>
      <point x="123.184" y="-20"/>
      <point x="28" y="99"/>
      <point x="28" y="255" type="curve" smooth="yes"/>
      <point x="28" y="401"/>
      <point x="132.381" y="520"/>
      <point x="302" y="520" type="curve" smooth="yes"/>
      <point x="473" y="520"/>
      <point x="571" y="408"/>
      <point x="561" y="224" type="curve"/>
    </contour>
  </outline>
</glyph>
<glyph name="eogonek.ss10" format="2">
  <advance width="585"/>
  <anchor x="294" y="520" name="top"/>
  <anchor x="294" y="-20" name="bottom"/>
  <outline>
    <contour>
      <point x="368" y="328" type="line"/>
      <point x="368" y="358"/>
      <point x="340.816" y="390"/>
      <point x="294.503" y="390" type="curve" smooth="yes"/>
      <point x="247.184" y="390"/>
      <point x="220" y="356"/>
      <point x="220" y="328" type="curve"/>
    </contour>
    <contour>
      <point x="219" y="224" type="line"/>
      <point x="219" y="166"/>
      <point x="245.092" y="110"/>
      <point x="332.045" y="110" type="curve" smooth="yes"/>
      <point x="394.618" y="110"/>
      <point x="443.28" y="139"/>
      <point x="503" y="220" type="curve"/>
      <point x="546" y="70" type="line"/>
      <point x="511.934" y="18"/>
      <point x="419.756" y="-20"/>
      <point x="312.676" y="-20" type="curve" smooth="yes"/>
      <point x="123.184" y="-20"/>
      <point x="28" y="99"/>
      <point x="28" y="255" type="curve" smooth="yes"/>
      <point x="28" y="401"/>
      <point x="132.381" y="520"/>
      <point x="302" y="520" type="curve" smooth="yes"/>
      <point x="473" y="520"/>
      <point x="571" y="408"/>
      <point x="561" y="224" type="curve"/>
    </contour>
    <contour>
      <point x="367.637" y="-206" type="line"/>
      <point x="288.25" y="-196"/>
      <point x="237" y="-158"/>
      <point x="237" y="-105" type="curve" smooth="yes"/>
      <point x="237" y="-53"/>
      <point x="285.236" y="-14"/>
      <point x="381.709" y="3" type="curve"/>
      <point x="441" y="0" type="line"/>
      <point x="402.619" y="-24"/>
      <point x="379" y="-67"/>
      <point x="379" y="-104" type="curve" smooth="yes"/>
      <point x="379" y="-138"/>
      <point x="399.672" y="-169"/>
      <point x="442" y="-183" type="curve"/>
    </contour>
  </outline>
</glyph>
<glyph name="epsilon.ss09" format="2">
  <advance width="540"/>
  <anchor x="267" y="519" name="topgr"/>
  <outline>
    <contour>
      <point x="319" y="167" type="line"/>
      <point x="312" y="135"/>
      <point x="298" y="110"/>
      <point x="262" y="110" type="curve" smooth="yes"/>
      <point x="236" y="110"/>
      <point x="220" y="122.148"/>
      <point x="220" y="148.469" type="curve" smooth="yes"/>
      <point x="220" y="181.877"/>
      <point x="247" y="192"/>
      <point x="338" y="192" type="curve"/>
      <point x="338" y="307" type="line"/>
      <point x="260" y="307"/>
      <point x="234" y="318.134"/>
      <point x="234" y="351.537" type="curve" smooth="yes"/>
      <point x="234" y="373.805"/>
      <point x="245" y="390"/>
      <point x="272" y="390" type="curve" smooth="yes"/>
      <point x="301" y="390"/>
      <point x="314" y="371"/>
      <point x="317" y="331" type="curve"/>
      <point x="500" y="331" type="line"/>
      <point x="483" y="454"/>
      <point x="398" y="520"/>
      <point x="255" y="520" type="curve" smooth="yes"/>
      <point x="135" y="520"/>
      <point x="48" y="474"/>
      <point x="48" y="388" type="curve" smooth="yes"/>
      <point x="48" y="319"/>
      <point x="103" y="273"/>
      <point x="209" y="261" type="curve"/>
      <point x="92" y="263"/>
      <point x="29" y="224"/>
      <point x="29" y="137" type="curve" smooth="yes"/>
      <point x="29" y="27"/>
      <point x="131" y="-20"/>
      <point x="255" y="-20" type="curve" smooth="yes"/>
      <point x="404" y="-20"/>
      <point x="491" y="47"/>
      <point x="501" y="167" type="curve"/>
    </contour>
  </outline>
</glyph>
<glyph name="epsilon.ss10" format="2">
  <advance width="500"/>
  <anchor x="250" y="519" name="topgr"/>
  <outline>
    <contour>
      <point x="386" y="208" type="curve"/>
      <point x="386" y="308" type="line"/>
      <point x="282" y="308"/>
      <point x="239" y="321"/>
      <point x="239" y="356" type="curve" smooth="yes"/>
      <point x="239" y="377"/>
      <point x="255" y="390"/>
      <point x="285" y="390" type="curve" smooth="yes"/>
      <point x="331" y="390"/>
      <point x="368" y="358"/>
      <point x="418" y="280" type="curve"/>
      <point x="461" y="430" type="line"/>
      <point x="433" y="470"/>
      <point x="358" y="520"/>
      <point x="242" y="520" type="curve" smooth="yes"/>
      <point x="121" y="520"/>
      <point x="46" y="465"/>
      <point x="46" y="377" type="curve" smooth="yes"/>
      <point x="46" y="324"/>
      <point x="73" y="277"/>
      <point x="223" y="260" type="curve"/>
      <point x="75" y="253"/>
      <point x="29" y="218"/>
      <point x="29" y="143" type="curve" smooth="yes"/>
      <point x="29" y="43"/>
      <point x="112" y="-20"/>
      <point x="242" y="-20" type="curve" smooth="yes"/>
      <point x="358" y="-20"/>
      <point x="433" y="30"/>
      <point x="461" y="70" type="curve"/>
      <point x="418" y="220" type="line"/>
      <point x="368" y="142"/>
      <point x="331" y="110"/>
      <point x="278" y="110" type="curve" smooth="yes"/>
      <point x="243" y="110"/>
      <point x="222" y="124"/>
      <point x="222" y="152" type="curve" smooth="yes"/>
      <point x="222" y="193"/>
      <point x="267" y="208"/>
    </contour>
  </outline>
</glyph>
<glyph name="equal.case" format="2">
  <advance width="514"/>
  <outline>
    <contour>
      <point x="50" y="197" type="line"/>
      <point x="464" y="197" type="line"/>
      <point x="464" y="233" type="line"/>
      <point x="50" y="233" type="line"/>
    </contour>
    <contour>
      <point x="50" y="417" type="line"/>
      <point x="464" y="417" type="line"/>
      <point x="464" y="453" type="line"/>
      <point x="50" y="453" type="line"/>
    </contour>
  </outline>
</glyph>
<glyph name="f_thorn" format="2">
  <advance width="996"/>
  <outline>
    <contour>
      <point x="89" y="0" type="line" name="ab01"/>
      <point x="279" y="0" type="line"/>
      <point x="279" y="370" type="line" name="sv01"/>
      <point x="405" y="370" type="line"/>
      <point x="405" y="500" type="line" name="sv02"/>
      <point x="279" y="500" type="line"/>
      <point x="279" y="541" type="line" smooth="yes"/>
      <point x="279" y="578"/>
      <point x="295" y="612"/>
      <point x="338" y="612" type="curve" smooth="yes" name="dv01"/>
      <point x="443.21" y="612" type="line"/>
      <point x="443" y="-200" type="line" name="av01"/>
      <point x="633" y="-200" type="line"/>
      <point x="633" y="61.33" type="line"/>
      <point x="660.26" y="8.65"/>
      <point x="701.94" y="-20"/>
      <point x="756" y="-20" type="curve" smooth="yes" name="dv01"/>
      <point x="892" y="-20"/>
      <point x="976" y="99"/>
      <point x="976" y="255" type="curve" smooth="yes"/>
      <point x="976" y="411"/>
      <point x="906" y="520"/>
      <point x="768" y="520" type="curve" smooth="yes" name="at01"/>
      <point x="706.41" y="520"/>
      <point x="661.46" y="493.61"/>
      <point x="633" y="442.54" type="curve"/>
      <point x="632.54" y="750" type="line"/>
      <point x="315.05" y="750" type="line" smooth="yes" name="dv02"/>
      <point x="190.271" y="750"/>
      <point x="89" y="705.235"/>
      <point x="89" y="568.27" type="curve" smooth="yes"/>
      <point x="89" y="500" type="line" name="dv04"/>
      <point x="12" y="500" type="line"/>
      <point x="12" y="370" type="line"/>
      <point x="89" y="370" type="line" name="dv03"/>
    </contour>
    <contour>
      <point x="705" y="116" type="curve" smooth="yes" name="dv02"/>
      <point x="660" y="116"/>
      <point x="633" y="168"/>
      <point x="633" y="255" type="curve" smooth="yes"/>
      <point x="633" y="335"/>
      <point x="661" y="383"/>
      <point x="709" y="383" type="curve" smooth="yes" name="sv01"/>
      <point x="757" y="383"/>
      <point x="786" y="334"/>
      <point x="786" y="254" type="curve" smooth="yes"/>
      <point x="786" y="167"/>
      <point x="756" y="116"/>
    </contour>
  </outline>
</glyph>
<glyph name="fi.ss11" format="2">
  <advance width="753"/>
  <outline>
    <contour>
      <point x="79" y="0" type="line"/>
      <point x="269" y="0" type="line"/>
      <point x="269" y="370" type="line"/>
      <point x="399" y="370" type="line"/>
      <point x="399" y="500" type="line"/>
      <point x="269" y="500" type="line"/>
      <point x="269" y="521" type="line" smooth="yes"/>
      <point x="269" y="564"/>
      <point x="285" y="586"/>
      <point x="314" y="586" type="curve" smooth="yes"/>
      <point x="329" y="586"/>
      <point x="370" y="584"/>
      <point x="411" y="578" type="curve"/>
      <point x="411" y="708" type="line"/>
      <point x="364" y="715"/>
      <point x="325" y="721"/>
      <point x="267" y="721" type="curve" smooth="yes"/>
      <point x="148" y="721"/>
      <point x="79" y="674"/>
      <point x="79" y="578" type="curve" smooth="yes"/>
      <point x="79" y="500" type="line"/>
      <point x="2" y="500" type="line"/>
      <point x="2" y="370" type="line"/>
      <point x="79" y="370" type="line"/>
    </contour>
    <contour>
      <point x="473" y="0" type="line" name="ab01"/>
      <point x="663" y="0" type="line"/>
      <point x="663" y="500" type="line"/>
      <point x="473" y="500" type="line" name="av01"/>
    </contour>
    <contour>
      <point x="393" y="370" type="line"/>
      <point x="743" y="370" type="line"/>
      <point x="743" y="500" type="line"/>
      <point x="393" y="500" type="line"/>
    </contour>
    <contour>
      <point x="393" y="0" type="line"/>
      <point x="743" y="0" type="line"/>
      <point x="743" y="130" type="line"/>
      <point x="393" y="130" type="line"/>
    </contour>
    <contour>
      <point x="473.5" y="636.951" type="curve" smooth="yes"/>
      <point x="473.908" y="595.1"/>
      <point x="506.198" y="544.688"/>
      <point x="569.927" y="544.688" type="curve" smooth="yes" name="dv01"/>
      <point x="631.753" y="544.688"/>
      <point x="664.092" y="591.295"/>
      <point x="663.5" y="637.902" type="curve"/>
      <point x="664.092" y="684.51"/>
      <point x="631.753" y="727.312"/>
      <point x="570.878" y="727.312" type="curve" smooth="yes" name="dv02"/>
      <point x="506.198" y="727.312"/>
      <point x="473.092" y="678.805"/>
    </contour>
  </outline>
</glyph>
<glyph name="g.ss09" format="2">
  <advance width="558"/>
  <anchor x="273" y="520" name="top"/>
  <anchor x="273" y="-220" name="bottom"/>
  <outline>
    <contour>
      <point x="37" y="319" type="curve" smooth="yes"/>
      <point x="37" y="202"/>
      <point x="136.661" y="124"/>
      <point x="274.966" y="124" type="curve" smooth="yes" name="dv05"/>
      <point x="416.322" y="124"/>
      <point x="517" y="206"/>
      <point x="517" y="322" type="curve" smooth="yes" name="sv14"/>
      <point x="517" y="437"/>
      <point x="417.339" y="520"/>
      <point x="278.017" y="520" type="curve" smooth="yes" name="at01"/>
      <point x="136.661" y="520"/>
      <point x="37" y="435"/>
    </contour>
    <contour>
      <point x="277" y="254" type="curve" smooth="yes" name="dv06"/>
      <point x="235.261" y="254"/>
      <point x="217" y="283"/>
      <point x="217" y="320" type="curve" smooth="yes" name="sv09"/>
      <point x="217" y="357"/>
      <point x="235.261" y="390"/>
      <point x="277" y="390" type="curve" smooth="yes" name="sv01"/>
      <point x="318.739" y="390"/>
      <point x="337" y="357"/>
      <point x="337" y="320" type="curve" smooth="yes" name="sv13"/>
      <point x="337" y="283"/>
      <point x="318.739" y="254"/>
    </contour>
    <contour>
      <point x="24" y="-33" type="line" name="sv12"/>
      <point x="34.157" y="-158"/>
      <point x="125.575" y="-220"/>
      <point x="297.236" y="-220" type="curve" smooth="yes" name="dv01"/>
      <point x="453.661" y="-220"/>
      <point x="540" y="-169.481"/>
      <point x="540" y="-60.519" type="curve" smooth="yes" name="sv08"/>
      <point x="540" y="39.528"/>
      <point x="466.409" y="95"/>
      <point x="269.144" y="95" type="curve" smooth="yes" name="sv05"/>
      <point x="199.641" y="95"/>
      <point x="170" y="102.228"/>
      <point x="170" y="137.337" type="curve" smooth="yes" name="sv06"/>
      <point x="170" y="160.054"/>
      <point x="182" y="176.576"/>
      <point x="213" y="190" type="curve" name="sv10"/>
      <point x="172" y="247" type="line" name="sv11"/>
      <point x="64" y="208.73"/>
      <point x="20" y="168.498"/>
      <point x="20" y="99.809" type="curve" smooth="yes"/>
      <point x="20" y="16.401"/>
      <point x="87.635" y="-15"/>
      <point x="234.176" y="-15" type="curve" smooth="yes" name="ab01"/>
      <point x="320.257" y="-15"/>
      <point x="351" y="-26.786"/>
      <point x="351" y="-51.429" type="curve" smooth="yes" name="sv07"/>
      <point x="351" y="-71.786"/>
      <point x="330.882" y="-90"/>
      <point x="283.235" y="-90" type="curve" smooth="yes" name="dv02"/>
      <point x="232.412" y="-90"/>
      <point x="209.118" y="-70"/>
      <point x="207" y="-33" type="curve" name="sv04"/>
    </contour>
    <contour>
      <point x="419" y="414" type="line" name="sv03"/>
      <point x="424" y="462"/>
      <point x="440" y="491"/>
      <point x="453" y="502" type="curve" name="at02"/>
      <point x="459" y="475"/>
      <point x="487" y="454"/>
      <point x="518" y="454" type="curve" smooth="yes" name="dv03"/>
      <point x="558" y="454"/>
      <point x="586" y="490"/>
      <point x="586" y="536" type="curve" smooth="yes"/>
      <point x="586" y="584"/>
      <point x="556" y="614"/>
      <point x="511" y="614" type="curve" smooth="yes" name="dv04"/>
      <point x="446" y="614"/>
      <point x="389" y="550"/>
      <point x="378" y="435" type="curve" name="sv02"/>
    </contour>
  </outline>
</glyph>
<glyph name="g.ss12" format="2">
  <advance width="635"/>
  <anchor x="308" y="-220" name="bottom"/>
  <anchor x="317" y="520" name="top"/>
  <outline>
    <contour>
      <point x="263" y="-20" type="curve" smooth="yes"/>
      <point x="367" y="-20"/>
      <point x="424" y="85"/>
      <point x="424" y="255" type="curve" smooth="yes"/>
      <point x="424" y="424"/>
      <point x="368" y="520"/>
      <point x="262" y="520" type="curve" smooth="yes"/>
      <point x="123" y="520"/>
      <point x="49" y="411"/>
      <point x="49" y="255" type="curve" smooth="yes"/>
      <point x="49" y="99"/>
      <point x="124" y="-20"/>
    </contour>
    <contour>
      <point x="316" y="106" type="curve" smooth="yes"/>
      <point x="263" y="106"/>
      <point x="239" y="165"/>
      <point x="239" y="254" type="curve" smooth="yes"/>
      <point x="239" y="340"/>
      <point x="262" y="393"/>
      <point x="317" y="393" type="curve" smooth="yes"/>
      <point x="365" y="393"/>
      <point x="392" y="340"/>
      <point x="392" y="255" type="curve" smooth="yes"/>
      <point x="392" y="167"/>
      <point x="362" y="106"/>
    </contour>
    <contour>
      <point x="73" y="-131" type="line"/>
      <point x="122" y="-185"/>
      <point x="198" y="-220"/>
      <point x="289" y="-220" type="curve" smooth="yes"/>
      <point x="484" y="-220"/>
      <point x="582" y="-129"/>
      <point x="582" y="32" type="curve" smooth="yes"/>
      <point x="582" y="500" type="line"/>
      <point x="392" y="500" type="line"/>
      <point x="392" y="41" type="line" smooth="yes"/>
      <point x="392" y="-49"/>
      <point x="353" y="-90"/>
      <point x="269" y="-90" type="curve" smooth="yes"/>
      <point x="200" y="-90"/>
      <point x="152" y="-67"/>
      <point x="84" y="-15" type="curve"/>
    </contour>
  </outline>
</glyph>
<glyph name="h.ss11" format="2">
  <advance width="606"/>
  <anchor x="144" y="750" name="top"/>
  <anchor x="308" y="-20" name="bottom"/>
  <outline>
    <contour>
      <point x="49" y="0" type="line"/>
      <point x="239" y="0" type="line"/>
      <point x="239" y="700" type="line"/>
      <point x="49" y="700" type="line"/>
    </contour>
    <contour>
      <point x="376" y="0" type="line" name="ab01"/>
      <point x="566" y="0" type="line"/>
      <point x="566" y="314" type="line" smooth="yes"/>
      <point x="566" y="458"/>
      <point x="502" y="520"/>
      <point x="408" y="520" type="curve" smooth="yes" name="at01"/>
      <point x="317" y="520"/>
      <point x="248" y="461"/>
      <point x="221" y="360" type="curve"/>
      <point x="223" y="282" type="line"/>
      <point x="239" y="217" type="line" name="iv01"/>
      <point x="239" y="313.18"/>
      <point x="259" y="380"/>
      <point x="314" y="380" type="curve" smooth="yes" name="sv01"/>
      <point x="354" y="380"/>
      <point x="376" y="344.815"/>
      <point x="376" y="267.407" type="curve" smooth="yes"/>
    </contour>
  </outline>
</glyph>
<glyph name="hbar.ss11" format="2">
  <advance width="625"/>
  <outline>
    <contour>
      <point x="59" y="0" type="line"/>
      <point x="249" y="0" type="line"/>
      <point x="249" y="700" type="line"/>
      <point x="59" y="700" type="line"/>
    </contour>
    <contour>
      <point x="249" y="197" type="line" name="iv01"/>
      <point x="249" y="293.18"/>
      <point x="269" y="360"/>
      <point x="324" y="360" type="curve" smooth="yes" name="sv01"/>
      <point x="364" y="360"/>
      <point x="386" y="324.815"/>
      <point x="386" y="247.407" type="curve" smooth="yes"/>
      <point x="386" y="0" type="line" name="ab01"/>
      <point x="576" y="0" type="line"/>
      <point x="576" y="294" type="line" smooth="yes"/>
      <point x="576" y="438"/>
      <point x="512" y="500"/>
      <point x="418" y="500" type="curve" smooth="yes" name="at01"/>
      <point x="327" y="500"/>
      <point x="258" y="441"/>
      <point x="231" y="340" type="curve"/>
      <point x="233" y="262" type="line"/>
    </contour>
    <contour>
      <point x="-1.1" y="601" type="line"/>
      <point x="384.012" y="601" type="line"/>
      <point x="384.012" y="635" type="line"/>
      <point x="-1.1" y="635" type="line"/>
    </contour>
  </outline>
</glyph>
<glyph name="hyphen.case" format="2">
  <advance width="390"/>
  <outline>
    <contour>
      <point x="50" y="326" type="line"/>
      <point x="339.575" y="326" type="line"/>
      <point x="339.575" y="392" type="line"/>
      <point x="50" y="392" type="line"/>
    </contour>
  </outline>
</glyph>
<glyph name="iogonek.ss11" format="2">
  <advance width="370"/>
  <anchor x="185" y="-20" name="bottom"/>
  <anchor x="185" y="717" name="top"/>
  <outline>
    <contour>
      <point x="90" y="0" type="line" name="ab01"/>
      <point x="280" y="0" type="line"/>
      <point x="280" y="500" type="line"/>
      <point x="90" y="500" type="line" name="av01"/>
    </contour>
    <contour>
      <point x="10" y="370" type="line"/>
      <point x="360" y="370" type="line"/>
      <point x="360" y="500" type="line"/>
      <point x="10" y="500" type="line"/>
    </contour>
    <contour>
      <point x="10" y="0" type="line"/>
      <point x="360" y="0" type="line"/>
      <point x="360" y="130" type="line"/>
      <point x="10" y="130" type="line"/>
    </contour>
    <contour>
      <point x="90.5" y="636.951" type="curve" smooth="yes"/>
      <point x="90.908" y="595.1"/>
      <point x="123.199" y="544.688"/>
      <point x="186.927" y="544.688" type="curve" smooth="yes" name="dv01"/>
      <point x="248.753" y="544.688"/>
      <point x="281.092" y="591.295"/>
      <point x="280.5" y="637.902" type="curve"/>
      <point x="281.092" y="684.51"/>
      <point x="248.753" y="727.312"/>
      <point x="187.878" y="727.312" type="curve" smooth="yes" name="dv02"/>
      <point x="123.198" y="727.312"/>
      <point x="90.092" y="678.805"/>
    </contour>
    <contour>
      <point x="361" y="-182" type="line"/>
      <point x="318.672" y="-168"/>
      <point x="298" y="-137"/>
      <point x="298" y="-103" type="curve" smooth="yes"/>
      <point x="298" y="-66"/>
      <point x="321.619" y="-23"/>
      <point x="360" y="1" type="curve"/>
      <point x="300.709" y="4" type="line"/>
      <point x="204.236" y="-13"/>
      <point x="156" y="-52"/>
      <point x="156" y="-104" type="curve" smooth="yes"/>
      <point x="156" y="-157"/>
      <point x="207.25" y="-195"/>
      <point x="286.637" y="-205" type="curve"/>
    </contour>
  </outline>
</glyph>
<glyph name="l.ss11" format="2">
  <advance width="272"/>
  <anchor x="136" y="750" name="top"/>
  <anchor x="136" y="-20" name="bottom"/>
  <anchor x="272" y="700" name="topright"/>
  <outline>
    <contour>
      <point x="41" y="0" type="line"/>
      <point x="231" y="0" type="line"/>
      <point x="231" y="700" type="line"/>
      <point x="41" y="700" type="line"/>
    </contour>
  </outline>
</glyph>
<glyph name="lira.osf" format="2">
  <advance width="666"/>
  <outline>
    <contour>
      <point x="42" y="359" type="line"/>
      <point x="500" y="359" type="line"/>
      <point x="500" y="449" type="line"/>
      <point x="42" y="449" type="line"/>
    </contour>
    <contour>
      <point x="42" y="219" type="line"/>
      <point x="500" y="219" type="line"/>
      <point x="500" y="309" type="line"/>
      <point x="42" y="309" type="line"/>
    </contour>
    <contour>
      <point x="38" y="0" type="line"/>
      <point x="643" y="0" type="line"/>
      <point x="643" y="140" type="line"/>
      <point x="202" y="140" type="line"/>
      <point x="294" y="163"/>
      <point x="310" y="217.13"/>
      <point x="310" y="284.291" type="curve" smooth="yes"/>
      <point x="310" y="468.733" type="line" smooth="yes"/>
      <point x="310" y="536.897"/>
      <point x="326" y="580"/>
      <point x="386" y="580" type="curve" smooth="yes"/>
      <point x="431" y="580"/>
      <point x="481" y="555.721"/>
      <point x="541" y="493" type="curve"/>
      <point x="647" y="599" type="line"/>
      <point x="573" y="689"/>
      <point x="477" y="720"/>
      <point x="385" y="720" type="curve" smooth="yes"/>
      <point x="228" y="720"/>
      <point x="120" y="630"/>
      <point x="120" y="482" type="curve" smooth="yes"/>
      <point x="120" y="244" type="line" smooth="yes"/>
      <point x="120" y="176"/>
      <point x="84" y="128"/>
      <point x="38" y="100" type="curve"/>
    </contour>
  </outline>
</glyph>
<glyph name="lira.ss12" format="2">
  <advance width="620"/>
  <outline>
    <contour>
      <point x="41" y="349" type="line"/>
      <point x="495" y="349" type="line"/>
      <point x="495" y="428" type="line"/>
      <point x="41" y="428" type="line"/>
    </contour>
    <contour>
      <point x="41" y="203" type="line"/>
      <point x="495" y="203" type="line"/>
      <point x="495" y="283" type="line"/>
      <point x="41" y="283" type="line"/>
    </contour>
    <contour>
      <point x="37" y="0" type="line"/>
      <point x="587" y="0" type="line"/>
      <point x="587" y="140" type="line"/>
      <point x="177" y="140" type="line"/>
      <point x="285" y="163"/>
      <point x="309" y="198"/>
      <point x="309" y="267" type="curve" smooth="yes"/>
      <point x="309" y="480" type="line" smooth="yes"/>
      <point x="309" y="547"/>
      <point x="335" y="579"/>
      <point x="389" y="579" type="curve" smooth="yes"/>
      <point x="442" y="579"/>
      <point x="527" y="547"/>
      <point x="584" y="472" type="curve"/>
      <point x="597" y="596" type="line"/>
      <point x="523" y="677"/>
      <point x="441" y="720"/>
      <point x="342" y="720" type="curve" smooth="yes"/>
      <point x="189" y="720"/>
      <point x="119" y="617"/>
      <point x="119" y="447" type="curve" smooth="yes"/>
      <point x="119" y="253" type="line" smooth="yes"/>
      <point x="119" y="185"/>
      <point x="83" y="138"/>
      <point x="37" y="110" type="curve"/>
    </contour>
  </outline>
</glyph>
<glyph name="lslash.ss11" format="2">
  <advance width="272"/>
  <outline>
    <contour>
      <point x="42" y="0" type="line" name="av01"/>
      <point x="232" y="0" type="line"/>
      <point x="232" y="700" type="line" name="av02"/>
      <point x="42" y="700" type="line"/>
    </contour>
    <contour>
      <point x="-11" y="201" type="line"/>
      <point x="283" y="401" type="line"/>
      <point x="283" y="527" type="line"/>
      <point x="-11" y="327" type="line"/>
    </contour>
  </outline>
</glyph>
<glyph name="micro" format="2">
  <advance width="580"/>
  <anchor x="290" y="520" name="topgr"/>
  <outline>
    <contour>
      <point x="43" y="-200" type="line"/>
      <point x="233" y="-200" type="line"/>
      <point x="233" y="500" type="line"/>
      <point x="43" y="500" type="line"/>
    </contour>
    <contour>
      <point x="359" y="213" type="line"/>
      <point x="343" y="283" type="line"/>
      <point x="343" y="173.366"/>
      <point x="319.842" y="110"/>
      <point x="277.386" y="110" type="curve" smooth="yes"/>
      <point x="245.544" y="110"/>
      <point x="233" y="147.095"/>
      <point x="233" y="248.355" type="curve" smooth="yes"/>
      <point x="233" y="500" type="line"/>
      <point x="43" y="500" type="line"/>
      <point x="43" y="196" type="line" smooth="yes"/>
      <point x="43" y="58"/>
      <point x="104.165" y="-20"/>
      <point x="204.791" y="-20" type="curve" smooth="yes"/>
      <point x="283.714" y="-20"/>
      <point x="336" y="29"/>
      <point x="361" y="121" type="curve"/>
    </contour>
    <contour>
      <point x="343" y="0" type="line" name="ab01"/>
      <point x="533" y="0" type="line"/>
      <point x="533" y="500" type="line"/>
      <point x="343" y="500" type="line" name="av01"/>
    </contour>
  </outline>
</glyph>
<glyph name="micro.ss01" format="2">
  <advance width="610"/>
  <anchor x="300" y="520" name="topgr"/>
  <outline>
    <contour>
      <point x="45" y="-200" type="line"/>
      <point x="235" y="-200" type="line"/>
      <point x="235" y="500" type="line"/>
      <point x="45" y="500" type="line"/>
    </contour>
    <contour>
      <point x="373" y="213" type="line"/>
      <point x="357" y="283" type="line"/>
      <point x="357" y="173.366"/>
      <point x="331.316" y="110"/>
      <point x="284.228" y="110" type="curve" smooth="yes"/>
      <point x="248.912" y="110"/>
      <point x="235" y="147.095"/>
      <point x="235" y="248.355" type="curve" smooth="yes"/>
      <point x="235" y="500" type="line"/>
      <point x="45" y="500" type="line"/>
      <point x="45" y="196" type="line" smooth="yes"/>
      <point x="45" y="58"/>
      <point x="107" y="-20"/>
      <point x="209" y="-20" type="curve" smooth="yes"/>
      <point x="289" y="-20"/>
      <point x="347.436" y="29"/>
      <point x="375" y="121" type="curve"/>
    </contour>
    <contour>
      <point x="603" y="133" type="line"/>
      <point x="566" y="133"/>
      <point x="547" y="148"/>
      <point x="547" y="210" type="curve" smooth="yes"/>
      <point x="547" y="500" type="line"/>
      <point x="357" y="500" type="line"/>
      <point x="357" y="153" type="line" smooth="yes"/>
      <point x="357" y="47"/>
      <point x="411" y="0"/>
      <point x="530" y="0" type="curve" smooth="yes"/>
      <point x="603" y="0" type="line"/>
    </contour>
  </outline>
</glyph>
